<?xml version="1.0" encoding="UTF-8"?>
<svg xmlns="http://www.w3.org/2000/svg" viewBox="0 0 16 16"><path fill="none" d="M0 0H16V16H0z" data-name="Transparante laag"/><path d="M8 2C4.42 2 1.5 4.92 1.5 8.5S4.42 15 8 15s6.5-2.92 6.5-6.5S11.58 2 8 2m0 12c-3.03 0-5.5-2.47-5.5-5.5S4.97 3 8 3s5.5 2.47 5.5 5.5S11.03 14 8 14m1.85-4.35c.2.2.2.51 0 .71a.485.485 0 0 1-.7 0l-1.5-1.5a.5.5 0 0 1-.15-.35v-3c0-.28.22-.5.5-.5s.5.22.5.5V8.3zm-8.2-6.3c-.2-.2-.2-.51 0-.71l1.5-1.5c.2-.2.51-.2.71 0s.2.51 0 .71l-1.5 1.5a.485.485 0 0 1-.7 0Zm10.5-1.5c-.2-.2-.2-.51 0-.71s.51-.2.71 0l1.5 1.5c.2.2.2.51 0 .71a.485.485 0 0 1-.7 0l-1.5-1.5Z" style="fill: #ffffff;"/></svg>
