<?xml version="1.0" encoding="UTF-8"?>
<svg xmlns="http://www.w3.org/2000/svg" viewBox="0 0 16 16"><path fill="none" d="M0 0H16V16H0z" data-name="Transparante laag"/><path d="M3.31 5.11a.513.513 0 0 1 0-.71c2.58-2.53 6.78-2.53 9.37 0 .2.19.2.51 0 .71a.51.51 0 0 1-.71.01C9.77 2.97 6.2 2.97 4 5.12c-.2.19-.51.19-.71 0Zm2.17 1.41c-.2.19-.2.51 0 .71.19.2.51.2.71 0 1-.98 2.63-.98 3.63 0 .1.1.22.14.35.14s.26-.05.36-.15c.19-.2.19-.51 0-.71-1.39-1.36-3.65-1.36-5.03 0ZM14.5 14c0 .28-.22.5-.5.5H2c-.28 0-.5-.22-.5-.5s.22-.5.5-.5h5.5v-2.09c-.58-.21-1-.76-1-1.41 0-.83.67-1.5 1.5-1.5s1.5.67 1.5 1.5c0 .65-.42 1.2-1 1.41v2.09H14c.28 0 .5.22.5.5m-7-4c0 .28.22.5.5.5s.5-.22.5-.5-.22-.5-.5-.5-.5.22-.5.5" style="fill: #ffffff;"/></svg>
