<?xml version="1.0" encoding="UTF-8"?>
<svg xmlns="http://www.w3.org/2000/svg" viewBox="0 0 16 16"><path fill="none" d="M0 0H16V16H0z" data-name="Transparante laag"/><path d="M8 5c1.1 0 2-.9 2-2s-.9-2-2-2-2 .9-2 2 .9 2 2 2m0-3c.55 0 1 .45 1 1s-.45 1-1 1-1-.45-1-1 .45-1 1-1m5.63 1.88c-.27 0-.5.22-.5.5 0 .17-.06 1.63-1.63 1.63h-7c-1.51 0-1.61-1.46-1.62-1.63 0-.28-.24-.48-.51-.49-.28 0-.49.24-.49.51.02.9.59 2.6 2.62 2.6H6v7.5c0 .28.22.5.5.5s.5-.22.5-.5V11h2v3.5c0 .28.22.5.5.5s.5-.22.5-.5V7h1.5c2.08 0 2.63-1.72 2.63-2.63 0-.27-.22-.5-.5-.5ZM9 10H7V7h2z" style="fill: #ffffff;"/></svg>
