<?xml version="1.0" encoding="UTF-8"?>
<svg xmlns="http://www.w3.org/2000/svg" viewBox="0 0 16 16"><path fill="none" d="M0 0H16V16H0z" data-name="Transparante laag"/><path d="M8.18 5.01 6.33 6.85a.485.485 0 0 1-.7 0c-.2-.2-.2-.51 0-.71l1.15-1.15H5c-1.65 0-3 1.35-3 3s1.35 3 3 3c.28 0 .5.22.5.5s-.22.5-.5.5c-2.21 0-4-1.79-4-4s1.79-4 4-4h1.78L5.63 2.84c-.2-.2-.2-.51 0-.71s.51-.2.71 0l1.84 1.84c.28.28.28.74 0 1.02ZM11 4c-.28 0-.5.22-.5.5s.22.5.5.5c1.65 0 3 1.35 3 3s-1.35 3-3 3H9.25l1.15-1.15c.2-.2.2-.51 0-.71s-.51-.2-.71 0l-1.85 1.84c-.28.28-.28.74 0 1.02l1.84 1.84a.485.485 0 0 0 .7 0c.2-.2.2-.51 0-.71l-1.15-1.15h1.75c2.21 0 4-1.79 4-4s-1.79-4-4-4Z" style="fill: #ffffff;"/></svg>
