<?xml version="1.0" encoding="UTF-8"?>
<svg xmlns="http://www.w3.org/2000/svg" viewBox="0 0 16 16"><path fill="none" d="M0 0H16V16H0z" data-name="Transparante laag"/><path d="m14.67 7.11-.02-.02L9.4 2.57c-.77-.75-2.02-.75-2.77-.02l-5.3 4.56c-.32.32-.42.8-.25 1.22.17.41.54.67.98.67H4v2.5A2.5 2.5 0 0 0 6.5 14h3a2.5 2.5 0 0 0 2.5-2.5V9h1.94c.44 0 .81-.26.98-.67.17-.43.08-.9-.25-1.22m-.73.89H11.5c-.28 0-.5.22-.5.5v3c0 .83-.67 1.5-1.5 1.5h-3c-.83 0-1.5-.67-1.5-1.5v-3c0-.28-.22-.5-.5-.5l-2.49-.05s-.03-.08 0-.11L7.3 3.28c.19-.19.44-.28.69-.28s.52.1.73.3l5.25 4.53s.02.11-.04.17Z" style="fill: #ffffff;"/></svg>
