<?xml version="1.0" encoding="UTF-8"?>
<svg xmlns="http://www.w3.org/2000/svg" viewBox="0 0 16 16"><path fill="none" d="M0 0H16V16H0z" data-name="Transparante laag"/><path d="M12.33 6.38c-.13 0-.25-.05-.35-.14-2.2-2.15-5.77-2.15-7.97 0-.2.19-.51.19-.71 0a.513.513 0 0 1 0-.71C5.88 3 10.08 3 12.67 5.53c.2.19.2.51 0 .71-.1.1-.23.15-.36.15Zm-1.81 1.97c.19-.2.19-.51 0-.71-1.39-1.36-3.65-1.36-5.03 0-.2.19-.2.51 0 .71.19.2.51.2.71 0 1-.98 2.63-.98 3.63 0 .1.1.22.14.35.14s.26-.05.36-.15ZM14 13.5H8.5V11c0-.28-.22-.5-.5-.5s-.5.22-.5.5v2.5H2c-.28 0-.5.22-.5.5s.22.5.5.5h12c.28 0 .5-.22.5-.5s-.22-.5-.5-.5"/></svg>
