<?xml version="1.0" encoding="UTF-8"?>
<svg xmlns="http://www.w3.org/2000/svg" viewBox="0 0 16 16"><path fill="none" d="M0 0H16V16H0z" data-name="Transparante laag" transform="rotate(180 8 8)"/><path d="M13 11c0 .28-.22.5-.5.5H4.7l1.65 1.64c.2.2.2.51 0 .71a.485.485 0 0 1-.7 0l-2.14-2.14a.996.996 0 0 1 0-1.41l2.14-2.14c.2-.2.51-.2.71 0s.2.51 0 .71l-1.64 1.64h7.79c.28 0 .5.22.5.5ZM3.71 5.5h7.79L9.86 7.14c-.2.2-.2.51 0 .71a.485.485 0 0 0 .7 0l2.14-2.14c.19-.19.29-.44.29-.71s-.1-.52-.29-.7l-2.14-2.14c-.2-.2-.51-.2-.71 0s-.2.51 0 .71l1.65 1.64H3.71c-.28 0-.5.22-.5.5s.22.5.5.5Z" style="fill: #ffffff;"/></svg>
