<?xml version="1.0" encoding="UTF-8"?>
<svg xmlns="http://www.w3.org/2000/svg" viewBox="0 0 16 16"><path fill="none" d="M0 0H16V16H0z" data-name="Transparante laag" transform="rotate(180 8 8)"/><path d="M5.1 12.9c-.28 0-.5-.22-.5-.5V4.6L2.96 6.25c-.2.2-.51.2-.71 0a.485.485 0 0 1 0-.7l2.14-2.14a.996.996 0 0 1 1.41 0l2.14 2.14c.2.2.2.51 0 .71s-.51.2-.71 0L5.59 4.62v7.79c0 .28-.22.5-.5.5Zm5.5-9.3v7.79L8.96 9.75c-.2-.2-.51-.2-.71 0a.485.485 0 0 0 0 .7l2.14 2.14c.19.19.44.29.71.29s.52-.1.7-.29l2.14-2.14c.2-.2.2-.51 0-.71s-.51-.2-.71 0l-1.64 1.65V3.6c0-.28-.22-.5-.5-.5s-.5.22-.5.5Z" style="fill: #ffffff;"/></svg>
