<?xml version="1.0" encoding="UTF-8"?>
<svg xmlns="http://www.w3.org/2000/svg" viewBox="0 0 16 16"><path fill="none" d="M0 0H16V16H0z" data-name="Transparante laag"/><path d="M11.5 1h-7A2.5 2.5 0 0 0 2 3.5v9A2.5 2.5 0 0 0 4.5 15H6v-3.5c0-1.1.9-2 2-2s2 .9 2 2V15h1.5a2.5 2.5 0 0 0 2.5-2.5v-9A2.5 2.5 0 0 0 11.5 1M7 8H5.5c-.28 0-.5-.22-.5-.5s.22-.5.5-.5H7c.28 0 .5.22.5.5S7.28 8 7 8m3.5 0H9c-.28 0-.5-.22-.5-.5S8.72 7 9 7h1.5c.28 0 .5.22.5.5s-.22.5-.5.5m0-3h-5c-.28 0-.5-.22-.5-.5s.22-.5.5-.5h5c.28 0 .5.22.5.5s-.22.5-.5.5M9 11.5V15H7v-3.5c0-.55.45-1 1-1s1 .45 1 1"/></svg>
