<?xml version="1.0" encoding="UTF-8"?>
<svg xmlns="http://www.w3.org/2000/svg" viewBox="0 0 16 16"><path fill="none" d="M0 0H16V16H0z" data-name="Transparante laag"/><path d="M14.15 3.69a1.59 1.59 0 0 0-1.63.08L8.5 6.47V5.1c0-.59-.32-1.14-.85-1.41a1.59 1.59 0 0 0-1.63.08l-4.31 2.9C1.27 6.97 1 7.46 1 8s.26 1.03.71 1.33l4.31 2.9c.27.18.58.27.88.27a1.606 1.606 0 0 0 1.6-1.6V9.53l4.02 2.7c.27.18.58.27.88.27a1.606 1.606 0 0 0 1.6-1.6V5.11c0-.59-.32-1.14-.85-1.41ZM7.5 10.9c0 .23-.12.43-.32.53-.09.05-.34.15-.6-.03L2.27 8.5a.596.596 0 0 1 0-1l4.31-2.9c.11-.08.23-.1.32-.1a.603.603 0 0 1 .6.6v5.79Zm6.5 0c0 .23-.12.43-.32.53-.09.05-.34.15-.6-.03L8.77 8.5a.596.596 0 0 1 0-1l4.31-2.9c.11-.08.23-.1.32-.1a.603.603 0 0 1 .6.6v5.79Z" style="fill: #ffffff;"/></svg>
