<?xml version="1.0" encoding="UTF-8"?>
<svg xmlns="http://www.w3.org/2000/svg" viewBox="0 0 16 16"><path fill="none" d="M0 0H16V16H0z" data-name="Transparante laag"/><path d="M11.5 1h-7A2.5 2.5 0 0 0 2 3.5v9A2.5 2.5 0 0 0 4.5 15h7a2.5 2.5 0 0 0 2.5-2.5v-9A2.5 2.5 0 0 0 11.5 1M9 14H7v-2.5c0-.55.45-1 1-1s1 .45 1 1zm4-1.5c0 .83-.67 1.5-1.5 1.5H10v-2.5c0-1.1-.9-2-2-2s-2 .9-2 2V14H4.5c-.83 0-1.5-.67-1.5-1.5v-9C3 2.67 3.67 2 4.5 2h7c.83 0 1.5.67 1.5 1.5zm-2-8c0 .28-.22.5-.5.5h-5c-.28 0-.5-.22-.5-.5s.22-.5.5-.5h5c.28 0 .5.22.5.5m-3.5 3c0 .28-.22.5-.5.5H5.5c-.28 0-.5-.22-.5-.5s.22-.5.5-.5H7c.28 0 .5.22.5.5m3.5 0c0 .28-.22.5-.5.5H9c-.28 0-.5-.22-.5-.5S8.72 7 9 7h1.5c.28 0 .5.22.5.5"/></svg>
