<?xml version="1.0" encoding="UTF-8"?>
<svg xmlns="http://www.w3.org/2000/svg" viewBox="0 0 16 16"><path fill="none" d="M0 0H16V16H0z" data-name="Transparante laag"/><path d="M13 10.09V8c0-2.3-1.57-4.22-3.68-4.8.11-.21.18-.45.18-.7C9.5 1.67 8.83 1 8 1s-1.5.67-1.5 1.5c0 .25.07.49.18.7C4.57 3.78 3 5.7 3 8v2.09c-.58.21-1 .76-1 1.41 0 .83.67 1.5 1.5 1.5h3c0 .83.67 1.5 1.5 1.5s1.5-.67 1.5-1.5h3a1.498 1.498 0 0 0 .5-2.91M7.5 2.5c0-.28.22-.5.5-.5s.5.22.5.5-.22.5-.5.5-.5-.22-.5-.5" style="fill: #ffffff;"/></svg>
