<?xml version="1.0" encoding="UTF-8"?>
<svg xmlns="http://www.w3.org/2000/svg" viewBox="0 0 16 16"><path fill="none" d="M0 0H16V16H0z" data-name="Transparante laag"/><path d="M8 1a5.002 5.002 0 0 0-3 9v1c0 1.1.9 2 2 2h2c1.1 0 2-.9 2-2v-1a5.002 5.002 0 0 0-3-9m2.22 8.32c-.14.09-.22.25-.22.42V11c0 .55-.45 1-1 1H7c-.55 0-1-.45-1-1V9.74c0-.17-.08-.32-.22-.42A4.01 4.01 0 0 1 4 6c0-2.21 1.79-4 4-4s4 1.79 4 4c0 1.34-.67 2.58-1.78 3.32M10 14.5c0 .28-.22.5-.5.5h-3c-.28 0-.5-.22-.5-.5s.22-.5.5-.5h3c.28 0 .5.22.5.5" style="fill: #ffffff;"/></svg>
