<?xml version="1.0" encoding="UTF-8"?>
<svg xmlns="http://www.w3.org/2000/svg" viewBox="0 0 16 16"><path fill="none" d="M0 0H16V16H0z" data-name="Transparante laag"/><path d="M12.5 6h-5c-.28 0-.5-.22-.5-.5s.22-.5.5-.5h5c.28 0 .5.22.5.5s-.22.5-.5.5m-7.61.71 1.53-2.45c.15-.23.08-.54-.16-.69a.495.495 0 0 0-.69.16l-1.2 1.91-.45-.75a.502.502 0 1 0-.86.52l.78 1.3c.11.18.3.3.52.3.21 0 .41-.11.52-.29ZM13 10.5c0-.28-.22-.5-.5-.5h-5c-.28 0-.5.22-.5.5s.22.5.5.5h5c.28 0 .5-.22.5-.5m-8.11 1.21 1.53-2.45c.15-.23.08-.54-.16-.69a.495.495 0 0 0-.69.16l-1.2 1.91-.45-.75a.502.502 0 1 0-.86.52l.78 1.3c.11.18.3.3.52.3.21 0 .41-.11.52-.29Z" style="fill: #ffffff;"/></svg>
