<?xml version="1.0" encoding="UTF-8"?>
<svg xmlns="http://www.w3.org/2000/svg" viewBox="0 0 16 16"><path fill="none" d="M0 0H16V16H0z" data-name="Transparante laag"/><path d="M4.87 5.12c-1.65.37-3.36 2.07-3.74 3.72-.3 1.31-.08 2.63.59 3.75l-.4 1a.85.85 0 0 0 .18.9c.23.24.58.32.9.2l1.05-.39a4.98 4.98 0 0 0 3.72.56 4.92 4.92 0 0 0 3.69-3.73c.38-1.71-.12-3.45-1.34-4.67S6.56 4.74 4.85 5.12Zm5.03 5.8c-.32 1.44-1.5 2.64-2.94 2.97-1.12.26-2.24.06-3.17-.56a.46.46 0 0 0-.28-.08c-.06 0-.12.01-.17.03l-.95.36.37-.91c.06-.15.04-.33-.05-.47-.64-.93-.85-2.06-.59-3.19.29-1.27 1.71-2.68 2.98-2.96 1.37-.3 2.77.1 3.75 1.07.97.97 1.37 2.37 1.07 3.75Zm4.77-1.33a.854.854 0 0 1-.79 1.16c-.1 0-.2-.02-.29-.05l-1.28-.48a.49.49 0 0 1-.29-.64c.1-.26.38-.39.64-.29l.95.36-.37-.91a.52.52 0 0 1 .05-.47c.64-.93.85-2.06.59-3.19-.29-1.27-1.71-2.68-2.98-2.96-1.47-.33-2.93.14-3.92 1.25-.18.21-.5.22-.71.04a.495.495 0 0 1-.04-.71C7.45 1.32 9.28.74 11.11 1.14c1.65.37 3.36 2.07 3.74 3.72.3 1.31.08 2.63-.6 3.75l.4 1ZM8.5 10c0 .28-.23.5-.5.5s-.5-.23-.5-.5.23-.5.5-.5.5.23.5.5m-2 0c0 .28-.23.5-.5.5s-.5-.23-.5-.5.23-.5.5-.5.5.23.5.5m-2 0c0 .28-.23.5-.5.5s-.5-.23-.5-.5.23-.5.5-.5.5.23.5.5" style="fill: #ffffff;"/></svg>
