<?xml version="1.0" encoding="UTF-8"?>
<svg xmlns="http://www.w3.org/2000/svg" viewBox="0 0 16 16"><path fill="none" d="M0 0H16V16H0z" data-name="Transparante laag"/><path d="M10.87 11.13a4.96 4.96 0 0 1-3.69 3.73c-.4.09-.79.14-1.18.14-.9 0-1.77-.24-2.54-.7l-1.05.39c-.31.12-.67.04-.9-.2a.85.85 0 0 1-.18-.9l.4-1c-.68-1.12-.89-2.44-.6-3.75.37-1.65 2.08-3.35 3.74-3.72 1.71-.38 3.45.12 4.67 1.34s1.72 2.96 1.34 4.67Zm3.4-2.54c.68-1.12.89-2.44.6-3.75-.37-1.65-2.08-3.35-3.74-3.72C9.3.71 7.48 1.3 6.25 2.68c-.18.21-.16.52.04.71.21.18.52.16.71-.04.98-1.11 2.44-1.57 3.91-1.25 1.27.28 2.69 1.69 2.98 2.96.25 1.13.04 2.26-.59 3.19a.52.52 0 0 0-.05.47l.37.91-.95-.36a.496.496 0 1 0-.35.93l1.29.48c.1.04.19.05.29.05a.854.854 0 0 0 .79-1.16l-.4-1ZM8 9.5c-.28 0-.5.23-.5.5s.23.5.5.5.51-.23.51-.5-.23-.5-.51-.5m-2 0c-.28 0-.5.23-.5.5s.23.5.5.5.51-.23.51-.5-.23-.5-.51-.5m-2 0c-.28 0-.5.23-.5.5s.23.5.5.5.51-.23.51-.5-.23-.5-.51-.5" style="fill: #ffffff;"/></svg>
