<?xml version="1.0" encoding="UTF-8"?>
<svg xmlns="http://www.w3.org/2000/svg" viewBox="0 0 16 16"><path fill="none" d="M0 0H16V16H0z" data-name="Transparante laag"/><path d="M13 3h-1s-.03 0-.05.01A2.51 2.51 0 0 0 9.5 1h-3c-1.21 0-2.22.87-2.45 2.01C4.03 3.01 4.02 3 4 3H3c-1.1 0-2 .9-2 2v6c0 1.1.9 2 2 2h1s.03 0 .05-.01A2.51 2.51 0 0 0 6.5 15h3c1.21 0 2.22-.87 2.45-2.01.02 0 .03.01.05.01h1c1.1 0 2-.9 2-2V5c0-1.1-.9-2-2-2M3 12c-.55 0-1-.45-1-1V5c0-.55.45-1 1-1h1v8zm8 .5c0 .83-.67 1.5-1.5 1.5h-3c-.83 0-1.5-.67-1.5-1.5v-9C5 2.67 5.67 2 6.5 2h3c.83 0 1.5.67 1.5 1.5zm3-1.5c0 .55-.45 1-1 1h-1V4h1c.55 0 1 .45 1 1z" style="fill: #ffffff;"/></svg>
