<?xml version="1.0" encoding="UTF-8"?>
<svg xmlns="http://www.w3.org/2000/svg" viewBox="0 0 16 16"><path fill="none" d="M0 0H16V16H0z" data-name="Transparante laag"/><path d="M10.92 2.04C10.73 1.44 10.17 1 9.5 1h-3c-.67 0-1.23.44-1.42 1.04C3.9 2.24 3 3.26 3 4.5v8A2.5 2.5 0 0 0 5.5 15h5a2.5 2.5 0 0 0 2.5-2.5v-8c0-1.24-.9-2.26-2.08-2.46M9.5 2c.28 0 .5.22.5.5s-.22.5-.5.5h-3c-.28 0-.5-.22-.5-.5s.22-.5.5-.5zM12 12.5c0 .83-.67 1.5-1.5 1.5h-5c-.83 0-1.5-.67-1.5-1.5v-8c0-.7.47-1.28 1.11-1.44.22.55.76.94 1.39.94h3c.63 0 1.17-.39 1.39-.94.64.16 1.11.74 1.11 1.44zM10.5 8h-5c-.28 0-.5-.22-.5-.5s.22-.5.5-.5h5c.28 0 .5.22.5.5s-.22.5-.5.5m-2 2h-3c-.28 0-.5-.22-.5-.5s.22-.5.5-.5h3c.28 0 .5.22.5.5s-.22.5-.5.5"/></svg>
