<?xml version="1.0" encoding="UTF-8"?>
<svg xmlns="http://www.w3.org/2000/svg" viewBox="0 0 16 16"><path fill="none" d="M0 0H16V16H0z" data-name="Transparante laag"/><path d="M13 6h-1.29L10.3 4.59C9.93 4.22 9.41 4 8.89 4H5.44c-.76 0-1.45.42-1.79 1.11L3.2 6h-.19c-1.1 0-2 .9-2 2v1.5c0 .28.22.5.5.5H2.6c.21.58.76 1 1.41 1s1.2-.42 1.41-1h5.18c.21.58.76 1 1.41 1s1.2-.42 1.41-1h1.09c.28 0 .5-.22.5-.5V8c0-1.1-.9-2-2-2Zm-9 4c-.27 0-.48-.21-.5-.48v-.04c.01-.26.23-.48.5-.48s.5.22.5.5-.22.5-.5.5m8 0c-.28 0-.5-.22-.5-.5s.22-.5.5-.5.5.22.5.5-.22.5-.5.5m2-1h-.59c-.21-.58-.76-1-1.41-1s-1.2.42-1.41 1H5.41C5.2 8.42 4.65 8 4 8s-1.2.42-1.41 1H2V8c0-.55.45-1 1-1h.5c.19 0 .36-.11.45-.28l.58-1.17c.17-.34.51-.55.89-.55h3.45c.26 0 .52.11.71.29l1.56 1.56c.09.09.22.15.35.15h1.5c.55 0 1 .45 1 1v1Z" style="fill: #ffffff;"/></svg>
