<?xml version="1.0" encoding="UTF-8"?>
<svg xmlns="http://www.w3.org/2000/svg" viewBox="0 0 16 16"><path fill="none" d="M0 0H16V16H0z" data-name="Transparante laag"/><path d="M13.83 5.35s-.03-.08-.06-.12c-.17-.32-.39-.55-.42-.59l-3.2-3.2c-.13-.13-.28-.23-.44-.3a1.55 1.55 0 0 0-.61-.13H6.51c-.83 0-1.5.67-1.5 1.5v1.5h-1.5c-.83 0-1.5.67-1.5 1.5v8c0 .83.67 1.5 1.5 1.5h6c.83 0 1.5-.67 1.5-1.5v-1.5h1.5c.83 0 1.5-.67 1.5-1.5V6c0-.24-.07-.45-.17-.64ZM12.29 5H10.5c-.28 0-.5-.22-.5-.5V2.71zm-3 3H7.5c-.28 0-.5-.22-.5-.5V5.71zm.71 5.5c0 .28-.22.5-.5.5h-6c-.28 0-.5-.22-.5-.5v-8c0-.28.22-.5.5-.5H6v2.5C6 8.33 6.67 9 7.5 9H10zm2.5-2.5H11V8.99c0-.24-.07-.45-.17-.64a.3.3 0 0 0-.06-.12c-.17-.32-.39-.55-.42-.59l-3.2-3.2c-.13-.13-.28-.23-.44-.3a1.55 1.55 0 0 0-.61-.13h-.09v-1.5c0-.28.22-.5.5-.5h2.5v2.5c0 .83.67 1.5 1.5 1.5h2.5v4.5c0 .28-.22.5-.5.5Z" style="fill: #ffffff;"/></svg>
