<?xml version="1.0" encoding="UTF-8"?>
<svg xmlns="http://www.w3.org/2000/svg" viewBox="0 0 16 16"><path fill="none" d="M0 0H16V16H0z" data-name="Transparante laag"/><path d="M12.5 3h-9A2.5 2.5 0 0 0 1 5.5v5A2.5 2.5 0 0 0 3.5 13h9a2.5 2.5 0 0 0 2.5-2.5v-5A2.5 2.5 0 0 0 12.5 3m-9 1h9c.83 0 1.5.67 1.5 1.5v.47H2V5.5C2 4.67 2.67 4 3.5 4m9 8h-9c-.83 0-1.5-.67-1.5-1.5V6.97h12v3.53c0 .83-.67 1.5-1.5 1.5m-7.01-1.51c0 .28-.22.5-.5.5h-1c-.28 0-.5-.22-.5-.5s.22-.5.5-.5h1c.28 0 .5.22.5.5m4.01 0c0 .28-.22.5-.5.5H7c-.28 0-.5-.22-.5-.5s.22-.5.5-.5h2c.28 0 .5.22.5.5"/></svg>
