<?xml version="1.0" encoding="UTF-8"?>
<svg xmlns="http://www.w3.org/2000/svg" viewBox="0 0 16 16"><path fill="none" d="M0 0H16V16H0z" data-name="Transparante laag"/><path d="M8.5 5.5v3.29l1.85 1.85c.2.2.2.51 0 .71a.485.485 0 0 1-.7 0l-2-2A.5.5 0 0 1 7.5 9V5.5c0-.28.22-.5.5-.5s.5.22.5.5M8 3H4.25L5.4 1.85c.2-.2.2-.51 0-.71s-.51-.2-.71 0L2.84 2.98c-.28.28-.28.74 0 1.02l1.84 1.84a.485.485 0 0 0 .7 0c.2-.2.2-.51 0-.71L4.23 3.98h3.75c2.76 0 5 2.24 5 5s-2.24 5-5 5-5-2.24-5-5c0-.28-.22-.5-.5-.5s-.5.22-.5.5c0 3.31 2.69 6 6 6s6-2.69 6-6-2.69-6-6-6Z"/></svg>
