<?xml version="1.0" encoding="UTF-8"?>
<svg xmlns="http://www.w3.org/2000/svg" viewBox="0 0 16 16"><path fill="none" d="M0 0H16V16H0z" data-name="Transparante laag"/><path d="M12 11.01c1.65 0 3-1.35 3-3s-1.35-3-3-3c0-1.07-.42-2.07-1.17-2.83S9.07 1.01 8 1.01s-2.07.42-2.83 1.17c-.52.52-.87 1.16-1.04 1.87-.76.09-1.49.41-2.07.98a3.513 3.513 0 0 0 0 4.95C2.72 10.64 3.6 11 4.54 11h3.47v1.09c-.42.15-.76.48-.91.91H3.51c-.28 0-.5.22-.5.5s.22.5.5.5H7.1c.21.58.76 1 1.41 1s1.2-.42 1.41-1h3.59c.28 0 .5-.22.5-.5s-.22-.5-.5-.5H9.92c-.15-.42-.48-.76-.91-.91V11h3ZM8.5 14c-.28 0-.5-.22-.5-.5s.22-.5.5-.5.5.22.5.5-.22.5-.5.5M2.76 9.27c-.97-.97-.97-2.56 0-3.54.97-.97 2.56-.98 3.54 0 .2.2.51.2.71 0s.2-.51 0-.71c-.52-.52-1.17-.84-1.85-.96.15-.44.39-.85.73-1.18 1.13-1.13 3.11-1.13 4.24 0 .57.57.88 1.32.88 2.12s-.31 1.55-.88 2.12c-.2.2-.2.51 0 .71a.485.485 0 0 0 .7 0c.51-.51.85-1.13 1.02-1.81C12.98 5.94 14 6.85 14 8s-.9 2-2 2H4.53c-.67 0-1.3-.26-1.77-.73" style="fill: #ffffff;"/></svg>
