<?xml version="1.0" encoding="UTF-8"?>
<svg xmlns="http://www.w3.org/2000/svg" viewBox="0 0 16 16"><path fill="none" d="M0 0H16V16H0z" data-name="Transparante laag"/><path d="M14.98 7.42v-.07c0-.02-.01-.03-.02-.04-.01-.05-.03-.09-.05-.13 0 0-.01-.02-.02-.03a.35.35 0 0 0-.12-.12h-.02a.35.35 0 0 0-.14-.06c-.03 0-.06 0-.09-.01h-.14c-.12.02-.25.04-.38.04-1.1 0-2-.9-2-2 0-.19.03-.39.08-.59v-.17c0-.04-.01-.07-.02-.1 0-.02 0-.04-.01-.06 0 0-.01-.01-.01-.02l-.06-.09c-.02-.02-.03-.05-.06-.07-.02-.02-.05-.03-.08-.05a.4.4 0 0 0-.09-.05s-.01 0-.02-.01h-.06c-.04 0-.07-.01-.11 0-.04 0-.07.01-.1.02-.02 0-.04 0-.06.01q-.405.18-.9.18C9.13 4 8.01 2.89 8 1.52c0-.14-.06-.27-.16-.36s-.24-.14-.38-.13C3.84 1.3 1 4.36 1 8.01c0 3.86 3.14 7 7 7s7-3.14 7-7c0-.19 0-.39-.02-.58ZM8 14c-3.31 0-6-2.69-6-6 0-2.96 2.18-5.47 5.05-5.92A3.5 3.5 0 0 0 10.5 5c.17 0 .34-.02.5-.05V5c0 1.65 1.35 3 3 3 0 3.31-2.69 6-6 6m-2-2.5c-.28 0-.5-.23-.5-.5s.23-.5.5-.5.5.23.5.5-.23.5-.5.5M4.76 8.94c-.28 0-.51-.23-.51-.5s.23-.5.51-.5.5.23.5.5-.23.5-.5.5m2-3c-.28 0-.51-.23-.51-.5s.23-.5.51-.5.5.23.5.5-.23.5-.5.5m1 3c-.28 0-.51-.23-.51-.5s.23-.5.51-.5.5.23.5.5-.23.5-.5.5m3 2c-.28 0-.51-.23-.51-.5s.23-.5.51-.5.5.23.5.5-.23.5-.5.5m3-5c-.28 0-.51-.23-.51-.5s.23-.5.51-.5.5.23.5.5-.23.5-.5.5m0-.51" style="fill: #ffffff;"/></svg>
