<?xml version="1.0" encoding="UTF-8"?>
<svg xmlns="http://www.w3.org/2000/svg" viewBox="0 0 16 16"><path fill="none" d="M0 0H16V16H0z" data-name="Transparante laag"/><path d="M4 3c0 .55-.45 1-1 1s-1-.45-1-1 .45-1 1-1 1 .45 1 1M3 7c-.55 0-1 .45-1 1s.45 1 1 1 1-.45 1-1-.45-1-1-1m10-3c.55 0 1-.45 1-1s-.45-1-1-1-1 .45-1 1 .45 1 1 1M3 12c-.55 0-1 .45-1 1s.45 1 1 1 1-.45 1-1-.45-1-1-1m5 0c-.55 0-1 .45-1 1s.45 1 1 1 1-.45 1-1-.45-1-1-1m5-5c-.55 0-1 .45-1 1s.45 1 1 1 1-.45 1-1-.45-1-1-1m0 5c-.55 0-1 .45-1 1s.45 1 1 1 1-.45 1-1-.45-1-1-1M8 2c-.55 0-1 .45-1 1s.45 1 1 1 1-.45 1-1-.45-1-1-1m0 5c-.55 0-1 .45-1 1s.45 1 1 1 1-.45 1-1-.45-1-1-1"/></svg>
