<?xml version="1.0" encoding="UTF-8"?>
<svg xmlns="http://www.w3.org/2000/svg" viewBox="0 0 16 16"><path fill="none" d="M0 0H16V16H0z" data-name="Transparante laag"/><path d="M12.5 3H6c-.67 0-1.29.26-1.77.73l-2.5 2.5c-.97.98-.97 2.56 0 3.54l2.5 2.5c.47.47 1.1.73 1.77.73h6.5a2.5 2.5 0 0 0 2.5-2.5V5.51a2.5 2.5 0 0 0-2.5-2.5Zm1.5 7.5c0 .83-.67 1.5-1.5 1.5H6c-.39 0-.78-.16-1.06-.44l-2.5-2.5c-.58-.58-.58-1.54 0-2.12l2.5-2.5C5.22 4.16 5.61 4 6 4h6.5c.83 0 1.5.68 1.5 1.5v4.99Zm-3.15-3.65L9.7 8l1.15 1.15c.2.2.2.51 0 .71a.485.485 0 0 1-.7 0L9 8.71 7.85 9.86a.485.485 0 0 1-.7 0c-.2-.2-.2-.51 0-.71L8.3 8 7.15 6.85c-.2-.2-.2-.51 0-.71s.51-.2.71 0l1.15 1.15 1.15-1.15c.2-.2.51-.2.71 0s.2.51 0 .71Z" style="fill: #ffffff;"/></svg>
