<?xml version="1.0" encoding="UTF-8"?>
<svg xmlns="http://www.w3.org/2000/svg" viewBox="0 0 16 16"><path fill="none" d="M0 0H16V16H0z" data-name="Transparante laag"/><path d="M14.24 6.19 9.81 1.76c-1-1-2.62-1-3.62 0L1.76 6.19a2.558 2.558 0 0 0 0 3.62l4.43 4.43c.5.5 1.15.75 1.81.75s1.31-.25 1.81-.75l4.43-4.43a2.558 2.558 0 0 0 0-3.62m-.79 2.83-4.43 4.43c-.56.56-1.48.56-2.04 0L2.55 9.02c-.27-.27-.42-.63-.42-1.02s.15-.75.42-1.02l4.43-4.43c.28-.28.65-.42 1.02-.42s.74.14 1.02.42l4.43 4.43c.27.27.42.63.42 1.02s-.15.75-.42 1.02" style="fill: #ffffff;"/></svg>
