<?xml version="1.0" encoding="UTF-8"?>
<svg xmlns="http://www.w3.org/2000/svg" viewBox="0 0 16 16"><path fill="none" d="M0 0H16V16H0z"/><path d="M8 15c-3.86 0-7-3.14-7-7s3.14-7 7-7 7 3.14 7 7-3.14 7-7 7M8 2C4.69 2 2 4.69 2 8s2.69 6 6 6 6-2.69 6-6-2.69-6-6-6m0 10c-2.21 0-4-1.79-4-4 0-.28.22-.5.5-.5h7c.28 0 .5.22.5.5 0 2.21-1.79 4-4 4M5.04 8.5A3 3 0 0 0 8 11a3 3 0 0 0 2.96-2.5zm6.74-3.02c.29-.29.29-.77 0-1.06s-.77-.29-1.06 0c-.14.14-.21.31-.22.49a.74.74 0 0 0-.22-.49c-.29-.29-.77-.29-1.06 0s-.29.77 0 1.06h.01l1.11 1.19c.09.09.24.09.33 0l1.11-1.18h.01Zm-5 0c.29-.29.29-.77 0-1.06s-.77-.29-1.06 0c-.14.14-.21.31-.22.49a.74.74 0 0 0-.22-.49c-.29-.29-.77-.29-1.06 0s-.29.77 0 1.06h.01l1.11 1.19c.09.09.24.09.33 0l1.11-1.18h.01Z" style="fill: #ffffff;"/></svg>
