<?xml version="1.0" encoding="UTF-8"?>
<svg xmlns="http://www.w3.org/2000/svg" viewBox="0 0 16 16"><path fill="none" d="M0 0H16V16H0z" data-name="Transparante laag"/><path d="M12.5 2h-9A2.5 2.5 0 0 0 1 4.5v7A2.5 2.5 0 0 0 3.5 14h9a2.5 2.5 0 0 0 2.5-2.5v-7A2.5 2.5 0 0 0 12.5 2m1.5 9.5c0 .83-.67 1.5-1.5 1.5h-9c-.83 0-1.5-.67-1.5-1.5v-7C2 3.67 2.67 3 3.5 3h9c.83 0 1.5.67 1.5 1.5z" style="fill: #ffffff;"/><path d="M12.15 3.97 9.06 7.06c-.58.58-1.53.58-2.12 0L3.85 3.97c-.2-.2-.51-.2-.71 0s-.2.51 0 .71l3.09 3.09c.49.49 1.13.73 1.77.73s1.28-.24 1.77-.73l3.09-3.09c.2-.2.2-.51 0-.71s-.51-.2-.71 0" style="fill: #ffffff;"/></svg>
