<?xml version="1.0" encoding="UTF-8"?>
<svg xmlns="http://www.w3.org/2000/svg" viewBox="0 0 16 16"><path fill="none" d="M0 0H16V16H0z" data-name="Transparante laag"/><path d="M8.01 13c-.5 0-.99-.05-1.47-.16a.503.503 0 0 1 .22-.98c.41.09.83.14 1.24.14 2.38 0 4.56-1.46 6-3.99a8.7 8.7 0 0 0-1.27-1.77c-.19-.2-.17-.52.03-.71s.52-.17.71.03c.53.57 1 1.22 1.4 1.94.17.31.17.69 0 1-1.59 2.82-4.16 4.5-6.86 4.5m6.84-11.15-13 13a.485.485 0 0 1-.7 0c-.2-.2-.2-.51 0-.71l2.62-2.62c-1.02-.76-1.93-1.79-2.63-3.02-.17-.31-.17-.69 0-1C2.73 4.68 5.3 3 8 3c1.18 0 2.31.32 3.38.91l2.77-2.77c.2-.2.51-.2.71 0s.2.51 0 .71ZM4.48 10.81l1.08-1.08C5.2 9.23 5 8.63 5 8c0-1.65 1.35-3 3-3 .63 0 1.23.2 1.73.56l.91-.91C9.8 4.23 8.92 4 8.01 4c-2.38 0-4.56 1.46-6 3.99.66 1.18 1.51 2.13 2.47 2.82m4.53-4.53C8.71 6.1 8.36 6 8 6c-1.1 0-2 .9-2 2 0 .36.1.71.28 1.01zM11 8c0-.28-.22-.5-.5-.5s-.5.22-.5.5c0 1.1-.9 2-2 2-.28 0-.5.22-.5.5s.22.5.5.5c1.65 0 3-1.35 3-3" style="fill: #ffffff;"/></svg>
