<?xml version="1.0" encoding="UTF-8"?>
<svg xmlns="http://www.w3.org/2000/svg" viewBox="0 0 16 16"><path fill="none" d="M0 0H16V16H0z" data-name="Transparante laag"/><path d="M8 1C4.14 1 1 4.14 1 8s3.14 7 7 7 7-3.14 7-7-3.14-7-7-7m0 13c-3.31 0-6-2.69-6-6s2.69-6 6-6 6 2.69 6 6-2.69 6-6 6m4-6c0 2.21-1.79 4-4 4s-4-1.79-4-4c0-.28.22-.5.5-.5s.5.22.5.5c0 1.65 1.35 3 3 3s3-1.35 3-3c0-.28.22-.5.5-.5s.5.22.5.5M5.25 5.5c0-.41.34-.75.75-.75s.75.34.75.75-.34.75-.75.75-.75-.34-.75-.75m4.25 0c0-.41.34-.75.75-.75s.75.34.75.75-.34.75-.75.75-.75-.34-.75-.75" style="fill: #ffffff;"/></svg>
