<?xml version="1.0" encoding="UTF-8"?>
<svg xmlns="http://www.w3.org/2000/svg" viewBox="0 0 16 16"><path fill="none" d="M0 0H16V16H0z" data-name="Transparante laag"/><path d="M9 8H7c-.55 0-1 .45-1 1v2c0 .55.45 1 1 1h2c.55 0 1-.45 1-1V9c0-.55-.45-1-1-1m0 3.5V11H7V9h2v2.5m4-5.34V9c0 .28-.22.5-.5.5S12 9.28 12 9V6.16c0-.26-.1-.5-.28-.69L9.64 3.31C9.45 3.12 9.19 3 8.92 3h-.5c-.28 0-.5-.22-.5-.5s.22-.5.5-.5h.5c.54 0 1.07.22 1.44.61l2.08 2.16c.36.37.56.86.56 1.38ZM3 7.5v-1c0-.28.22-.5.5-.5s.5.22.5.5v1c0 .28-.22.5-.5.5S3 7.78 3 7.5m0 3v-1c0-.28.22-.5.5-.5s.5.22.5.5v1c0 .28-.22.5-.5.5s-.5-.22-.5-.5m6 4c0 .28-.22.5-.5.5h-1c-.28 0-.5-.22-.5-.5s.22-.5.5-.5h1c.28 0 .5.22.5.5m-6-10A2.5 2.5 0 0 1 5.5 2h1c.28 0 .5.22.5.5s-.22.5-.5.5h-1C4.67 3 4 3.67 4 4.5c0 .28-.22.5-.5.5S3 4.78 3 4.5m3 10c0 .28-.22.5-.5.5A2.5 2.5 0 0 1 3 12.5c0-.28.22-.5.5-.5s.5.22.5.5c0 .83.67 1.5 1.5 1.5.28 0 .5.22.5.5m7-3.49v1.49a2.5 2.5 0 0 1-2.5 2.5c-.28 0-.5-.22-.5-.5s.22-.5.5-.5c.83 0 1.5-.67 1.5-1.5v-1.49c0-.28.22-.5.5-.5s.5.22.5.5" style="fill: #ffffff;"/></svg>
