<?xml version="1.0" encoding="UTF-8"?>
<svg xmlns="http://www.w3.org/2000/svg" viewBox="0 0 16 16"><path fill="none" d="M0 0H16V16H0z"/><path d="M8 15c-3.86 0-7-3.14-7-7s3.14-7 7-7 7 3.14 7 7-3.14 7-7 7M8 2C4.69 2 2 4.69 2 8s2.69 6 6 6 6-2.69 6-6-2.69-6-6-6M6 8.25c-.41 0-.75-.34-.75-.75s.34-.75.75-.75.75.34.75.75-.34.75-.75.75m4.25 0c-.41 0-.75-.34-.75-.75s.34-.75.75-.75.75.34.75.75-.34.75-.75.75M11 12c0-1.65-1.35-3-3-3s-3 1.35-3 3c0 .28.22.5.5.5s.5-.22.5-.5c0-1.1.9-2 2-2s2 .9 2 2c0 .28.22.5.5.5s.5-.22.5-.5M9.24 6.45l1.98-1.02a.49.49 0 0 0 .21-.67.49.49 0 0 0-.67-.21L8.78 5.57a.49.49 0 0 0-.21.67c.09.17.26.27.44.27.08 0 .16-.02.23-.06m-1.81-.24c.12-.25.02-.55-.22-.67l-1.98-.99a.505.505 0 0 0-.67.22c-.12.25-.02.55.22.67l1.98.99a.505.505 0 0 0 .67-.23Z" style="fill: #ffffff;"/></svg>
