<?xml version="1.0" encoding="UTF-8"?>
<svg xmlns="http://www.w3.org/2000/svg" viewBox="0 0 16 16"><path fill="none" d="M0 0H16V16H0z" data-name="Transparante laag"/><path d="M8 5C6.35 5 5 6.35 5 8s1.35 3 3 3 3-1.35 3-3-1.35-3-3-3m0 5c-1.1 0-2-.9-2-2s.9-2 2-2 2 .9 2 2-.9 2-2 2m6.87-2.5C13.28 4.68 10.71 3 8 3S2.73 4.68 1.14 7.5c-.17.31-.17.69 0 1C2.73 11.32 5.3 13 8 13s5.27-1.68 6.86-4.5c.17-.31.17-.69 0-1ZM8.01 12c-2.37 0-4.56-1.46-5.99-4.01C3.46 5.45 5.64 4 8.02 4s4.56 1.46 5.99 4.01C12.57 10.55 10.39 12 8.02 12Z" style="fill: #ffffff;"/></svg>
