<?xml version="1.0" encoding="UTF-8"?>
<svg xmlns="http://www.w3.org/2000/svg" viewBox="0 0 16 16"><path fill="none" d="M0 0H16V16H0z" data-name="Transparante laag"/><path d="M14 2.81V6.5c0 .28-.22.5-.5.5s-.5-.22-.5-.5V3.71L9.77 6.94a.485.485 0 0 1-.7 0c-.2-.2-.2-.51 0-.71L12.3 3H9.51c-.28 0-.5-.22-.5-.5s.22-.5.5-.5h3.69c.17-.01.42.08.57.23s.24.36.23.58M11.5 13h-7c-.83 0-1.5-.67-1.5-1.5v-7c0-.28-.22-.5-.5-.5s-.5.22-.5.5v7A2.5 2.5 0 0 0 4.5 14h7c.28 0 .5-.22.5-.5s-.22-.5-.5-.5" style="fill: #ffffff;"/></svg>
