<?xml version="1.0" encoding="UTF-8"?>
<svg xmlns="http://www.w3.org/2000/svg" viewBox="0 0 16 16"><path fill="none" d="M0 0H16V16H0z" data-name="Transparante laag"/><path d="M6.23 8.38c-.3-.16-.65-.24-1.06-.24H3.74v3.84h1.43c.41 0 .76-.08 1.06-.24s.53-.38.69-.67.25-.63.25-1.02-.08-.73-.24-1.02-.39-.51-.69-.67Zm-.04 2.33c-.1.18-.24.32-.42.41-.18.1-.4.14-.65.14h-.56v-2.4h.56c.25 0 .47.05.65.14.18.1.32.23.42.41s.14.39.14.65-.05.47-.14.65m4.12-2.48c-.23-.1-.49-.15-.77-.15s-.53.05-.76.15q-.345.15-.6.42c-.255.27-.3.39-.39.63s-.14.5-.14.79.05.54.14.79q.135.36.39.63c.255.27.37.32.6.42s.49.15.76.15.54-.05.77-.15q.345-.15.6-.42t.39-.63c.09-.24.14-.5.14-.79s-.05-.54-.14-.79q-.135-.36-.39-.63t-.6-.42m.15 2.48a1 1 0 0 1-.37.43c-.16.1-.34.16-.55.16s-.39-.05-.54-.16c-.16-.1-.28-.25-.37-.43-.09-.19-.13-.4-.13-.64s.04-.46.13-.65a1.006 1.006 0 0 1 .91-.59c.2 0 .39.05.55.16.16.1.28.25.37.43.09.19.13.4.13.65s-.04.46-.13.64m2.46-1.27c-.1.18-.14.39-.14.63s.05.45.14.63c.1.18.23.32.41.42s.39.15.64.15c.18 0 .34-.02.5-.07s.31-.13.46-.24v.81q-.195.12-.45.21c-.17.06-.37.08-.58.08-.39 0-.73-.08-1.03-.24s-.53-.39-.7-.69-.25-.65-.25-1.04.08-.75.25-1.05.4-.53.7-.69.64-.24 1.03-.24c.22 0 .42.03.59.08s.32.12.44.2v.81c-.15-.11-.3-.19-.46-.24s-.33-.07-.5-.07c-.25 0-.46.05-.64.15s-.32.24-.41.42ZM12.58 13a.5.5 0 0 0-.63.32c-.14.41-.52.69-.95.69H3.5c-.83 0-1.5-.67-1.5-1.5V3.5C2 2.67 2.67 2 3.5 2H8v2.5C8 5.33 8.67 6 9.5 6H12v.5c0 .28.22.5.5.5s.5-.22.5-.5v-.51c0-.24-.07-.45-.17-.64-.01-.04-.04-.08-.06-.12-.17-.32-.39-.55-.42-.58l-3.2-3.2c-.13-.13-.28-.23-.44-.3a1.55 1.55 0 0 0-.61-.13H3.5A2.5 2.5 0 0 0 1 3.52v9a2.5 2.5 0 0 0 2.5 2.5H11a2 2 0 0 0 1.9-1.37.5.5 0 0 0-.32-.63Zm-1.29-8H9.5c-.28 0-.5-.22-.5-.5V2.71z" style="fill: #ffffff;"/></svg>
