<?xml version="1.0" encoding="UTF-8"?>
<svg xmlns="http://www.w3.org/2000/svg" viewBox="0 0 16 16"><path fill="none" d="M0 0H16V16H0z" data-name="Transparante laag"/><path d="M8.5 6.5v5c0 .28-.22.5-.5.5s-.5-.22-.5-.5v-5c0-.28.22-.5.5-.5s.5.22.5.5M8 3.99c-.28 0-.5.23-.5.5s.23.5.5.5.5-.23.5-.5-.23-.5-.5-.5m6 2v6.51c0 1.47-1.03 2.5-2.5 2.5h-7A2.5 2.5 0 0 1 2 12.5v-9A2.5 2.5 0 0 1 4.5 1h4.59c.4 0 .78.16 1.06.44l3.2 3.2c.06.06.65.65.65 1.35m-1 0c0-.22-.24-.52-.35-.64L9.44 2.14a.5.5 0 0 0-.35-.15H4.5c-.83 0-1.5.67-1.5 1.5v9c0 .83.67 1.5 1.5 1.5h7c.91 0 1.5-.59 1.5-1.5V5.98Z" style="fill: #ffffff;"/></svg>
