<?xml version="1.0" encoding="UTF-8"?>
<svg xmlns="http://www.w3.org/2000/svg" viewBox="0 0 16 16"><path fill="none" d="M0 0H16V16H0z" data-name="Transparante laag"/><path d="M6.23 11.23c.11-.08.17-.18.17-.31 0-.1-.03-.18-.1-.24s-.17-.12-.32-.17l-.67-.2c-.23-.06-.42-.15-.57-.25-.14-.1-.25-.22-.31-.36s-.09-.29-.09-.46c0-.24.06-.45.18-.62q.18-.255.51-.39c.22-.09.48-.14.77-.14.24 0 .46.03.65.08.19.06.37.13.53.22v.76a2.07 2.07 0 0 0-1.18-.36c-.2 0-.36.04-.48.11a.34.34 0 0 0-.17.3c0 .09.03.17.09.23s.16.12.31.17l.66.2c.25.07.44.15.59.25.14.1.25.22.31.35s.1.29.1.46c0 .25-.06.46-.19.63s-.3.31-.53.41c-.23.09-.5.14-.81.14-.23 0-.46-.03-.69-.1s-.42-.15-.59-.25v-.75q.27.18.6.3c.22.07.46.11.7.11s.41-.04.52-.12Zm2.12-3.09h-.91l1.52 3.84h.81l1.53-3.84h-.88l-1.04 2.78zm5.11 1.75v.62h.76v.6c-.08.06-.17.12-.27.15q-.18.06-.42.06c-.24 0-.44-.05-.62-.15s-.31-.24-.41-.42-.15-.4-.15-.65.05-.46.15-.65.24-.33.42-.43.41-.15.67-.15a2 2 0 0 1 .61.09c.19.06.36.15.51.26v-.8c-.14-.1-.31-.18-.52-.24s-.42-.09-.65-.09c-.41 0-.77.08-1.07.25-.31.16-.54.39-.71.69s-.26.65-.26 1.05.08.74.25 1.04.4.52.7.69q.45.24 1.02.24c.27 0 .53-.04.77-.12q.375-.12.66-.39V9.89h-1.45Zm-.56 3.74A2 2 0 0 1 11 15H3.5A2.5 2.5 0 0 1 1 12.5v-9A2.5 2.5 0 0 1 3.5 1h4.59c.21 0 .41.05.6.13 0 0 .02.01.03.01.16.07.31.17.43.3l3.2 3.2s.25.27.42.59c.02.04.04.07.06.12.09.2.17.41.17.64v.51c0 .28-.22.5-.5.5s-.5-.22-.5-.5V6H9.5C8.67 6 8 5.33 8 4.5V2H3.5C2.67 2 2 2.67 2 3.5v9c0 .83.67 1.5 1.5 1.5H11c.43 0 .81-.28.95-.69.09-.26.37-.4.63-.32.26.09.4.37.32.63ZM9 2.71V4.5c0 .28.22.5.5.5h1.79z"/></svg>
