<?xml version="1.0" encoding="UTF-8"?>
<svg xmlns="http://www.w3.org/2000/svg" viewBox="0 0 16 16"><path fill="none" d="M0 0H16V16H0z" data-name="Transparante laag"/><path d="m14.29 6.67-4.31-2.9c-.49-.33-1.11-.36-1.63-.08s-.85.82-.85 1.41v1.37l-4.02-2.7c-.49-.33-1.11-.36-1.63-.08S1 4.51 1 5.1v5.79c0 .59.32 1.14.85 1.41.23.12.49.19.75.19.31 0 .62-.09.88-.27l4.02-2.7v1.37c0 .59.32 1.14.85 1.41.23.12.49.19.75.19.31 0 .62-.09.88-.27l4.31-2.9c.44-.3.71-.79.71-1.33s-.26-1.03-.71-1.33ZM7.23 8.5l-4.31 2.9a.56.56 0 0 1-.6.03.6.6 0 0 1-.32-.53V5.11c0-.23.12-.43.32-.53.05-.03.15-.07.28-.07.1 0 .21.03.32.1l4.31 2.9a.596.596 0 0 1 0 1Zm6.5 0-4.31 2.9a.56.56 0 0 1-.6.03.6.6 0 0 1-.32-.53V5.11c0-.23.12-.43.32-.53.05-.03.15-.07.28-.07.1 0 .21.03.32.1l4.31 2.9a.596.596 0 0 1 0 1Z" style="fill: #ffffff;"/></svg>
