<?xml version="1.0" encoding="UTF-8"?>
<svg xmlns="http://www.w3.org/2000/svg" viewBox="0 0 16 16"><path fill="none" d="M0 0H16V16H0z" data-name="Transparante laag"/><path d="M10.18 6.44 4.87 2.82c-.57-.39-1.27-.43-1.88-.11S2 3.67 2 4.38v7.24c0 .7.38 1.34.99 1.67.27.14.56.22.85.22.36 0 .71-.11 1.02-.32l5.31-3.62c.51-.35.82-.93.82-1.56s-.31-1.21-.82-1.56Zm-.56 2.29-5.31 3.62c-.26.18-.57.2-.85.05a.85.85 0 0 1-.46-.78V4.38c0-.34.17-.63.46-.78a.79.79 0 0 1 .85.05l5.31 3.62c.24.17.38.43.38.73s-.14.57-.38.73M14 2.5v11c0 .28-.22.5-.5.5s-.5-.22-.5-.5v-11c0-.28.22-.5.5-.5s.5.22.5.5" style="fill: #ffffff;"/></svg>
