<?xml version="1.0" encoding="UTF-8"?>
<svg xmlns="http://www.w3.org/2000/svg" viewBox="0 0 16 16"><path fill="none" d="M0 0H16V16H0z" data-name="Transparante laag"/><path d="M5.85 8.23c-.23-.1-.49-.15-.77-.15s-.53.05-.76.15q-.345.15-.6.42c-.255.27-.3.39-.39.63s-.14.5-.14.79.05.54.14.79q.135.36.39.63c.255.27.37.32.6.42s.49.15.76.15.54-.05.77-.15q.345-.15.6-.42t.39-.63c.09-.24.14-.5.14-.79s-.05-.54-.14-.79q-.135-.36-.39-.63t-.6-.42M6 10.71a1 1 0 0 1-.37.43c-.16.1-.34.16-.55.16s-.39-.05-.54-.16c-.16-.1-.28-.25-.37-.43-.09-.19-.13-.4-.13-.64s.04-.46.13-.65a1.006 1.006 0 0 1 .91-.59c.2 0 .39.05.55.16.16.1.28.25.37.43.09.19.13.4.13.65s-.04.46-.13.64m2.46-1.26c-.1.18-.15.4-.15.65s.05.47.15.65.23.32.41.42.38.15.62.15q.24 0 .42-.06c.1-.03.19-.09.27-.15v-.6h-.76v-.62h1.45v1.65q-.3.27-.66.39c-.25.08-.5.12-.77.12q-.57 0-1.02-.24c-.3-.16-.53-.39-.7-.69-.17-.29-.25-.64-.25-1.04s.08-.76.26-1.05c.17-.3.41-.53.71-.69.31-.16.66-.25 1.07-.25.23 0 .44.03.65.09s.38.14.52.24v.8c-.15-.11-.32-.2-.51-.26a2 2 0 0 0-.61-.09c-.26 0-.49.05-.67.15s-.33.24-.42.43Zm6.45.44v1.65q-.3.27-.66.39c-.25.08-.5.12-.77.12q-.57 0-1.02-.24c-.3-.16-.53-.39-.7-.69-.17-.29-.25-.64-.25-1.04s.08-.76.26-1.05c.17-.3.41-.53.71-.69.31-.16.66-.25 1.07-.25.23 0 .44.03.65.09s.38.14.52.24v.8c-.15-.11-.32-.2-.51-.26a2 2 0 0 0-.61-.09c-.26 0-.49.05-.67.15s-.33.24-.42.43-.15.4-.15.65.05.47.15.65.23.32.41.42.38.15.62.15q.24 0 .42-.06c.1-.03.19-.09.27-.15v-.6h-.76v-.62h1.45ZM12.58 13a.5.5 0 0 0-.63.32c-.14.41-.52.69-.95.69H3.5c-.83 0-1.5-.67-1.5-1.5V3.5C2 2.67 2.67 2 3.5 2H8v2.5C8 5.33 8.67 6 9.5 6H12v.5c0 .28.22.5.5.5s.5-.22.5-.5v-.51c0-.24-.07-.45-.17-.64-.01-.04-.04-.08-.06-.12-.17-.32-.39-.55-.42-.58l-3.2-3.2c-.13-.13-.28-.23-.44-.3a1.55 1.55 0 0 0-.61-.13H3.5A2.5 2.5 0 0 0 1 3.52v9a2.5 2.5 0 0 0 2.5 2.5H11a2 2 0 0 0 1.9-1.37.5.5 0 0 0-.32-.63Zm-1.29-8H9.5c-.28 0-.5-.22-.5-.5V2.71z"/></svg>
