<?xml version="1.0" encoding="UTF-8"?>
<svg xmlns="http://www.w3.org/2000/svg" viewBox="0 0 16 16"><path fill="none" d="M0 0H16V16H0z" data-name="Transparante laag"/><path d="M10 4V2.5c0-.28.22-.5.5-.5s.5.22.5.5V4c0 .55.45 1 1 1h1.5c.28 0 .5.22.5.5s-.22.5-.5.5H12c-1.1 0-2-.9-2-2M5.5 2c-.28 0-.5.22-.5.5V4c0 .55-.45 1-1 1H2.5c-.28 0-.5.22-.5.5s.22.5.5.5H4c1.1 0 2-.9 2-2V2.5c0-.28-.22-.5-.5-.5m8 8H12c-1.1 0-2 .9-2 2v1.5c0 .28.22.5.5.5s.5-.22.5-.5V12c0-.55.45-1 1-1h1.5c.28 0 .5-.22.5-.5s-.22-.5-.5-.5M4 10H2.5c-.28 0-.5.22-.5.5s.22.5.5.5H4c.55 0 1 .45 1 1v1.5c0 .28.22.5.5.5s.5-.22.5-.5V12c0-1.1-.9-2-2-2" style="fill: #ffffff;"/></svg>
