<?xml version="1.0" encoding="UTF-8"?>
<svg xmlns="http://www.w3.org/2000/svg" viewBox="0 0 16 16"><path fill="none" d="M0 0H16V16H0z" data-name="Transparante laag"/><path d="M4.98 8.14v3.12h1.91v.72H4.14V8.14zm5.5.51q.255.27.39.63c.09.24.14.5.14.79s-.05.54-.14.79q-.135.36-.39.63t-.6.42c-.23.1-.49.15-.77.15s-.53-.05-.76-.15q-.345-.15-.6-.42c-.255-.27-.3-.39-.39-.63s-.14-.5-.14-.79.05-.54.14-.79q.135-.36.39-.63c.255-.27.37-.32.6-.42s.49-.15.76-.15.54.05.77.15q.345.15.6.42m-.32 1.41c0-.25-.04-.46-.13-.65a1 1 0 0 0-.37-.43c-.16-.1-.34-.16-.55-.16s-.39.05-.54.16c-.16.1-.28.25-.37.43-.09.19-.13.4-.13.65s.04.46.13.64a1.006 1.006 0 0 0 .91.59c.2 0 .39-.05.55-.16.16-.1.28-.25.37-.43.09-.19.13-.4.13-.64m3.29-.17v.62h.76v.6c-.08.06-.17.12-.27.15q-.18.06-.42.06c-.24 0-.44-.05-.62-.15s-.31-.24-.41-.42-.15-.4-.15-.65.05-.46.15-.65.24-.33.42-.43.41-.15.67-.15a2 2 0 0 1 .61.09c.19.06.36.15.51.26v-.8c-.14-.1-.31-.18-.52-.24s-.42-.09-.65-.09c-.41 0-.77.08-1.07.25-.31.16-.54.39-.71.69s-.26.65-.26 1.05.08.74.25 1.04.4.52.7.69q.45.24 1.02.24c.27 0 .53-.04.77-.12q.375-.12.66-.39V9.89h-1.45Zm-.55 3.74A1.99 1.99 0 0 1 11 15H3.5A2.5 2.5 0 0 1 1 12.5v-9A2.5 2.5 0 0 1 3.5 1h4.59c.21 0 .42.05.61.13.16.07.31.17.44.3l3.2 3.2s.25.27.42.58q.045.06.06.12c.09.19.17.41.17.64v.51c0 .28-.22.5-.5.5s-.5-.22-.5-.5v-.5h-2.5c-.83 0-1.5-.67-1.5-1.5v-2.5H3.5c-.83 0-1.5.67-1.5 1.5v9c0 .83.67 1.5 1.5 1.5H11c.43 0 .81-.28.95-.69.09-.26.37-.4.63-.32.26.09.4.37.32.63ZM9 2.71V4.5c0 .28.22.5.5.5h1.79z"/></svg>
