<?xml version="1.0" encoding="UTF-8"?>
<svg xmlns="http://www.w3.org/2000/svg" viewBox="0 0 16 16"><path fill="none" d="M0 0H16V16H0z" data-name="Transparante laag"/><path d="M10.35 8.35 8.7 10l1.65 1.65c.2.2.2.51 0 .71a.485.485 0 0 1-.7 0L8 10.71l-1.65 1.65a.485.485 0 0 1-.7 0c-.2-.2-.2-.51 0-.71L7.3 10 5.65 8.35c-.2-.2-.2-.51 0-.71s.51-.2.71 0l1.65 1.65 1.65-1.65c.2-.2.51-.2.71 0s.2.51 0 .71ZM14 5.99v6.51c0 1.47-1.03 2.5-2.5 2.5h-7A2.5 2.5 0 0 1 2 12.5v-9A2.5 2.5 0 0 1 4.5 1h4.59c.21 0 .42.05.61.13.16.07.31.17.44.3l3.2 3.2s.25.27.42.59c.02.04.04.07.06.12.09.2.17.41.17.64Zm-4-3.28V4.5c0 .27.22.5.5.5h1.79zm3 9.79V6h-2.5C9.67 6 9 5.33 9 4.5V2H4.5C3.67 2 3 2.67 3 3.5v9c0 .83.67 1.5 1.5 1.5h7c.91 0 1.5-.59 1.5-1.5" style="fill: #ffffff;"/></svg>
