<?xml version="1.0" encoding="UTF-8"?>
<svg xmlns="http://www.w3.org/2000/svg" viewBox="0 0 16 16"><path fill="none" d="M0 0H16V16H0z" data-name="Transparante laag"/><path d="M12.71 2.25a.53.53 0 0 0-.54.07s-.71.56-2.67.56c-1.21 0-1.75-.23-2.27-.45-.73-.31-1.44-.6-3.39-.29A.495.495 0 0 0 3 2.5v12c0 .28.22.5.5.5s.5-.22.5-.5V9.25c1.67-.25 2.24-.03 2.87.24.58.24 1.25.51 2.63.51 2.37 0 3.24-.73 3.33-.81a.48.48 0 0 0 .17-.37V2.7a.51.51 0 0 0-.29-.45M12 8.55c-.31.16-1.07.45-2.5.45-1.18 0-1.7-.21-2.25-.44-.72-.3-1.42-.58-3.25-.32V3.12c1.65-.26 2.19-.05 2.84.23.58.25 1.25.53 2.66.53 1.17 0 1.97-.18 2.5-.37v5.03Z" style="fill: #ffffff;"/></svg>
