<?xml version="1.0" encoding="UTF-8"?>
<svg xmlns="http://www.w3.org/2000/svg" viewBox="0 0 16 16"><path fill="none" d="M0 0H16V16H0z" data-name="Transparante laag"/><path d="M5.62 8.83v.89h1.79v.65H5.62v.94h1.97v.68H4.83V8.15h2.76v.68zm3.26 3.15.9-1.41.92 1.41h.95l-1.32-1.97 1.26-1.87h-.92l-.84 1.33-.86-1.33h-.94l1.27 1.87-1.32 1.97h.92Zm6.04-3.15v-.68h-2.76v3.84h2.76v-.68h-1.97v-.94h1.79v-.65h-1.79v-.89zm-2.02 4.8A1.99 1.99 0 0 1 11 15H3.5A2.5 2.5 0 0 1 1 12.5v-9A2.5 2.5 0 0 1 3.5 1h4.59c.21 0 .42.05.61.13.16.07.31.17.44.3l3.2 3.2s.25.27.42.58q.045.06.06.12c.09.19.17.41.17.64v.51c0 .28-.22.5-.5.5s-.5-.22-.5-.5v-.5h-2.5c-.83 0-1.5-.67-1.5-1.5v-2.5H3.5c-.83 0-1.5.67-1.5 1.5v9c0 .83.67 1.5 1.5 1.5H11c.43 0 .81-.28.95-.69.09-.26.37-.4.63-.32.26.09.4.37.32.63ZM9 2.71V4.5c0 .28.22.5.5.5h1.79z" style="fill: #ffffff;"/></svg>
