<?xml version="1.0" encoding="UTF-8"?>
<svg xmlns="http://www.w3.org/2000/svg" viewBox="0 0 16 16"><path fill="none" d="M0 0H16V16H0z" data-name="Transparante laag"/><path d="m9.69 8.17-1.9 3.1h1.88v.72H6.46v-.02l1.92-3.1H6.55v-.72H9.7v.02Zm1.46 3.81V8.14h-.84v3.84zm3.91-2.57q0 .405-.18.69c-.18.285-.28.33-.5.43s-.46.15-.75.15h-.83v1.31h-.83V8.15h1.66c.28 0 .53.05.74.15s.38.24.49.43.18.42.18.69Zm-.79 0c0-.17-.05-.31-.16-.41s-.28-.15-.52-.15h-.77v1.14h.77c.23 0 .41-.05.52-.16s.16-.24.16-.42m-1.37 4.22A2 2 0 0 1 11 15H3.5A2.5 2.5 0 0 1 1 12.5v-9A2.5 2.5 0 0 1 3.5 1h4.59c.21 0 .41.05.6.13 0 0 .02.01.03.01.16.07.31.17.43.3l3.2 3.2s.25.27.42.59c.02.04.04.07.06.12.09.2.17.41.17.64v.51c0 .28-.22.5-.5.5s-.5-.22-.5-.5V6H9.5C8.67 6 8 5.33 8 4.5V2H3.5C2.67 2 2 2.67 2 3.5v9c0 .83.67 1.5 1.5 1.5H11c.43 0 .81-.28.95-.69.09-.26.37-.4.63-.32.26.09.4.37.32.63ZM9 2.71V4.5c0 .28.22.5.5.5h1.79z" style="fill: #ffffff;"/></svg>
