<?xml version="1.0" encoding="UTF-8"?>
<svg xmlns="http://www.w3.org/2000/svg" viewBox="0 0 16 16"><path fill="none" d="M0 0H16V16H0z" data-name="Transparante laag"/><path d="M15 7.5v-4A2.5 2.5 0 0 0 12.5 1h-9A2.5 2.5 0 0 0 1 3.5v8A2.5 2.5 0 0 0 3.5 14h9a2.5 2.5 0 0 0 2.5-2.5v-4M4 7H2V5h2zM2 8h2v2H2zm3-6h6v11H5zm7 3h2v2h-2zm0 3h2v2h-2zm2-4.5V4h-2V2h.5c.83 0 1.5.67 1.5 1.5M3.5 2H4v2H2v-.5C2 2.67 2.67 2 3.5 2M2 11.5V11h2v2h-.5c-.83 0-1.5-.67-1.5-1.5M12.5 13H12v-2h2v.5c0 .83-.67 1.5-1.5 1.5" style="fill: #ffffff;"/></svg>
