<?xml version="1.0" encoding="UTF-8"?>
<svg xmlns="http://www.w3.org/2000/svg" viewBox="0 0 16 16"><path fill="none" d="M0 0H16V16H0z" data-name="Transparante laag"/><path d="M7 13.5c0 .28-.22.5-.5.5h-2A2.5 2.5 0 0 1 2 11.5v-2c0-.28.22-.5.5-.5s.5.22.5.5v2c0 .83.67 1.5 1.5 1.5h2c.28 0 .5.22.5.5M6.5 2h-2A2.5 2.5 0 0 0 2 4.5v2c0 .28.22.5.5.5s.5-.22.5-.5v-2C3 3.67 3.67 3 4.5 3h2c.28 0 .5-.22.5-.5S6.78 2 6.5 2m5 0h-2c-.28 0-.5.22-.5.5s.22.5.5.5h2c.83 0 1.5.67 1.5 1.5v2c0 .28.22.5.5.5s.5-.22.5-.5v-2A2.5 2.5 0 0 0 11.5 2m2 7c-.28 0-.5.22-.5.5v2c0 .83-.67 1.5-1.5 1.5h-2c-.28 0-.5.22-.5.5s.22.5.5.5h2a2.5 2.5 0 0 0 2.5-2.5v-2c0-.28-.22-.5-.5-.5"/></svg>
