<?xml version="1.0" encoding="UTF-8"?>
<svg xmlns="http://www.w3.org/2000/svg" viewBox="0 0 16 16"><path fill="none" d="M0 0H16V16H0z" data-name="Transparante laag"/><path d="M14 10c0 2.21-1.79 4-4 4s-4-1.79-4-4V8c0-1.1.9-2 2-2s2 .9 2 2c0 .28-.22.5-.5.5S9 8.28 9 8c0-.55-.45-1-1-1s-1 .45-1 1v2c0 1.65 1.35 3 3 3s3-1.35 3-3c0-.28.22-.5.5-.5s.5.22.5.5m-4 1c-.55 0-1-.45-1-1 0-.28-.22-.5-.5-.5s-.5.22-.5.5c0 1.1.9 2 2 2s2-.9 2-2V8c0-2.21-1.79-4-4-4S4 5.79 4 8v3c0 .28.22.5.5.5s.5-.22.5-.5V8c0-1.65 1.35-3 3-3s3 1.35 3 3v2c0 .55-.45 1-1 1m-4.5.5c-.28 0-.5.22-.5.5 0 .55-.45 1-1 1s-1-.45-1-1V8c0-2.76 2.24-5 5-5s5 2.24 5 5c0 .28.22.5.5.5s.5-.22.5-.5c0-3.31-2.69-6-6-6S2 4.69 2 8v4c0 1.1.9 2 2 2s2-.9 2-2c0-.28-.22-.5-.5-.5"/></svg>
