<?xml version="1.0" encoding="UTF-8"?>
<svg xmlns="http://www.w3.org/2000/svg" viewBox="0 0 16 16"><path fill="none" d="M0 0H16V16H0z" data-name="Transparante laag"/><path d="M5.66 9.44c-.1.18-.14.39-.14.63s.05.45.14.63c.1.18.23.32.41.42s.39.15.64.15c.18 0 .34-.02.5-.07s.31-.13.46-.24v.81q-.195.12-.45.21c-.17.06-.37.08-.58.08-.39 0-.73-.08-1.03-.24s-.53-.39-.7-.69-.25-.65-.25-1.04.08-.75.25-1.05.4-.53.7-.69.64-.24 1.03-.24c.22 0 .42.03.59.08s.32.12.44.2v.81c-.15-.11-.3-.19-.46-.24s-.33-.07-.5-.07c-.25 0-.46.05-.64.15s-.32.24-.41.42Zm3.92 1.91c-.25 0-.48-.04-.7-.11a2.1 2.1 0 0 1-.6-.3v.75c.17.11.36.19.59.25s.46.1.69.1c.31 0 .58-.05.81-.14s.41-.23.53-.41.19-.39.19-.63c0-.17-.03-.32-.1-.46s-.17-.25-.31-.35c-.15-.1-.34-.18-.59-.25l-.66-.2c-.15-.05-.26-.11-.31-.17a.32.32 0 0 1-.09-.23c0-.13.06-.23.17-.3s.27-.11.48-.11a2.065 2.065 0 0 1 1.18.36v-.76c-.16-.09-.33-.17-.53-.22-.19-.06-.41-.08-.65-.08-.29 0-.55.05-.77.14q-.33.135-.51.39c-.12.17-.18.38-.18.62 0 .17.03.33.09.46s.17.26.31.36.33.19.57.25l.67.2c.15.05.26.11.32.17s.1.14.1.24c0 .13-.06.23-.17.31s-.28.12-.52.12Zm4.71-3.21-1.04 2.78-1.03-2.78h-.91l1.52 3.84h.81l1.53-3.84zm-1.39 5.49A2 2 0 0 1 11 15H3.5A2.5 2.5 0 0 1 1 12.5v-9A2.5 2.5 0 0 1 3.5 1h4.59c.21 0 .41.05.6.13 0 0 .02.01.03.01.16.07.31.17.43.3l3.2 3.2s.25.27.42.59c.02.04.04.07.06.12.09.2.17.41.17.64v.51c0 .28-.22.5-.5.5s-.5-.22-.5-.5V6H9.5C8.67 6 8 5.33 8 4.5V2H3.5C2.67 2 2 2.67 2 3.5v9c0 .83.67 1.5 1.5 1.5H11c.43 0 .81-.28.95-.69.09-.26.37-.4.63-.32.26.09.4.37.32.63ZM9 2.71V4.5c0 .28.22.5.5.5h1.79z"/></svg>
