<?xml version="1.0" encoding="UTF-8"?>
<svg xmlns="http://www.w3.org/2000/svg" viewBox="0 0 16 16"><path fill="none" d="M0 0H16V16H0z" data-name="Transparante laag"/><path d="M6.32 10.54v-2.4h.84v2.55c0 .31-.05.56-.16.76q-.165.3-.45.45c-.2.1-.43.15-.7.15-.19 0-.36-.03-.51-.08s-.28-.11-.37-.17v-.79c.13.08.25.15.37.19s.25.07.39.07c.22 0 .37-.06.46-.17s.13-.29.13-.55Zm4.55-1.82q.18.285.18.69c0 .405-.06.5-.18.69s-.28.33-.5.43-.46.15-.75.15h-.83v1.31h-.83V8.15h1.66c.28 0 .53.05.74.15s.38.24.49.43Zm-.62.69c0-.17-.05-.31-.16-.41s-.28-.15-.52-.15H8.8v1.14h.77c.23 0 .41-.05.52-.16s.16-.24.16-.42m3.2.48v.62h.76v.6c-.08.06-.17.12-.27.15q-.18.06-.42.06c-.24 0-.44-.05-.62-.15s-.31-.24-.41-.42-.15-.4-.15-.65.05-.46.15-.65.24-.33.42-.43.41-.15.67-.15a2 2 0 0 1 .61.09c.19.06.36.15.51.26v-.8c-.14-.1-.31-.18-.52-.24s-.42-.09-.65-.09c-.41 0-.77.08-1.07.25-.31.16-.54.39-.71.69s-.26.65-.26 1.05.08.74.25 1.04.4.52.7.69q.45.24 1.02.24c.27 0 .53-.04.77-.12q.375-.12.66-.39V9.89h-1.45Zm-.55 3.74A1.99 1.99 0 0 1 11 15H3.5A2.5 2.5 0 0 1 1 12.5v-9A2.5 2.5 0 0 1 3.5 1h4.59c.21 0 .42.05.61.13.16.07.31.17.44.3l3.2 3.2s.25.27.42.58q.045.06.06.12c.09.19.17.41.17.64v.51c0 .28-.22.5-.5.5s-.5-.22-.5-.5v-.5h-2.5c-.83 0-1.5-.67-1.5-1.5v-2.5H3.5c-.83 0-1.5.67-1.5 1.5v9c0 .83.67 1.5 1.5 1.5H11c.43 0 .81-.28.95-.69.09-.26.37-.4.63-.32.26.09.4.37.32.63ZM9 2.71V4.5c0 .28.22.5.5.5h1.79z" style="fill: #ffffff;"/></svg>
