<?xml version="1.0" encoding="UTF-8"?>
<svg xmlns="http://www.w3.org/2000/svg" viewBox="0 0 16 16"><path fill="none" d="M0 0H16V16H0z" data-name="Transparante laag"/><path d="M13.5 2a1.498 1.498 0 0 0-1.26 2.31L8.2 11.02c-.07 0-.13-.02-.21-.02-.23 0-.45.06-.64.15L3.84 7.64c.09-.2.15-.41.15-.64 0-.83-.67-1.5-1.5-1.5S.99 6.17.99 7s.67 1.5 1.5 1.5c.23 0 .45-.06.64-.15l3.51 3.51c-.09.2-.15.41-.15.64 0 .83.67 1.5 1.5 1.5a1.498 1.498 0 0 0 1.1-2.52l3.95-6.56c.15.05.3.08.46.08.83 0 1.5-.67 1.5-1.5S14.33 2 13.5 2M2 7c0-.28.22-.5.5-.5s.5.22.5.5-.22.5-.5.5S2 7.28 2 7m6 6c-.28 0-.5-.22-.5-.5s.22-.5.5-.5.5.22.5.5-.22.5-.5.5m5.5-9c-.28 0-.5-.22-.5-.5s.22-.5.5-.5.5.22.5.5-.22.5-.5.5"/></svg>
