<?xml version="1.0" encoding="UTF-8"?>
<svg xmlns="http://www.w3.org/2000/svg" viewBox="0 0 16 16"><path fill="none" d="M0 0H16V16H0z" data-name="Transparante laag"/><path d="M8 6c-1.1 0-2 .9-2 2s.9 2 2 2 2-.9 2-2-.9-2-2-2m0 3c-.55 0-1-.45-1-1s.45-1 1-1 1 .45 1 1-.45 1-1 1m6.86.82a.47.47 0 0 0-.23-.3l-1.2-.69c.05-.28.07-.56.07-.83s-.02-.54-.07-.83l.76-.44a1 1 0 0 0 .37-1.37l-1.25-2.17a.493.493 0 0 0-.68-.18l-1.21.7c-.43-.34-.9-.61-1.42-.81V2c0-.55-.45-1-1-1H7c-.55 0-1 .45-1 1v.9c-.52.2-1 .47-1.42.81l-.77-.45c-.48-.28-1.09-.11-1.37.37l-1 1.73c-.13.23-.17.5-.1.76s.23.47.47.61l.76.44c-.05.28-.07.56-.07.83s.02.55.07.83l-.76.44a1 1 0 0 0-.37 1.37l1 1.73c.28.48.89.64 1.37.37l.77-.45c.43.34.9.61 1.42.81v.9c0 .55.45 1 1 1h2.5c.28 0 .5-.22.5-.5v-1.4c.52-.2 1-.47 1.42-.81l.77.45c.23.13.5.17.76.1a1 1 0 0 0 .61-.47l1.25-2.17a.5.5 0 0 0 .05-.38m-2.16 2.05-1.08-.62a.51.51 0 0 0-.59.06q-.72.66-1.68.96c-.21.07-.35.26-.35.48V14H7v-1.25c0-.22-.14-.41-.35-.48-.64-.2-1.2-.53-1.68-.96a.48.48 0 0 0-.34-.13c-.09 0-.17.02-.25.07l-1.08.62-1-1.73 1.07-.62c.19-.11.29-.33.24-.54-.08-.34-.11-.66-.11-.97s.04-.63.11-.97a.5.5 0 0 0-.24-.54L2.3 5.88l1-1.73 1.08.62c.19.11.43.08.59-.06a4.4 4.4 0 0 1 1.68-.96c.21-.07.35-.26.35-.48V2.02h2v1.25c0 .22.14.41.35.48.64.2 1.2.53 1.68.96.16.15.4.17.59.06l1.08-.62 1 1.73-1.07.62c-.19.11-.29.33-.24.54.08.34.11.66.11.97s-.04.63-.11.97c-.05.21.05.43.24.54l1.07.62z"/></svg>
