<?xml version="1.0" encoding="UTF-8"?>
<svg xmlns="http://www.w3.org/2000/svg" viewBox="0 0 16 16"><path fill="none" d="M0 0H16V16H0z" data-name="Transparante laag"/><path d="M13.5 7.5c-.23 0-.45.06-.64.15L9.35 4.14c.09-.2.15-.41.15-.64C9.5 2.67 8.83 2 8 2a1.498 1.498 0 0 0-1.1 2.52l-3.95 6.56c-.15-.05-.3-.08-.46-.08-.83 0-1.5.67-1.5 1.5s.67 1.5 1.5 1.5a1.498 1.498 0 0 0 1.26-2.31l4.04-6.71c.07 0 .14.02.21.02.23 0 .45-.06.64-.15l3.51 3.51c-.09.2-.15.41-.15.64 0 .83.67 1.5 1.5 1.5S15 9.83 15 9s-.67-1.5-1.5-1.5M2.5 13c-.28 0-.5-.22-.5-.5s.22-.5.5-.5.5.22.5.5-.22.5-.5.5M8 4c-.28 0-.5-.22-.5-.5S7.72 3 8 3s.5.22.5.5-.22.5-.5.5m5.5 5.5c-.28 0-.5-.22-.5-.5s.22-.5.5-.5.5.22.5.5-.22.5-.5.5" style="fill: #ffffff;"/></svg>
