<?xml version="1.0" encoding="UTF-8"?>
<svg xmlns="http://www.w3.org/2000/svg" viewBox="0 0 16 16"><path fill="none" d="M0 0H16V16H0z" data-name="Transparante laag"/><path d="m10.15 6.15-1.9 1.9C8.17 8.03 8.09 8 8.01 8c-.55 0-1 .45-1 1s.45 1 1 1 1-.45 1-1c0-.09-.03-.16-.05-.24l1.9-1.9c.2-.2.2-.51 0-.71s-.51-.2-.71 0M15 9c0 1.81-.69 3.53-1.96 4.85a.51.51 0 0 1-.71.01.495.495 0 0 1-.01-.71A5.97 5.97 0 0 0 14 9c0-3.31-2.69-6-6-6S2 5.69 2 9c0 1.55.6 3.03 1.68 4.15.19.2.19.52-.01.71s-.52.19-.71-.01A6.97 6.97 0 0 1 1 9c0-3.86 3.14-7 7-7s7 3.14 7 7" style="fill: #ffffff;"/></svg>
