<?xml version="1.0" encoding="UTF-8"?>
<svg xmlns="http://www.w3.org/2000/svg" viewBox="0 0 16 16"><path fill="none" d="M0 0H16V16H0z" data-name="Transparante laag"/><path d="M4.5 1h-1A2.5 2.5 0 0 0 1 3.5v9A2.5 2.5 0 0 0 3.5 15h1A2.5 2.5 0 0 0 7 12.5v-9A2.5 2.5 0 0 0 4.5 1M6 12.5c0 .83-.67 1.5-1.5 1.5h-1c-.83 0-1.5-.67-1.5-1.5v-9C2 2.67 2.67 2 3.5 2h1C5.33 2 6 2.67 6 3.5zM12.5 9h-1A2.5 2.5 0 0 0 9 11.5v1a2.5 2.5 0 0 0 2.5 2.5h1a2.5 2.5 0 0 0 2.5-2.5v-1A2.5 2.5 0 0 0 12.5 9m1.5 3.5c0 .83-.67 1.5-1.5 1.5h-1c-.83 0-1.5-.67-1.5-1.5v-1c0-.83.67-1.5 1.5-1.5h1c.83 0 1.5.67 1.5 1.5z" style="fill: #ffffff;"/></svg>
