<?xml version="1.0" encoding="UTF-8"?>
<svg xmlns="http://www.w3.org/2000/svg" viewBox="0 0 16 16"><path fill="none" d="M0 0H16V16H0z" data-name="Transparante laag"/><path d="M13 5s-.07 0-.1.01C12.44 2.73 10.42 1 8 1S3.56 2.73 3.1 5.02c-.07 0-.13-.02-.2-.02-1.1 0-2 .9-2 2v2c0 1.1.9 2 2 2s2-.9 2-2V7c0-.67-.33-1.25-.83-1.62C4.37 3.47 6.01 2 8.01 2s3.6 1.44 3.93 3.32A2 2 0 0 0 11.01 7v2c0 .73.39 1.36.98 1.71-.1.95-.88 1.78-1.99 2.15C9.93 11.82 9.07 11 8.01 11s-2 .9-2 2 .9 2 2 2c.76 0 1.41-.43 1.75-1.05 1.7-.35 2.96-1.54 3.2-2.96h.05c1.1 0 2-.9 2-2v-2c0-1.1-.9-2-2-2ZM3.9 9c0 .55-.45 1-1 1s-1-.45-1-1V7c0-.55.45-1 1-1s1 .45 1 1zM8 14c-.55 0-1-.45-1-1s.45-1 1-1 1 .45 1 1-.45 1-1 1m6-5c0 .55-.45 1-1 1s-1-.45-1-1V7c0-.55.45-1 1-1s1 .45 1 1z" style="fill: #ffffff;"/></svg>
