<?xml version="1.0" encoding="UTF-8"?>
<svg xmlns="http://www.w3.org/2000/svg" viewBox="0 0 16 16"><path fill="none" d="M0 0H16V16H0z" data-name="Transparante laag"/><path d="M13.5 10H11V6h2.5c.28 0 .5-.22.5-.5s-.22-.5-.5-.5H11V2.5c0-.28-.22-.5-.5-.5s-.5.22-.5.5V5H6V2.5c0-.28-.22-.5-.5-.5s-.5.22-.5.5V5H2.5c-.28 0-.5.22-.5.5s.22.5.5.5H5v4H2.5c-.28 0-.5.22-.5.5s.22.5.5.5H5v2.5c0 .28.22.5.5.5s.5-.22.5-.5V11h4v2.5c0 .28.22.5.5.5s.5-.22.5-.5V11h2.5c.28 0 .5-.22.5-.5s-.22-.5-.5-.5M6 10V6h4v4z" style="fill: #ffffff;"/></svg>
