<?xml version="1.0" encoding="UTF-8"?>
<svg xmlns="http://www.w3.org/2000/svg" viewBox="0 0 16 16"><path fill="none" d="M0 0H16V16H0z" data-name="Transparante laag"/><path d="M8 13.99c-.4 0-.78-.16-1.06-.44l-4.8-5.11C.64 6.93.64 4.55 2.1 3.09c1.42-1.42 3.89-1.42 5.3 0 .24.23.44.5.6.78.16-.28.36-.55.6-.78 1.42-1.42 3.89-1.42 5.3 0a3.754 3.754 0 0 1 0 5.3l-4.84 5.14c-.29.29-.67.45-1.07.45ZM4.75 3c-.73 0-1.42.29-1.94.81a2.76 2.76 0 0 0 0 3.89l.08.09 4.78 5.08c.17.17.5.18.69-.01l4.82-5.12c1.1-1.1 1.1-2.85.03-3.92s-2.85-1.04-3.89 0c-.48.48-.76 1.11-.8 1.79-.02.27-.26.5-.52.47a.5.5 0 0 1-.49-.47c-.04-.67-.32-1.31-.8-1.79-.52-.52-1.21-.81-1.94-.81Z" style="fill: #ffffff;"/></svg>
