<?xml version="1.0" encoding="UTF-8"?>
<svg xmlns="http://www.w3.org/2000/svg" viewBox="0 0 16 16"><path fill="none" d="M0 0H16V16H0z" data-name="Transparante laag"/><path d="M12.79 3.5 9.3 1.38c-.8-.49-1.8-.49-2.6 0L3.21 3.5C2.47 3.95 2 4.77 2 5.64v4.73c0 .87.46 1.69 1.21 2.14l3.49 2.12c.4.24.85.37 1.3.37s.9-.12 1.3-.37l3.49-2.12c.74-.45 1.21-1.27 1.21-2.14V5.64c0-.87-.46-1.69-1.21-2.14m.21 6.87c0 .52-.28 1.02-.72 1.29l-3.49 2.12c-.48.29-1.08.29-1.56 0l-3.49-2.12c-.45-.27-.72-.76-.72-1.29V5.64c0-.52.28-1.02.72-1.29l3.49-2.12c.24-.15.51-.22.78-.22s.54.07.78.22l3.49 2.12c.45.27.72.76.72 1.29z" style="fill: #ffffff;"/></svg>
