<?xml version="1.0" encoding="UTF-8"?>
<svg xmlns="http://www.w3.org/2000/svg" viewBox="0 0 16 16"><path fill="none" d="M0 0H16V16H0z" data-name="Transparante laag"/><path d="M14.2 5.82 9.69 1.66c-.95-.88-2.44-.88-3.39 0L1.8 5.82c-.51.47-.8 1.14-.8 1.83v4.85A2.5 2.5 0 0 0 3.5 15h9.01a2.5 2.5 0 0 0 2.5-2.5V7.65c0-.69-.29-1.36-.8-1.83ZM14 12.5c0 .83-.67 1.5-1.5 1.5h-9c-.83 0-1.5-.67-1.5-1.5V7.65c0-.42.18-.82.48-1.1l4.5-4.15c.28-.26.65-.39 1.02-.39s.73.13 1.02.39l4.5 4.16c.31.28.48.68.48 1.1v4.85Z" style="fill: #ffffff;"/></svg>
