<?xml version="1.0" encoding="UTF-8"?>
<svg xmlns="http://www.w3.org/2000/svg" viewBox="0 0 16 16"><path fill="none" d="M0 0H16V16H0z" data-name="Transparante laag"/><path d="M8.02 1h-.01C4.16 1 1.03 4.14 1.03 8s3.14 7 7 7 7-3.14 7-7-3.16-6.99-7.01-7m5.95 6.5h-2.99c-.11-2.75-.84-4.38-1.53-5.31 2.45.61 4.31 2.73 4.52 5.31M8 13.95c-.47-.26-1.92-1.42-1.99-5.45h3.98c-.07 4.04-1.53 5.19-1.99 5.45M6.02 7.5c.15-3.63 1.46-5 1.98-5.4.52.4 1.83 1.78 1.98 5.4zm.53-5.31c-.69.93-1.42 2.56-1.53 5.31H2.03c.21-2.58 2.07-4.7 4.52-5.31M2.03 8.5h2.98c.05 2.74.7 4.35 1.37 5.27A6.01 6.01 0 0 1 2.03 8.5m7.59 5.27c.67-.92 1.32-2.53 1.37-5.27h2.98c-.21 2.52-1.99 4.6-4.35 5.27" style="fill: #ffffff;"/></svg>
