<?xml version="1.0" encoding="UTF-8"?>
<svg xmlns="http://www.w3.org/2000/svg" viewBox="0 0 16 16"><path fill="none" d="M0 0H16V16H0z" data-name="Transparante laag"/><path d="M8.02 1H8C4.15 1 1.02 4.14 1.02 8s3.14 7 7 7c.05 0 .09 0 .14-.02.12-.03 2.76-.88 2.85-6.48h2.98c-.07.79-.28 1.57-.65 2.27-.13.24-.03.55.21.67.25.13.55.03.67-.21.52-.99.79-2.11.79-3.23 0-3.85-3.13-6.99-6.98-7Zm5.95 6.5h-3c-.11-2.75-.84-4.38-1.53-5.31 2.45.61 4.31 2.73 4.52 5.31ZM8 2.1c.52.4 1.83 1.78 1.98 5.4H6.02c.15-3.63 1.46-5 1.98-5.4m-1.45.09c-.69.93-1.42 2.56-1.53 5.31h-3c.21-2.58 2.07-4.7 4.52-5.31ZM2.03 8.5h2.98c.05 2.74.7 4.35 1.37 5.27A6.01 6.01 0 0 1 2.03 8.5M8 13.95c-.47-.26-1.92-1.42-1.99-5.45h3.98c-.07 4.04-1.53 5.19-1.99 5.45m4.17-.1a.67.67 0 1 1 0-1.34.67.67 0 0 1 0 1.34" style="fill: #ffffff;"/></svg>
