<?xml version="1.0" encoding="UTF-8"?>
<svg xmlns="http://www.w3.org/2000/svg" viewBox="0 0 16 16"><path fill="none" d="M0 0H16V16H0z" data-name="Transparante laag"/><path d="M15 7.75c0 2.07-1.68 3.75-3.75 3.75-.5 0-.98-.1-1.44-.29-.25-.11-.38-.4-.27-.65s.4-.38.65-.27c.34.14.69.21 1.06.21 1.52 0 2.75-1.23 2.75-2.75S12.77 5 11.25 5A2.745 2.745 0 0 0 8.5 7.75c0 1.52-.91 2.88-2.31 3.46-.46.19-.94.29-1.44.29C2.68 11.5 1 9.82 1 7.75S2.68 4 4.75 4c.5 0 .98.1 1.44.29.25.11.38.4.27.65a.5.5 0 0 1-.65.27C5.47 5.07 5.12 5 4.75 5 3.23 5 2 6.23 2 7.75s1.23 2.75 2.75 2.75A2.745 2.745 0 0 0 7.5 7.75c0-1.52.91-2.88 2.31-3.46.46-.19.94-.29 1.44-.29C13.32 4 15 5.68 15 7.75" style="fill: #ffffff;"/></svg>
