<?xml version="1.0" encoding="UTF-8"?>
<svg xmlns="http://www.w3.org/2000/svg" viewBox="0 0 16 16"><path fill="none" d="M0 0H16V16H0z" data-name="Transparante laag"/><path d="M11.5 9h-3V6.45a2.5 2.5 0 1 0-1 0V9h-3A2.5 2.5 0 0 0 2 11.5V13c0 .55.45 1 1 1h9.99c.55 0 1-.45 1-1v-1.5a2.5 2.5 0 0 0-2.5-2.5Zm-5-5c0-.83.67-1.5 1.5-1.5s1.5.67 1.5 1.5S8.83 5.5 8 5.5 6.5 4.83 6.5 4m6.5 9H3v-1.5c0-.83.67-1.5 1.5-1.5h7c.83 0 1.5.67 1.5 1.5zm-2.25-5.5h.5c.28 0 .5.22.5.5s-.22.5-.5.5h-.5c-.28 0-.5-.22-.5-.5s.22-.5.5-.5"/></svg>
