<?xml version="1.0" encoding="UTF-8"?>
<svg xmlns="http://www.w3.org/2000/svg" viewBox="0 0 16 16"><path fill="none" d="M0 0H16V16H0z" data-name="Transparante laag"/><path d="M8.01 1c1.92 0 3.57.68 4.93 2.05 1.37 1.37 2.05 3.02 2.05 4.96s-.68 3.57-2.05 4.93c-1.37 1.37-3.01 2.05-4.93 2.05s-3.59-.68-4.96-2.05S1 9.93 1 8.01s.68-3.57 2.04-4.93C4.4 1.71 6.04 1.02 7.96 1h.06ZM3.8 4.63V12h1.52V9.78H6.4V12h1.52V4.63l-.8-.89H4.65l-.86.89Zm2.61.56v3.22H5.33V5.19zm2.71 6.82h2.86v-1.25h-1.36V3.74h-1.5V12Z" style="fill: #ffffff;"/></svg>
