<?xml version="1.0" encoding="UTF-8"?>
<svg xmlns="http://www.w3.org/2000/svg" viewBox="0 0 16 16"><path fill="none" d="M0 0H16V16H0z" data-name="Transparante laag"/><path d="M8.01 1c1.92 0 3.57.68 4.93 2.05 1.37 1.37 2.05 3.02 2.05 4.96s-.68 3.57-2.05 4.93c-1.37 1.37-3.01 2.05-4.93 2.05s-3.59-.68-4.96-2.05S1 9.93 1 8.01s.68-3.57 2.04-4.93C4.4 1.71 6.04 1.02 7.96 1h.06ZM3.33 6.77c-.44.39-.73.91-.85 1.58s-.04 1.24.24 1.72c.18.28.45.47.8.58q.525.165.87.15c.23 0 .39-.03.49-.07-.17.46-.16.88.01 1.25.18.37.4.63.68.78.15.09.36.17.64.22s.59.04.94-.04.63-.26.83-.54c-.39-.02-.67-.18-.85-.47-.18-.3-.14-.71.1-1.25-.43.13-.82.07-1.18-.17s-.53-.6-.51-1.08a3.3 3.3 0 0 1-1.05-.57c-.31-.25-.48-.44-.5-.57q0-.195.12-.42c.12-.225.16-.21.24-.19.04.02.18.15.42.4q.36.375.69.54c.37.2.75.35 1.15.44s.73.04 1.01-.17c.31-.44-.13-1.09-1.33-1.94-.68-.46-1.28-.69-1.77-.69h-.03c-.44.04-.83.2-1.16.5Zm5.18-4.19c-.33.31-.87.82-1.61 1.52L5.49 2.8c-.24-.15-.41-.18-.5-.11s-.14.18-.14.33v1.91c0 .26.06.39.18.4.12 0 .19-.05.21-.18.04-.3.11-.79.22-1.5l1.05.89c.26.11.42.16.47.14s.18-.1.39-.25c.17-.11.55-.39 1.16-.83l.08.47c.04.31.09.64.15.97s.12.51.15.53c.09.07 1.01.08 2.74.03l-.39.55c-.24.37-.49.76-.73 1.16s-.37.64-.37.69c.02.13.68.65 2 1.55l-.39.25c-.24.17-.49.34-.73.53s-.38.3-.4.36l.22 1.72c-.48 0-.91-.06-1.3-.17a.18.18 0 0 0-.15.07c-.05.05-.06.1-.06.15 0 .06.04.09.1.11.07.02.36.12.85.29.49.18.77.27.85.29.13.06.23.05.29-.01s.09-.18.07-.35c-.02-.22-.09-.84-.22-1.86l1.94-1.11c.15-.11.22-.26.21-.44 0-.18-.1-.31-.26-.39q-.33-.165-2.16-1.11l1.8-2.38c.15-.17.17-.38.06-.64s-.34-.36-.69-.3c-.5.07-1.41.21-2.74.42l-.08-2.25c-.04-.3-.15-.44-.33-.44-.13 0-.3.09-.5.28ZM5.44 5.91s-.03 0-.03.03c.3.11.6.25.91.42.09.07.24.19.46.36.21.17.37.29.49.36.54-.55.54-1.05.03-1.5-.15-.15-.36-.22-.64-.22h-.03c-.46.04-.86.22-1.19.55m2.1 1.44c.18.18.35.4.5.64.17.24.22.51.15.82-.06.3-.22.52-.46.65-.39.22-.93.22-1.64 0 .09.22.18.37.25.44.43.46 1.15.31 2.16-.44 1-.79 1.27-1.49.8-2.08-.22-.3-.49-.44-.8-.44-.3.04-.62.18-.97.42Zm1.47 2.33c-.33.18-.66.47-.97.85s-.4.69-.25.93c.22.3.5.42.83.36s.67-.22 1-.5c.57-.46.74-.91.5-1.36-.17-.3-.39-.43-.67-.39h-.03c-.15 0-.29.04-.42.11Z" style="fill: #ffffff;"/></svg>
