<?xml version="1.0" encoding="UTF-8"?>
<svg xmlns="http://www.w3.org/2000/svg" viewBox="0 0 16 16"><path fill="none" d="M0 0H16V16H0z" data-name="Transparante laag"/><path d="M12.5 1h-9A2.5 2.5 0 0 0 1 3.5v9A2.5 2.5 0 0 0 3.5 15h9a2.5 2.5 0 0 0 2.5-2.5v-9A2.5 2.5 0 0 0 12.5 1M14 12.5c0 .83-.67 1.5-1.5 1.5h-9c-.83 0-1.5-.67-1.5-1.5v-9C2 2.67 2.67 2 3.5 2h9c.83 0 1.5.67 1.5 1.5zM8 4C6.35 4 5 5.38 5 7.08s1.68 3.48 2.41 4.18c.17.16.38.24.59.24s.43-.08.59-.24c.72-.7 2.41-2.51 2.41-4.18S9.65 4 8 4m0 6.44c-.58-.58-2-2.13-2-3.36C6 5.93 6.9 5 8 5s2 .93 2 2.08c0 1.24-1.42 2.78-2 3.36M8.5 7c0 .28-.23.5-.5.5s-.5-.23-.5-.5.23-.5.5-.5.5.23.5.5"/></svg>
