<?xml version="1.0" encoding="UTF-8"?>
<svg xmlns="http://www.w3.org/2000/svg" viewBox="0 0 16 16"><path fill="none" d="M0 0H16V16H0z" data-name="Transparante laag"/><path d="M8.01 1c1.92 0 3.57.68 4.93 2.05 1.37 1.37 2.05 3.02 2.05 4.96s-.68 3.57-2.05 4.93c-1.37 1.37-3.01 2.05-4.93 2.05s-3.59-.68-4.96-2.05S1 9.93 1 8.01s.68-3.57 2.04-4.93C4.4 1.71 6.04 1.02 7.96 1h.06Zm1.83 1.91c-.11.11 0 .46.36 1.05.18.39.25.62.19.69-.22.22-.43.29-.64.19-1.5-.81-2.31-1.16-2.44-1.03-.07.07-.06.23.04.46q.15.345.36.69c.21.345.21.37.21.4a.72.72 0 0 1-.22.42c-.04.06-.43.52-1.18 1.39S5.38 8.5 5.34 8.56q-.3.3-.3.78c0 .44-.05.74-.14.89-.18.22-.17.44.06.67l-1.05 1.41 1.44-1.19c.07.02.24.03.5.03.06-.02.14-.06.25-.12s.18-.1.19-.1l.11.03c.09 0 .18 0 .26.01s.18 0 .28-.01c.1-.02.19-.05.26-.08.22-.15.43-.33.64-.55.04-.06.25-.31.64-.76s.76-.89 1.12-1.32.56-.66.6-.69c.02-.02.04-.05.07-.08s.05-.06.07-.08.05-.04.08-.06c.04-.02.07-.03.11-.04h.14c.06 0 .12.03.19.07.07.02.17.06.29.12s.23.12.33.17.21.09.32.14.21.07.29.07.14-.03.18-.08c.07-.13-.01-.36-.26-.68s-.48-.58-.68-.76c-.48-.48-.74-.79-.78-.94-.02-.13.03-.24.14-.35s.2-.15.28-.15.21.05.42.14c.78.28 1.21.33 1.3.17.11-.2-.19-.64-.91-1.3-.78-.72-1.38-1.06-1.8-1.03-.06 0-.1.02-.14.06ZM6.3 8.46c.22 0 .45.07.69.22.26.2.3.41.14.61-.04.04-.24-.09-.61-.39a.8.8 0 0 0-.32-.12c-.12-.03-.21-.05-.26-.06s-.07-.04-.06-.1c.07-.11.2-.17.39-.17h.03Zm1.77-1.03c.17.11.27.23.32.36s.06.23.03.29-.07.11-.12.12c-.02 0-.29-.16-.8-.47a.9.9 0 0 0-.29-.14c-.12-.04-.21-.07-.28-.11-.06-.04-.1-.08-.1-.14 0-.09.11-.14.33-.14h.03c.39 0 .68.07.89.22Zm.11-1.36c.39 0 .67.07.83.22.28.22.34.41.19.55-.13.09-.39 0-.78-.3l-.24-.12c-.12-.06-.2-.12-.25-.15-.05-.04-.06-.07-.04-.11.04-.06.12-.08.25-.08h.03Z" style="fill: #ffffff;"/></svg>
