<?xml version="1.0" encoding="UTF-8"?>
<svg xmlns="http://www.w3.org/2000/svg" viewBox="0 0 16 16"><path fill="none" d="M0 0H16V16H0z" data-name="Transparante laag"/><path d="M11.5 15h-7C2.57 15 1 13.43 1 11.5v-7C1 2.57 2.57 1 4.5 1h7C13.43 1 15 2.57 15 4.5v7c0 1.93-1.57 3.5-3.5 3.5m-7-13A2.5 2.5 0 0 0 2 4.5v7A2.5 2.5 0 0 0 4.5 14h7a2.5 2.5 0 0 0 2.5-2.5v-7A2.5 2.5 0 0 0 11.5 2zM8 5c1.65 0 3 1.35 3 3s-1.35 3-3 3-3-1.35-3-3 1.35-3 3-3m0-1C5.79 4 4 5.79 4 8s1.79 4 4 4 4-1.79 4-4-1.79-4-4-4m4.22 1.26c-.41 0-.75-.34-.75-.75s.34-.75.75-.75.75.34.75.75-.34.75-.75.75" style="fill: #ffffff;"/></svg>
