<?xml version="1.0" encoding="UTF-8"?>
<svg xmlns="http://www.w3.org/2000/svg" viewBox="0 0 16 16"><path fill="none" d="M0 0H16V16H0z" data-name="Transparante laag"/><path d="m14.92 12.4-3.01-9.54c-.16-.51-.51-.93-.98-1.17-.47-.25-1.02-.29-1.53-.13-.27.09-.51.23-.71.4A2 2 0 0 0 6.99 1c-.6 0-1.13.27-1.5.69-.37-.42-.9-.69-1.5-.69-1.1 0-2 .9-2 2v10c0 1.1.9 2 2 2 .6 0 1.13-.27 1.5-.69.37.42.9.69 1.5.69 1.1 0 2-.9 2-2V6.91l2.11 6.69a2.01 2.01 0 0 0 2.51 1.31 2.01 2.01 0 0 0 1.31-2.51M4 14c-.55 0-1-.45-1-1V3c0-.55.45-1 1-1s1 .45 1 1v10c0 .55-.45 1-1 1m4-1c0 .55-.45 1-1 1s-1-.45-1-1V3c0-.55.45-1 1-1s1 .45 1 1zm5.32.95c-.25.08-.53.06-.76-.07s-.41-.33-.49-.59L9.06 3.75a.96.96 0 0 1 .07-.76c.12-.24.33-.41.59-.49.1-.03.2-.05.3-.05.16 0 .32.04.46.11.24.12.41.33.49.59l3.01 9.54a.99.99 0 0 1-.65 1.25Z"/></svg>
