<?xml version="1.0" encoding="UTF-8"?>
<svg xmlns="http://www.w3.org/2000/svg" viewBox="0 0 16 16"><path fill="none" d="M0 0H16V16H0z" data-name="Transparante laag"/><path d="M11.29 9.59c.17.1.29.12.33.2.04.29 0 .59-.14.85-.28.44-.74.74-1.26.82-.33 0-.35.26-2.18-.53a7.57 7.57 0 0 1-3.01-2.85c-.4-.55-.64-1.21-.67-1.9.03-.57.29-1.09.73-1.46.12-.13.28-.21.46-.22h.35c.1 0 .26-.04.4.32s.47 1.27.51 1.36c.05.1.05.22 0 .32-.05.11-.12.21-.2.3-.09.1-.2.23-.28.31-.09.08-.2.18-.09.36.26.48.58.91.97 1.29.42.41.92.73 1.46.95.17.1.28.09.39 0 .21-.22.42-.45.6-.68.13-.17.25-.15.41-.08s1.05.54 1.22.64m3.53 0c-.51 2.31-2.89 4.71-5.21 5.23-.54.12-1.09.18-1.62.18-1.32 0-2.6-.37-3.72-1.08l-1.54.62c-.37.15-.78.07-1.07-.21a.98.98 0 0 1-.24-1.06l.6-1.62C1.05 10.07.75 8.2 1.18 6.34a6.94 6.94 0 0 1 5.23-5.16c2.39-.53 4.84.17 6.54 1.87s2.4 4.15 1.88 6.54Zm-2.58-5.83C10.78 2.3 8.68 1.7 6.62 2.16c-2.17.48-3.96 2.25-4.46 4.41-.39 1.67-.09 3.36.83 4.75.09.13.11.3.05.45l-.69 1.85 1.78-.72c.06-.02.12-.04.19-.04.1 0 .2.03.28.09 1.4.96 3.1 1.27 4.79.89 1.94-.44 4.02-2.53 4.45-4.47.45-2.06-.15-4.16-1.61-5.62Z" style="fill: #ffffff;"/></svg>
