<?xml version="1.0" encoding="UTF-8"?>
<svg xmlns="http://www.w3.org/2000/svg" viewBox="0 0 16 16"><path fill="none" d="M0 0H16V16H0z" data-name="Transparante laag"/><path d="M13 1H8C4.14 1 1 4.14 1 8v5c0 .55.23 1.05.59 1.42h.01c.36.35.85.57 1.4.57h5c3.86 0 7-3.14 7-7V3c0-1.1-.9-2-2-2m1 7c0 3.31-2.69 6-6 6H3c-.08 0-.16-.03-.23-.05L7.72 9h1.79c.28 0 .5-.22.5-.5s-.22-.5-.5-.5h-.79l1.14-1.15c.2-.2.2-.51 0-.71a.513.513 0 0 0-.71 0L7.16 8.13l-.02.02L6 9.29v-2.8c0-.28-.22-.5-.5-.5s-.5.22-.5.5v3.8l-2.95 2.95c-.02-.08-.05-.16-.05-.25v-5c0-3.31 2.69-6 6-6h5c.55 0 1 .45 1 1v5Z"/></svg>
