<?xml version="1.0" encoding="UTF-8"?>
<svg xmlns="http://www.w3.org/2000/svg" viewBox="0 0 16 16"><path fill="none" d="M0 0H16V16H0z" data-name="Transparante laag"/><path fill-rule="evenodd" d="M7.56 2.14C5.87 4.23 4.94 6.47 5.47 9.19c.63-.18 1.24-.35 1.86-.53.19.61.24 1.22.21 1.84-.06 1.12-.34 2.18-.94 3.14-.41.67-.63.77-1.38.56-1.54-.42-2.59-1.42-3.3-2.82-.15-.29-.28-.58-.42-.9.49-.15.97-.29 1.45-.43-.34-1.89-.27-3.71.9-5.33.92-1.27 2.22-2 3.71-2.59Zm6.94 3.28c-.43-.7-.79-1.37-1.23-1.98-.75-1.04-1.79-1.6-3.07-1.74-.28-.03-.46.06-.63.27-.68.82-1 1.78-1.14 2.82-.1.82-.08 1.64.13 2.5.52-.15.99-.3 1.47-.43.42-.12.43-.12.48.32.31 2.44-.43 4.55-2 6.39-.03.04-.05.09-.11.21 1.39-.49 2.56-1.19 3.45-2.29 1.34-1.66 1.53-3.55 1.08-5.58.5-.16.99-.31 1.56-.48Z" style="fill: #ffffff;"/></svg>
