<?xml version="1.0" encoding="UTF-8"?>
<svg xmlns="http://www.w3.org/2000/svg" viewBox="0 0 16 16"><path fill="none" d="M0 0H16V16H0z" data-name="Transparante laag"/><path d="M8.01 1c1.92 0 3.57.68 4.93 2.05 1.37 1.37 2.05 3.02 2.05 4.96s-.68 3.57-2.05 4.93c-1.37 1.37-3.01 2.05-4.93 2.05s-3.59-.68-4.96-2.05S1 9.93 1 8.01s.68-3.57 2.04-4.93C4.4 1.71 6.04 1.02 7.96 1h.06ZM2.83 7.04c-.15.09-.18.22-.11.39-.07-.09-.16-.09-.25 0q-.135.105 0 .39c-.09-.06-.17-.06-.22 0q-.165.195.06.42.165.225.36.03.03-.165-.06-.3c.11.11.2.14.28.08q.09-.09-.03-.33c.07.07.17.1.28.08.07-.02.11-.1.11-.24s-.03-.24-.08-.32c-.06-.15-.14-.22-.25-.22-.04 0-.06 0-.08.03Zm.39 1.11c-.48.33-.66.77-.53 1.3q.06.225.24.57c.12.23.23.43.32.6l.14.25c.76 1.11 1.28 1.66 1.58 1.66.39-.02.54-.22.47-.61q0-.135-.12-.3c-.12-.165-.19-.18-.32-.19-.54-.11-.84-.21-.91-.3-.33-.37-.46-.71-.39-1.03.02-.09.15-.37.4-.82s.33-.76.24-.93c-.15-.26-.34-.39-.58-.39h-.03c-.11 0-.28.06-.5.19Zm.15-1.59c-.06.08-.09.19-.07.32.13.54.29.8.47.8.17 0 .25-.22.25-.67 0-.39-.14-.58-.42-.58q-.135 0-.24.12Zm1.79 2.45c-.09.2-.07.36.06.47.06.04.13.04.22 0-.04.2 0 .35.14.44.13.06.22.04.28-.06 0 .2.06.32.17.36q.135.06.24-.03c.06-.06.1-.11.11-.17 0-.06.02-.13.04-.22.04-.09.04-.21.01-.36s-.08-.23-.15-.25c-.09-.04-.18 0-.28.14 0-.17-.03-.28-.08-.33-.09-.06-.18-.02-.28.11 0-.2-.03-.32-.08-.36h-.08c-.13 0-.23.08-.3.25ZM7.04 3.5c-.15 0-.3.08-.44.25-.28.31-.55.89-.8 1.72-.48 1.52-.63 2.41-.44 2.69.33.54.75.8 1.25.8.54-.04.8-.26.8-.67 0-.13-.03-.26-.08-.39s-.12-.23-.18-.29-.15-.15-.25-.26-.16-.18-.18-.19c-.37-.5-.45-.99-.25-1.47.17-.35.37-.61.61-.78q.36-.255.42-.36.225-.42.06-.75c-.165-.33-.28-.32-.5-.3Zm-.37 6.08c-.06.25-.09.45-.07.6s.06.27.14.36c.07.09.18.13.3.11.26 0 .39-.19.39-.58 0-.13-.06-.31-.19-.54s-.23-.35-.3-.35h-.03c-.09.02-.17.15-.24.4M8.93 3.5c-.2.02-.35.13-.44.35-.09.21-.07.45.06.71.04.07.17.19.4.36q.345.255.6.78c.22.54.14 1.03-.25 1.47-.02.02-.1.1-.24.25s-.25.29-.33.43-.12.29-.12.46c0 .41.27.63.8.67.5 0 .91-.27 1.25-.8.18-.28.04-1.17-.44-2.69-.22-.78-.49-1.35-.8-1.72a.53.53 0 0 0-.47-.25Zm-.15 6.04c-.12.22-.18.4-.18.53-.04.39.08.58.36.58.13.02.24-.02.32-.12s.12-.22.12-.35c.02-.15 0-.35-.07-.61q-.09-.39-.24-.39h-.03c-.07.02-.17.14-.29.36Zm1.73-.78h-.06q-.105.09-.06.36c-.09-.13-.18-.17-.28-.11-.07.06-.11.17-.11.33-.07-.15-.16-.19-.25-.14-.17.06-.22.26-.17.61.02.13.06.24.11.35s.15.12.28.07c.13-.04.19-.16.19-.36.06.09.14.11.25.06.15-.11.19-.26.14-.44.09.04.17.04.22 0 .15-.11.18-.27.08-.47-.09-.17-.2-.25-.33-.25l-.03-.03v.03Zm1.19-.41q-.135.255.24.93c.375.675.38.73.4.82.06.31-.08.66-.42 1.03-.07.09-.38.19-.91.3-.13.02-.24.08-.32.19s-.12.21-.12.3c0 .39.16.59.47.61.35 0 .88-.55 1.58-1.66l.14-.25c.09-.15.2-.34.32-.58s.2-.43.24-.58c.13-.55-.05-.99-.53-1.3a.94.94 0 0 0-.55-.19c-.26.04-.43.17-.53.39Zm.28-1.33c0 .44.08.67.25.67.07 0 .16-.09.26-.28.1-.18.17-.36.21-.53.02-.13 0-.24-.07-.32a.28.28 0 0 0-.24-.12h-.03c-.24 0-.37.19-.39.58Zm.86.22c-.04.07-.05.18-.04.32 0 .14.04.22.1.24.07.04.16 0 .25-.08q-.105.255-.03.33c.07.06.17.03.28-.08q-.105.165-.03.3.135.195.36-.03c.11-.17.12-.3.03-.42-.06-.06-.13-.06-.22 0q.165-.255.03-.39c-.09-.09-.18-.09-.25 0 .04-.18 0-.31-.14-.39q-.03-.03-.06-.03h-.06c-.09 0-.17.07-.22.22Z" style="fill: #ffffff;"/></svg>
