<?xml version="1.0" encoding="UTF-8"?>
<svg xmlns="http://www.w3.org/2000/svg" viewBox="0 0 16 16"><path fill="none" d="M0 0H16V16H0z" data-name="Transparante laag"/><path d="M8.01 1c1.92 0 3.57.68 4.93 2.05 1.37 1.37 2.05 3.02 2.05 4.96s-.68 3.57-2.05 4.93c-1.37 1.37-3.01 2.05-4.93 2.05s-3.59-.68-4.96-2.05S1 9.93 1 8.01s.68-3.57 2.04-4.93C4.4 1.71 6.04 1.02 7.96 1h.06ZM6.02 2.8c-.11.26-.12.54-.04.83s.21.62.37.98.25.56.25.6-.06.1-.19.18-.28.18-.46.3-.3.24-.37.35c-.17.24-.23.67-.19 1.28l-.17.03c-.11.04-.22.06-.33.07s-.19 0-.25-.04c-.02-.02.01-.36.1-1.01s.06-1.09-.07-1.29c-.18-.24-.43-.35-.75-.32-.31.03-.55.16-.72.4-.11.18 0 .6.32 1.23.32.64.49.99.49 1.07 0 .11-.03.2-.1.28-.06.07-.14.13-.24.17-.09.04-.19.1-.29.19q-.15.135-.24.36c-.26.89-.11 1.81.44 2.77.37.68.85 1.24 1.43 1.68s1.43.67 2.54.71c.44-1.26.61-2.19.5-2.8-.04-.28-.1-.53-.18-.76s-.14-.41-.18-.53a.6.6 0 0 1-.03-.32c.02-.11.06-.21.14-.3.07-.09.14-.17.19-.24s.07-.11.06-.12c0-.02-.25-.18-.76-.47-.51-.3-.77-.61-.79-.94-.02-.18.07-.39.26-.61s.39-.34.6-.36c.13 0 .23.05.3.14.17.18.31.43.44.73s.23.56.29.78c.06.21.12.33.15.35l.44-.06c.3-.04.51.04.64.22.46.46.67 1.25.64 2.36-.04.65-.23 1.57-.58 2.77.52-.11.97-.28 1.34-.51q.57-.345.78-.6c.21-.255.37-.48.71-.94q1.14-1.53.69-2.52c-.06-.15-.2-.29-.44-.42s-.37-.22-.39-.28.13-.43.44-1.12.43-1.14.33-1.34c-.11-.24-.32-.37-.64-.37-.31 0-.57.08-.78.26-.15.2-.21.45-.19.73.02.29.06.62.12 1s.09.6.07.65c-.04.13-.21.2-.53.22l.03-.22c0-.15-.03-.34-.1-.57-.06-.23-.17-.44-.32-.62-.07-.09-.21-.19-.42-.29-.2-.1-.31-.23-.33-.37-.02-.09.12-.45.4-1.07.29-.62.39-1.06.32-1.32-.09-.33-.37-.52-.82-.57s-.73.04-.85.26c-.09.26-.12.55-.07.86s.12.67.21 1.05c.09.39.14.61.14.67q-.06.225-.75.33l-.28-.55c-.07-.09-.25-.19-.51-.29-.27-.1-.44-.19-.51-.26-.06-.07 0-.43.18-1.05.18-.63.21-1.06.1-1.3-.15-.28-.43-.42-.83-.42h-.03q-.495 0-.75.33Zm1.97 10.81h.19c.39-.04.72-.06 1-.08q.255-1.89-.03-1.89h-.03c-.13.02-.51.67-1.14 1.97Z"/></svg>
