<?xml version="1.0" encoding="UTF-8"?>
<svg xmlns="http://www.w3.org/2000/svg" viewBox="0 0 16 16"><path fill="none" d="M0 0H16V16H0z" data-name="Transparante laag"/><path d="M15 3.5v7a2.5 2.5 0 0 1-2.5 2.5c-.28 0-.5-.22-.5-.5s.22-.5.5-.5c.83 0 1.5-.67 1.5-1.5v-7c0-.83-.67-1.5-1.5-1.5h-9C2.67 2 2 2.67 2 3.5v7c0 .83.67 1.5 1.5 1.5.28 0 .5.22.5.5s-.22.5-.5.5A2.5 2.5 0 0 1 1 10.5v-7A2.5 2.5 0 0 1 3.5 1h9A2.5 2.5 0 0 1 15 3.5m-3.26 9.94c.26.27.33.66.19 1s-.47.56-.83.56H4.91c-.36 0-.69-.22-.83-.56a.905.905 0 0 1 .19-1l3.09-3.17c.34-.35.95-.35 1.29 0zm-.85.56L8 11.04 5.11 14h5.77Z" style="fill: #ffffff;"/></svg>
