<?xml version="1.0" encoding="UTF-8"?>
<svg xmlns="http://www.w3.org/2000/svg" viewBox="0 0 16 16"><path fill="none" d="M0 0H16V16H0z" data-name="Transparante laag"/><path d="M14.5 12H14V7c0-1.1-.9-2-2-2h-1.27c.21-.49.27-.9.28-.94a.502.502 0 0 0-.42-.57c-1.8-.25-2.9.23-3.57.82V1.48c0-.28-.23-.5-.5-.5s-.5.22-.5.5v.71c-.25-.23-.53-.41-.84-.49-1.09-.31-2.1.43-2.14.47-.22.16-.27.48-.1.7.83 1.11 1.74 1.44 2.47 1.44.22 0 .42-.03.61-.08V5H4c-1.1 0-2 .9-2 2v5h-.5c-.28 0-.5.22-.5.5v.5c0 1.1.9 2 2 2h10c1.1 0 2-.9 2-2v-.5c0-.28-.22-.5-.5-.5M4.13 2.72c.23-.09.51-.14.78-.06.28.08.52.29.73.63-.36.07-.9.02-1.51-.57M12 6c.55 0 1 .45 1 1v5H9.53l.48-2.41c.03-.15-.01-.3-.11-.42a.5.5 0 0 0-.38-.18h-2.5V6.68c.38.11.75.18 1.09.18.49 0 .93-.11 1.33-.33.26-.15.48-.33.66-.53zm-3.59 6.5-.2 1-.1.49H5.93l-.2-.99-.2-1-.4-2.01h3.78L8.51 12zm1.47-8.07a3.2 3.2 0 0 1-.27.57c-.16.25-.37.5-.66.66-.47.26-1.07.27-1.79.04.11-.21.3-.47.59-.7.43-.35 1.1-.62 2.13-.57M3 7c0-.55.45-1 1-1h2.02v2.99h-1.5c-.15 0-.29.07-.39.18-.09.12-.13.27-.1.42L4.51 12H3zm0 7c-.55 0-1-.45-1-1h2.71l.2 1zm10 0H9.13l.2-1H14c0 .55-.45 1-1 1" style="fill: #ffffff;"/></svg>
