<?xml version="1.0" encoding="UTF-8"?>
<svg xmlns="http://www.w3.org/2000/svg" viewBox="0 0 16 16"><path fill="none" d="M0 0H16V16H0z" data-name="Transparante laag"/><path d="M8 1C4.14 1 1 4.14 1 8s3.14 7 7 7 7-3.14 7-7-3.14-7-7-7m0 13c-3.31 0-6-2.69-6-6s2.69-6 6-6 6 2.69 6 6-2.69 6-6 6M6 6.25c.41 0 .75-.34.75-.75s-.34-.75-.75-.75-.75.34-.75.75.34.75.75.75m4-1.5c-.41 0-.75.34-.75.75s.34.75.75.75.75-.34.75-.75-.34-.75-.75-.75M9 7v1.5c0 .28-.22.5-.5.5H7c-.28 0-.5-.22-.5-.5S6.72 8 7 8h1V7c0-.28.22-.5.5-.5s.5.22.5.5m-1.89 4.25c0 .28-.22.5-.5.5-1.1 0-2-.9-2-2 0-.28.22-.5.5-.5s.5.22.5.5c0 .55.45 1 1 1 .28 0 .5.22.5.5" style="fill: #ffffff;"/></svg>
