<?xml version="1.0" encoding="UTF-8"?>
<svg xmlns="http://www.w3.org/2000/svg" viewBox="0 0 16 16"><path fill="none" d="M0 0H16V16H0z" data-name="Transparante laag"/><path d="M12 11H9c-.28 0-.5-.22-.5-.5s.22-.5.5-.5h3c1.1 0 2-.9 2-2 0-.63-.29-1.22-.8-1.6a.507.507 0 0 1-.1-.7c.17-.22.48-.26.7-.1.76.57 1.2 1.45 1.2 2.4 0 1.65-1.35 3-3 3m2.85-9.85c-.2-.2-.51-.2-.71 0L9.73 5.56C9.23 5.2 8.63 5 8 5H4C2.35 5 1 6.35 1 8c0 .95.44 1.83 1.2 2.4.09.07.2.1.3.1.15 0 .3-.07.4-.2.17-.22.12-.53-.1-.7C2.29 9.22 2 8.64 2 8c0-1.1.9-2 2-2h4c.36 0 .71.1 1.01.28l-7.86 7.87c-.2.2-.2.51 0 .71a.485.485 0 0 0 .7 0l13-13.01c.2-.2.2-.51 0-.71Z" style="fill: #ffffff;"/></svg>
