<?xml version="1.0" encoding="UTF-8"?>
<svg xmlns="http://www.w3.org/2000/svg" viewBox="0 0 16 16"><path fill="none" d="M0 0H16V16H0z" data-name="Transparante laag"/><path d="M8.01 1c1.92 0 3.57.68 4.93 2.05 1.37 1.37 2.05 3.02 2.05 4.96s-.68 3.57-2.05 4.93c-1.37 1.37-3.01 2.05-4.93 2.05s-3.59-.68-4.96-2.05S1 9.93 1 8.01s.68-3.57 2.04-4.93C4.4 1.71 6.04 1.02 7.96 1h.06Zm.78 4.8s-.19.03-.53.1-.64.13-.91.21-.44.13-.5.17c-.06.06-.15.34-.28.86s-.23.8-.3.86c-.06.04-.36-.17-.91-.61s-.93-.64-1.14-.58c-.17.06-.34.49-.53 1.29-.18.8-.38 1.23-.58 1.29-.57.2-.75.56-.53 1.08.17.28.37.41.62.39s.47-.12.65-.3c.13-.15.25-.43.36-.85s.2-.8.28-1.15c.07-.35.14-.54.19-.55s.34.16.85.54.86.52 1.07.43c.13-.06.26-.43.39-1.12s.2-1.06.22-1.1c.02-.02.12-.07.32-.15s.43-.18.71-.28.47-.18.58-.24c.13-.04.19-.09.19-.17s-.06-.11-.17-.11h-.06ZM5.27 3.36c-.68.06-1.12.25-1.3.58-.06.11-.05.26.01.46.06.19.17.29.32.29.09 0 .27-.1.54-.29q.405-.285.57-.24c.09.04.21.25.36.65s.28.61.39.65.32-.09.64-.39c.31-.3.5-.44.55-.44.07 0 .24.07.5.22l.39.22s.07.03.11.03c.13-.04.07-.17-.17-.39-.37-.43-.65-.64-.83-.64-.07 0-.23.09-.47.26-.24.18-.38.26-.42.26s-.06 0-.08-.01c-.02 0-.04-.03-.07-.07s-.05-.07-.06-.11c0-.04-.03-.08-.07-.14a.7.7 0 0 1-.08-.17l-.06-.17c-.04-.11-.07-.19-.1-.24s-.07-.1-.12-.17-.12-.11-.19-.14a.8.8 0 0 0-.28-.04h-.08Zm4.6.94c1.15.24 1.72.85 1.72 1.83q-.03.495-.36.96c-.33.465-.47.45-.75.43q-.255-.03-.54-.24c-.285-.21-.35-.27-.46-.4s-.17-.21-.17-.25c-.13.39-.09.72.12 1s.31.44.29.5c-.06.17-.23.27-.53.32s-.47.1-.53.15c-.24.17-.43.5-.57 1s-.16 1.13-.07 1.89c.07.54.16 1 .26 1.4s.21.69.32.87.22.26.33.22c.07-.04.12-.44.12-1.22s.09-1.18.24-1.22c.07-.02.18.07.32.26s.27.42.4.67.26.47.39.67q.195.285.3.24c.09-.11.12-.3.08-.55-.04-.26-.08-.59-.14-1s-.07-.67-.06-.8c.04-.24.15-.57.33-.98.18-.42.26-.68.22-.79s-.14-.24-.32-.39-.25-.28-.24-.39c0-.09.06-.18.17-.26s.25-.18.42-.3.3-.24.39-.35q.42-.465.72-1.08c.2-.41.34-.87.4-1.39s-.09-.93-.46-1.25c-.28-.28-.6-.42-.97-.42h-.03c-.68.04-1.15.33-1.39.89Z" style="fill: #ffffff;"/></svg>
