<?xml version="1.0" encoding="UTF-8"?>
<svg xmlns="http://www.w3.org/2000/svg" viewBox="0 0 16 16"><path fill="none" d="M0 0H16V16H0z" data-name="Transparante laag"/><path d="M9.56 7.08 7.91 5.76c-.36-.28-.83-.34-1.24-.14S6 6.23 6 6.69v2.63a1.185 1.185 0 0 0 1.18 1.19c.26 0 .51-.09.73-.26l1.65-1.32c.28-.22.44-.56.44-.92s-.16-.7-.44-.92Zm-.63 1.06L7.28 9.46A.174.174 0 0 1 7 9.31V6.68c0-.1.06-.15.1-.17.02 0 .05-.02.08-.02s.07 0 .1.04l1.65 1.32c.06.05.07.11.07.14s0 .1-.07.14Zm6.32-3.18a2.515 2.515 0 0 0-2.2-2.15c-1.3-.14-3.24-.32-5.05-.32-2.2 0-3.97.16-5.07.29-1.12.13-2.01 1-2.17 2.11C.59 6.09.5 7.13.5 7.99c0 1.08.14 2.28.26 3.1a2.48 2.48 0 0 0 2.17 2.11c1.09.13 2.86.28 5.07.28s3.98-.15 5.07-.28c1.12-.13 2.01-1 2.17-2.11.12-.82.26-2.03.26-3.1 0-.84-.08-1.86-.25-3.04Zm-1 6c-.1.66-.63 1.18-1.3 1.26-1.07.13-2.79.28-4.95.28s-3.89-.15-4.95-.28c-.67-.08-1.2-.6-1.3-1.26-.11-.79-.25-1.94-.25-2.96s.14-2.17.25-2.96c.1-.66.63-1.18 1.3-1.26C4.12 3.65 5.85 3.5 8 3.5c1.77 0 3.66.17 4.94.31.68.08 1.22.61 1.32 1.29.16 1.11.24 2.11.24 2.9 0 1.02-.14 2.17-.25 2.96" style="fill: #ffffff;"/></svg>
