<?xml version="1.0" encoding="UTF-8"?>
<svg xmlns="http://www.w3.org/2000/svg" viewBox="0 0 16 16"><path fill="none" d="M0 0H16V16H0z" data-name="Transparante laag"/><path d="M10.43 7.14H9.17V5.12h1.26zM9.17 10.9h1.28V8.6H9.17zM15 8c0 3.87-3.13 7-7 7s-7-3.13-7-7 3.13-7 7-7 7 3.13 7 7M6.19 3.63H5.02c-.1 0-.21 0-.31.05l-1.34.47v.86h1.1v7.36h1.72zm5.95 1.12c0-.12-.05-.24-.13-.32l-.65-.66a.39.39 0 0 0-.32-.13H8.53c-.12 0-.24.04-.32.13l-.63.68c-.08.08-.13.19-.13.31v2.2c0 .12.04.24.13.32l.61.6-.61.6a.39.39 0 0 0-.13.32v2.49c0 .12.04.24.13.32l.65.63c.09.08.2.13.32.13h2.49c.12 0 .24-.04.32-.13l.65-.65c.09-.08.14-.2.13-.32V8.78c0-.12-.04-.24-.13-.32l-.61-.6.61-.6c.09-.08.14-.2.13-.32V4.76Z" style="fill: #ffffff;"/></svg>
