<?xml version="1.0" encoding="UTF-8"?>
<svg xmlns="http://www.w3.org/2000/svg" viewBox="0 0 16 16"><path fill="none" d="M0 0H16V16H0z" data-name="Transparante laag"/><path d="M11 14.5c0 .28-.22.5-.5.5h-6A2.5 2.5 0 0 1 2 12.5v-9A2.5 2.5 0 0 1 4.5 1h6c.28 0 .5.22.5.5s-.22.5-.5.5h-6C3.67 2 3 2.67 3 3.5v9c0 .83.67 1.5 1.5 1.5h6c.28 0 .5.22.5.5m2.75-7.09-2.84-2.77a.513.513 0 0 0-.71 0c-.19.2-.19.51 0 .71l2.2 2.14H7.49c-.28 0-.5.22-.5.5s.22.5.5.5h4.91l-2.2 2.14c-.2.19-.2.51 0 .71a.51.51 0 0 0 .71.01l2.84-2.77c.16-.16.25-.37.25-.59s-.09-.44-.25-.59Z"/></svg>
