<?xml version="1.0" encoding="UTF-8"?>
<svg xmlns="http://www.w3.org/2000/svg" viewBox="0 0 16 16"><path fill="none" d="M0 0H16V16H0z" data-name="Transparante laag"/><path d="M8 12c-.24 0-2.33-.04-2.95-1.28a.505.505 0 0 1 .22-.67c.25-.12.55-.02.67.22.27.55 1.5.72 2.05.72.44 0 1.75-.14 2.06-.73.13-.25.43-.34.67-.22.25.13.34.43.22.67-.64 1.24-2.71 1.27-2.94 1.27ZM1.5 6c.28 0 .5-.22.5-.5v-2C2 2.67 2.68 2 3.51 2H5.5c.28 0 .5-.22.5-.5S5.78 1 5.5 1H3.51A2.51 2.51 0 0 0 1 3.5v2c0 .28.22.5.5.5m11-5h-2c-.28 0-.5.22-.5.5s.22.5.5.5h2c.83 0 1.5.68 1.5 1.51V5.5c0 .28.22.5.5.5s.5-.22.5-.5V3.51A2.51 2.51 0 0 0 12.5 1m2 9c-.28 0-.5.22-.5.5v2c0 .83-.68 1.5-1.51 1.5H10.5c-.28 0-.5.22-.5.5s.22.5.5.5h1.99A2.51 2.51 0 0 0 15 12.5v-2c0-.28-.22-.5-.5-.5m-9 4h-2c-.83 0-1.5-.68-1.5-1.51V10.5c0-.28-.22-.5-.5-.5s-.5.22-.5.5v1.99A2.51 2.51 0 0 0 3.5 15h2c.28 0 .5-.22.5-.5s-.22-.5-.5-.5m0-9.5c-.28 0-.5.22-.5.5v1c0 .28.22.5.5.5S6 6.28 6 6V5c0-.28-.22-.5-.5-.5m5 2c.28 0 .5-.22.5-.5V5c0-.28-.22-.5-.5-.5s-.5.22-.5.5v1c0 .28.22.5.5.5M7 9c.6 0 1.5-.4 1.5-1.5V5c0-.28-.22-.5-.5-.5s-.5.22-.5.5v2.5c0 .4-.27.49-.5.5-.28 0-.5.22-.5.5s.22.5.5.5" style="fill: #ffffff;"/></svg>
