<?xml version="1.0" encoding="UTF-8"?>
<svg xmlns="http://www.w3.org/2000/svg" viewBox="0 0 16 16"><path fill="none" d="M0 0H16V16H0z" data-name="Transparante laag"/><path d="M15 8c0 1.65-1.35 3-3 3H8c-1.65 0-3-1.35-3-3 0-.28.22-.5.5-.5s.5.22.5.5c0 1.1.9 2 2 2h4c1.1 0 2-.9 2-2s-.9-2-2-2c-.28 0-.5-.22-.5-.5s.22-.5.5-.5c1.65 0 3 1.35 3 3M4 10c-1.1 0-2-.9-2-2s.9-2 2-2h4c1.1 0 2 .9 2 2 0 .28.22.5.5.5s.5-.22.5-.5c0-1.65-1.35-3-3-3H4C2.35 5 1 6.35 1 8s1.35 3 3 3c.28 0 .5-.22.5-.5S4.28 10 4 10" style="fill: #ffffff;"/></svg>
