<?xml version="1.0" encoding="UTF-8"?>
<svg xmlns="http://www.w3.org/2000/svg" viewBox="0 0 16 16"><path fill="none" d="M0 0H16V16H0z" data-name="Transparante laag"/><path d="M8.01 1c1.92 0 3.57.68 4.93 2.05 1.37 1.37 2.05 3.01 2.05 4.93s-.68 3.59-2.05 4.96-3.01 2.05-4.93 2.05-3.59-.68-4.96-2.05S1 9.92 1 7.98s.68-3.56 2.04-4.92 3-2.04 4.92-2.06h.06Zm-2.3 3.58v6.9l.83.86h2.88l.86-.86V8.07l-.91-.89h-1.5l-.47.47v-2.5h1.22v1.11h1.66V4.57l-.86-.86H6.54l-.83.86ZM8.62 8.6v2.3H7.4V8.6z" style="fill: #ffffff;"/></svg>
