<?xml version="1.0" encoding="UTF-8"?>
<svg xmlns="http://www.w3.org/2000/svg" viewBox="0 0 16 16"><path fill="none" d="M0 0H16V16H0z" data-name="Transparante laag"/><path d="M12.5 1h-9A2.5 2.5 0 0 0 1 3.5v9A2.5 2.5 0 0 0 3.5 15h3.8c.06.03.13.04.2.04s.14-.01.2-.04h4.8a2.5 2.5 0 0 0 2.5-2.5v-9A2.5 2.5 0 0 0 12.5 1M14 12.5c0 .83-.67 1.5-1.5 1.5H8V9h1.5c.28 0 .5-.22.5-.5S9.78 8 9.5 8H8V6c0-.55.45-1 1-1h.5c.28 0 .5-.22.5-.5S9.78 4 9.5 4H9c-1.1 0-2 .9-2 2v2H5.5c-.28 0-.5.22-.5.5s.22.5.5.5H7v5H3.5c-.83 0-1.5-.67-1.5-1.5v-9C2 2.67 2.67 2 3.5 2h9c.83 0 1.5.67 1.5 1.5z" style="fill: #ffffff;"/></svg>
