<?xml version="1.0" encoding="UTF-8"?>
<svg xmlns="http://www.w3.org/2000/svg" viewBox="0 0 16 16"><path fill="none" d="M0 0H16V16H0z" data-name="Transparante laag"/><path d="M12.5 1h-9A2.5 2.5 0 0 0 1 3.5v9A2.5 2.5 0 0 0 3.5 15h9a2.5 2.5 0 0 0 2.5-2.5v-9A2.5 2.5 0 0 0 12.5 1M14 12.5c0 .83-.67 1.5-1.5 1.5h-9c-.83 0-1.5-.67-1.5-1.5v-9C2 2.67 2.67 2 3.5 2h9c.83 0 1.5.67 1.5 1.5zm-9-6v5c0 .28-.22.5-.5.5s-.5-.22-.5-.5v-5c0-.28.22-.5.5-.5s.5.22.5.5m0-2c0 .28-.23.5-.5.5S4 4.77 4 4.5s.23-.5.5-.5.5.23.5.5m7 4v3c0 .28-.22.5-.5.5s-.5-.22-.5-.5v-3c0-.83-.67-1.5-1.5-1.5S8 7.67 8 8.5v3c0 .28-.22.5-.5.5s-.5-.22-.5-.5v-5c0-.28.22-.5.5-.5s.5.22.5.5c.42-.3.94-.5 1.5-.5A2.5 2.5 0 0 1 12 8.5" style="fill: #ffffff;"/></svg>
