<?xml version="1.0" encoding="UTF-8"?>
<svg xmlns="http://www.w3.org/2000/svg" viewBox="0 0 16 16"><path fill="none" d="M0 0H16V16H0z" data-name="Transparante laag"/><path d="M8.01 1c1.92 0 3.57.68 4.93 2.05 1.37 1.37 2.05 3.02 2.05 4.96s-.68 3.57-2.05 4.93c-1.37 1.37-3.01 2.05-4.93 2.05s-3.59-.68-4.96-2.05S1 9.93 1 8.01s.68-3.57 2.04-4.93C4.4 1.71 6.04 1.02 7.96 1h.06ZM5.8 2.61c-.18.15-.44.48-.78.98s-.53.89-.58 1.15c-.06.28 0 .74.14 1.4.15.66.3 1.07.47 1.23.09.09.34.2.73.33.4.13.77.25 1.12.37s.53.2.53.24c-.02.06-.36.05-1.01-.01q-.99-.09-1.32-.18c-.18-.06-.45-.2-.8-.43s-.56-.41-.64-.54c-.04-.07-.14-.5-.3-1.28-.17-.78-.26-1.17-.28-1.19L3 4.6s-.06.05-.11.14c-.22.44-.34.85-.36 1.22 0 .28.05.61.15.98.1.38.2.62.29.73.07.09.37.26.89.51s.86.4 1.03.46c.07.02.32.03.73.03s.81 0 1.18.03c.37.02.55.05.55.08 0 .06-.12.11-.37.17s-.55.12-.9.18-.57.11-.67.12c-.18.06-.47.21-.86.46s-.62.44-.69.57c-.09.17-.17.49-.22.96s-.05.79.03.96c.09.15.2.25.32.3.12.06.2.03.24-.08q.06-.135.21-.96t.18-.87c.04-.07.18-.21.44-.42.26-.2.47-.34.64-.42q.36-.135 1.05-.36c.46-.15.7-.19.72-.14q0 .03-.12.12c-.12.09-.19.15-.33.25s-.28.2-.43.3-.28.2-.4.3q-.18.15-.24.24c-.28.48-.4 1-.36 1.55.02.18.15.49.4.9s.44.66.57.73c.15.07.26.1.35.07s.12-.12.1-.29c-.02-.09-.12-.35-.29-.76-.18-.42-.26-.66-.26-.73-.06-.46-.03-.87.08-1.22.06-.13.22-.33.49-.61s.43-.41.49-.39c.02 0 .03.14.03.43s.04.43.11.43.14-.15.21-.44c.06-.3.12-.44.18-.44s.12.15.18.44c.06.3.13.44.21.44s.11-.14.1-.43c0-.29 0-.43.04-.43.06-.02.21.12.47.4.26.29.42.49.47.6.13.31.17.72.11 1.22 0 .07-.09.32-.28.73-.18.42-.29.67-.3.76-.02.17.01.26.1.29s.2 0 .35-.07c.13-.07.32-.32.58-.73q.39-.63.42-.9c0-.65-.13-1.16-.39-1.55-.06-.09-.21-.24-.47-.43s-.5-.37-.72-.53-.33-.24-.33-.26c.02-.06.26 0 .72.14q.69.225 1.05.36c.17.07.38.21.64.42.26.2.41.34.44.42.04.04.11.33.21.89.1.55.16.87.18.94s.06.11.14.11.15-.03.22-.1c.07-.06.14-.14.19-.24q.105-.255.03-.96c-.075-.705-.13-.79-.22-.96-.07-.13-.3-.32-.68-.57s-.67-.4-.87-.46c-.09-.02-.31-.06-.67-.12-.35-.06-.65-.12-.89-.18s-.36-.11-.36-.17c0-.04.18-.06.54-.08s.75-.03 1.16-.03.66 0 .73-.03c.17-.06.51-.21 1.04-.46s.83-.42.9-.51c.07-.11.16-.36.26-.73.1-.38.15-.71.15-.98 0-.33-.12-.74-.36-1.22-.04-.09-.07-.14-.11-.14l-.08.08s-.08.42-.25 1.19-.28 1.2-.33 1.28c-.07.13-.29.31-.64.54s-.62.37-.8.43c-.2.06-.64.12-1.3.18s-1 .07-1 .01q0-.06.51-.24c.34-.12.71-.24 1.11-.37s.64-.24.73-.33c.17-.17.32-.57.47-1.22s.19-1.12.14-1.41q-.09-.39-.57-1.14c-.32-.5-.58-.83-.76-1-.3-.24-.58-.36-.86-.36l-.03.03c-.09 0-.12.07-.08.22 0 .04.23.44.68 1.21s.7 1.2.73 1.29c.06.13.06.46 0 1s-.12.85-.19.94c-.02.04-.2.14-.55.32s-.7.33-1.04.47q-.51.21-.51.15c-.02-.02.08-.13.29-.33s.43-.43.64-.68.32-.44.32-.57c-.04-.54-.24-1.09-.61-1.66-.41-.57-.74-.87-1-.89h-.03c-.28.04-.6.33-.97.89-.41.57-.61 1.13-.61 1.66 0 .13.11.32.32.57s.42.48.62.68q.3.3.3.33c-.02.06-.37-.07-1.04-.37s-1.04-.49-1.1-.57c-.06-.09-.11-.41-.17-.94s-.06-.87-.03-1q.06-.165.75-1.32c.46-.77.69-1.16.69-1.18.04-.15 0-.22-.11-.22v-.03h-.03c-.31.04-.59.16-.83.36Z" style="fill: #ffffff;"/><path d="M8 5c-.28 0-.5-.23-.5-.5S7.73 4 8 4s.5.23.5.5-.23.5-.5.5m0-.5" style="fill: #ffffff;"/></svg>
