<?xml version="1.0" encoding="UTF-8"?>
<svg xmlns="http://www.w3.org/2000/svg" viewBox="0 0 16 16"><path fill="none" d="M0 0H16V16H0z" data-name="Transparante laag"/><path d="M8.5 11.98v2.52c0 .28-.22.5-.5.5s-.5-.22-.5-.5v-2.54c-2.48-.3-4.41-2.39-4.41-4.94 0-.28.22-.5.5-.5s.5.22.5.5c0 2.17 1.73 3.92 3.88 3.99H8c.03 0 .06.01.09.02 2.21 0 4-1.79 4-4 0-.28.22-.5.5-.5s.5.22.5.5c0 2.62-2.03 4.74-4.59 4.96ZM6 7V3c0-1.1.9-2 2-2s2 .9 2 2v4c0 1.1-.9 2-2 2s-2-.9-2-2m1 0c0 .55.45 1 1 1s1-.45 1-1V3c0-.55-.45-1-1-1s-1 .45-1 1z"/></svg>
