<?xml version="1.0" encoding="UTF-8"?>
<svg xmlns="http://www.w3.org/2000/svg" viewBox="0 0 16 16"><path fill="none" d="M0 0H16V16H0z" data-name="Transparante laag"/><path d="M14.11 9.23c-.52.18-1.06.27-1.61.27-2.76 0-5-2.24-5-5 0-.97.28-1.91.81-2.72.1-.15.11-.35.02-.51s-.27-.25-.45-.26C4.09 1.07 1 4.21 1 8s3.14 7 7 7a7.01 7.01 0 0 0 6.75-5.16c.05-.18 0-.37-.14-.5a.49.49 0 0 0-.5-.11M8 14c-3.31 0-6-2.69-6-6 0-2.95 2.18-5.44 5.01-5.91A6.1 6.1 0 0 0 6.5 4.5a6.005 6.005 0 0 0 6.99 5.92A6.01 6.01 0 0 1 8 14m7.01-9.49c0 .28-.22.5-.5.5H11.5a.499.499 0 0 1-.35-.85L13.31 2h-1.79c-.28 0-.5-.22-.5-.5s.22-.5.5-.5h3a.499.499 0 0 1 .35.85l-2.16 2.16h1.81c.28 0 .5.22.5.5Z" style="fill: #ffffff;"/></svg>
