<?xml version="1.0" encoding="UTF-8"?>
<svg xmlns="http://www.w3.org/2000/svg" viewBox="0 0 16 16"><path fill="none" d="M0 0H16V16H0z" data-name="Transparante laag"/><path d="M10.5 5.5c-.21 0-.39.13-.46.31C9.5 5.31 8.79 5 8 5 6.35 5 5 6.35 5 8s1.35 3 3 3c1 0 1.88-.5 2.43-1.25.54.94 1.48 1.25 2.07 1.25.86 0 2.5-.63 2.5-3 0-4.06-2.94-7-7-7S1 4.14 1 8s3.14 7 6.98 7h.17c.65 0 3.03-.11 4.49-1.6.19-.2.19-.51 0-.71a.513.513 0 0 0-.71 0c-1.35 1.38-3.88 1.29-3.93 1.29-3.31 0-6-2.69-6-6s2.69-6 6-6c3.53 0 6 2.47 6 6 0 1.92-1.35 2-1.5 2-.06 0-1.5-.02-1.5-2v-2c0-.28-.22-.5-.5-.5ZM8 10c-1.1 0-2-.9-2-2s.9-2 2-2 2 .9 2 2-.9 2-2 2" style="fill: #ffffff;"/></svg>
