<?xml version="1.0" encoding="UTF-8"?>
<svg xmlns="http://www.w3.org/2000/svg" viewBox="0 0 16 16"><path fill="none" d="M0 0H16V16H0z" data-name="Transparante laag"/><path d="M6.19 10.52c.53.29 1.14.47 1.78.49H8c.03 0 .06.01.09.02 2.21 0 4-1.79 4-4 0-.28.22-.5.5-.5s.5.22.5.5c0 2.62-2.03 4.74-4.59 4.96v2.52c0 .28-.22.5-.5.5s-.5-.22-.5-.5v-2.54a4.9 4.9 0 0 1-2.04-.71l-3.6 3.6a.485.485 0 0 1-.7 0c-.2-.2-.2-.51 0-.71l3.51-3.51A4.97 4.97 0 0 1 3.1 7.02c0-.28.22-.5.5-.5s.5.22.5.5c0 1.15.5 2.18 1.28 2.91l8.77-8.78c.2-.2.51-.2.71 0s.2.51 0 .71zM7 5.78V3c0-.55.45-1 1-1s1 .45 1 1c0 .28.22.5.5.5s.5-.22.5-.5c0-1.1-.9-2-2-2s-2 .9-2 2v2.78c0 .28.22.5.5.5s.5-.22.5-.5"/></svg>
