<?xml version="1.0" encoding="UTF-8"?>
<svg xmlns="http://www.w3.org/2000/svg" viewBox="0 0 16 16"><path fill="none" d="M0 0H16V16H0z" data-name="Transparante laag"/><path d="M5 7.25c-.41 0-.75.34-.75.75s.34.75.75.75.75-.34.75-.75-.34-.75-.75-.75m3 0c-.41 0-.75.34-.75.75s.34.75.75.75.75-.34.75-.75-.34-.75-.75-.75m4.95-4.2c-1.7-1.7-4.15-2.4-6.54-1.87a6.91 6.91 0 0 0-5.22 5.16c-.43 1.86-.13 3.73.84 5.31l-.6 1.62c-.14.38-.05.78.24 1.06s.7.36 1.07.21l1.54-.62A6.9 6.9 0 0 0 8 15q.81 0 1.62-.18c2.31-.52 4.69-2.91 5.21-5.23.53-2.39-.17-4.84-1.88-6.54m.9 6.32c-.43 1.94-2.51 4.03-4.45 4.47-1.69.38-3.39.07-4.79-.89a.47.47 0 0 0-.28-.09c-.06 0-.13.01-.19.04l-1.78.72.69-1.85a.48.48 0 0 0-.05-.45c-.92-1.39-1.22-3.08-.83-4.75.5-2.16 2.29-3.94 4.46-4.42 2.06-.46 4.16.14 5.62 1.6s2.06 3.56 1.61 5.62ZM11 7.25c-.41 0-.75.34-.75.75s.34.75.75.75.75-.34.75-.75-.34-.75-.75-.75"/></svg>
