<?xml version="1.0" encoding="UTF-8"?>
<svg xmlns="http://www.w3.org/2000/svg" viewBox="0 0 16 16"><path fill="none" d="M0 0H16V16H0z" data-name="Transparante laag"/><path d="M11.83 1h-1.67c-1.19 0-2.17.91-2.17 2.04v6.74C7.46 9.3 6.76 9 5.99 9c-1.65 0-3 1.35-3 3s1.35 3 3 3 3-1.35 3-3V5.08h2.84c1.19 0 2.16-.92 2.16-2.04S13.02 1 11.82 1ZM6 14c-1.1 0-2-.9-2-2s.9-2 2-2 2 .9 2 2-.9 2-2 2m5.83-9.92H9V3.04C9 2.47 9.52 2 10.17 2h1.67c.64 0 1.17.47 1.17 1.04s-.52 1.04-1.17 1.04Z" style="fill: #ffffff;"/></svg>
