<?xml version="1.0" encoding="UTF-8"?>
<svg xmlns="http://www.w3.org/2000/svg" viewBox="0 0 16 16"><path fill="none" d="M0 0H16V16H0z" data-name="Transparante laag"/><path d="M14.61 9.34c.13.13.19.32.14.5A7.01 7.01 0 0 1 8 15c-3.86 0-7-3.14-7-7s3.09-6.93 6.88-6.99c.2 0 .36.1.45.26s.08.36-.02.51c-.53.81-.81 1.75-.81 2.72 0 2.76 2.24 5 5 5 .54 0 1.08-.09 1.61-.27.18-.06.37-.02.5.11m-.1-5.33H12.7l2.16-2.16a.499.499 0 0 0-.35-.85h-3c-.28 0-.5.22-.5.5s.22.5.5.5h1.79l-2.16 2.16a.499.499 0 0 0 .35.85h3.01c.28 0 .5-.22.5-.5s-.22-.5-.5-.5Z"/></svg>
