<?xml version="1.0" encoding="UTF-8"?>
<svg xmlns="http://www.w3.org/2000/svg" viewBox="0 0 16 16"><path fill="none" d="M0 0H16V16H0z" data-name="Transparante laag"/><path d="M13 10c-.21 0-.41.04-.6.1L9.44 5.37c.34-.36.55-.84.55-1.37 0-1.1-.9-2-2-2s-2 .9-2 2c0 .53.21 1.01.55 1.37L3.58 10.1c-.19-.06-.39-.1-.6-.1-1.1 0-2 .9-2 2s.9 2 2 2c.93 0 1.71-.64 1.93-1.5h6.14c.22.86 1 1.5 1.93 1.5 1.1 0 2-.9 2-2s-.9-2-2-2Zm-8.55.63L7.41 5.9c.19.06.39.1.6.1s.41-.04.6-.1l2.96 4.73c-.23.24-.4.54-.48.87H4.95c-.09-.33-.25-.63-.48-.87ZM8 3c.55 0 1 .45 1 1s-.45 1-1 1-1-.45-1-1 .45-1 1-1M3 13c-.55 0-1-.45-1-1s.45-1 1-1 1 .45 1 1-.45 1-1 1m10 0c-.55 0-1-.45-1-1s.45-1 1-1 1 .45 1 1-.45 1-1 1" style="fill: #ffffff;"/></svg>
