<?xml version="1.0" encoding="UTF-8"?>
<svg xmlns="http://www.w3.org/2000/svg" viewBox="0 0 16 16"><path fill="none" d="M0 0H16V16H0z" data-name="Transparante laag"/><path d="M8 1C4.14 1 1 4.14 1 8s3.14 7 7 7 7-3.14 7-7-3.14-7-7-7m0 1c3.31 0 6 2.69 6 6 0 1.41-.49 2.71-1.32 3.74A4.49 4.49 0 0 0 8.56 9H7.45a4.5 4.5 0 0 0-4.13 2.74A6 6 0 0 1 2 8c0-3.31 2.69-6 6-6M4.1 12.55A3.49 3.49 0 0 1 7.45 10h1.11c1.57 0 2.93 1.06 3.35 2.55-1.05.9-2.41 1.45-3.9 1.45s-2.85-.55-3.9-1.45ZM11 6c0-1.65-1.35-3-3-3S5 4.35 5 6s1.35 3 3 3 3-1.35 3-3M8 8c-1.1 0-2-.9-2-2s.9-2 2-2 2 .9 2 2-.9 2-2 2" style="fill: #ffffff;"/></svg>
