<?xml version="1.0" encoding="UTF-8"?>
<svg xmlns="http://www.w3.org/2000/svg" viewBox="0 0 16 16"><path fill="none" d="M0 0H16V16H0z" data-name="Transparante laag"/><path d="M11.5 4.5C11.5 2.57 9.93 1 8 1S4.5 2.57 4.5 4.5 6.07 8 8 8s3.5-1.57 3.5-3.5M8 7a2.5 2.5 0 0 1 0-5 2.5 2.5 0 0 1 0 5m5.98 6.24-.11-.61C13.41 9.95 11.06 8 8.29 8H7.7c-2.77 0-5.12 1.95-5.58 4.63l-.11.61c-.07.43.05.88.33 1.22.29.35.72.54 1.18.54h8.94c.46 0 .88-.2 1.18-.54.29-.34.41-.78.33-1.22Zm-1.1.57c-.1.12-.25.19-.41.19H3.53c-.16 0-.31-.07-.41-.19a.46.46 0 0 1-.11-.4l.11-.61C3.5 10.6 5.43 9 7.71 9h.59c2.28 0 4.21 1.6 4.59 3.8l.11.61c.03.15-.01.29-.11.4Z" style="fill: #ffffff;"/></svg>
