<?xml version="1.0" encoding="UTF-8"?>
<svg xmlns="http://www.w3.org/2000/svg" viewBox="0 0 16 16"><path fill="none" d="M0 0H16V16H0z" data-name="Transparante laag"/><path d="M8 8a2.5 2.5 0 0 1 0-5 2.5 2.5 0 0 1 0 5m0-4c-.83 0-1.5.67-1.5 1.5S7.17 7 8 7s1.5-.67 1.5-1.5S8.83 4 8 4M3.5 8C2.67 8 2 7.33 2 6.5S2.67 5 3.5 5 5 5.67 5 6.5 4.33 8 3.5 8m0-2c-.28 0-.5.22-.5.5s.22.5.5.5.5-.22.5-.5-.22-.5-.5-.5m9 2c-.83 0-1.5-.67-1.5-1.5S11.67 5 12.5 5s1.5.67 1.5 1.5S13.33 8 12.5 8m0-2c-.28 0-.5.22-.5.5s.22.5.5.5.5-.22.5-.5-.22-.5-.5-.5M2 12.22l.42-1.33c.1-.51.56-.88 1.08-.88.28 0 .5-.22.5-.5s-.22-.5-.5-.5c-1 0-1.86.71-2.04 1.63l-.41 1.28c-.08.26.06.54.33.63a.514.514 0 0 0 .63-.33Zm12.66.32c.26-.09.4-.37.32-.63l-.41-1.22C14.37 9.71 13.51 9 12.51 9c-.28 0-.5.22-.5.5s.22.5.5.5c.52 0 .97.37 1.09.94l.43 1.28c.07.21.27.34.47.34.05 0 .11 0 .16-.03Zm-4 1.46H5.35c-.4 0-.77-.17-1.03-.48-.25-.3-.36-.7-.3-1.09l.09-.51c.29-1.69.98-3.93 3.66-3.93h.48c2.68 0 3.37 2.24 3.66 3.93l.09.51c.07.39-.04.79-.3 1.09s-.63.48-1.03.48Zm-2.9-5c-1.52 0-2.3.9-2.67 3.09L5 12.6c-.02.13.04.23.08.28s.12.12.26.12h5.31c.14 0 .22-.08.26-.12s.1-.14.08-.27l-.09-.51c-.37-2.2-1.15-3.09-2.67-3.09h-.48Z"/></svg>
