<?xml version="1.0" encoding="UTF-8"?>
<svg xmlns="http://www.w3.org/2000/svg" viewBox="0 0 16 16"><path fill="none" d="M0 0H16V16H0z" data-name="Transparante laag"/><path d="M12.5 1h-9A2.5 2.5 0 0 0 1 3.5v9A2.5 2.5 0 0 0 3.5 15h9a2.5 2.5 0 0 0 2.5-2.5v-9A2.5 2.5 0 0 0 12.5 1M14 12.5c0 .83-.67 1.5-1.5 1.5h-9c-.83 0-1.5-.67-1.5-1.5v-9C2 2.67 2.67 2 3.5 2h9c.83 0 1.5.67 1.5 1.5zm-3.62-5.78-2.75-2.2c-.49-.39-1.15-.47-1.71-.19-.57.27-.92.84-.92 1.48v4.39a1.63 1.63 0 0 0 1.62 1.64c.36 0 .71-.12 1-.36l2.75-2.2c.39-.31.62-.78.62-1.28s-.22-.97-.62-1.28ZM9.76 8.5l-2.75 2.2c-.19.15-.43.18-.65.07A.63.63 0 0 1 6 10.2V5.81c0-.25.13-.47.36-.57a.7.7 0 0 1 .27-.06c.13 0 .27.05.38.14l2.75 2.2c.15.12.24.3.24.5s-.09.38-.24.5Z" style="fill: #ffffff;"/></svg>
