<?xml version="1.0" encoding="UTF-8"?>
<svg xmlns="http://www.w3.org/2000/svg" viewBox="0 0 16 16"><path fill="none" d="M0 0H16V16H0z" data-name="Transparante laag"/><path d="M12.91 14.95c-.11 0-.22 0-.33-.03-8.84-1.42-11-8.5-11.51-11.47-.11-.62.06-1.25.47-1.73.41-.49 1.01-.77 1.65-.77h.79c.63 0 1.17.45 1.3 1.07l.58 2.92c.11.53-.12 1.06-.56 1.36L3.45 7.53c.97 1.88 2.52 3.76 5 5.04L9.7 10.7c.3-.45.83-.67 1.36-.56l2.92.58c.62.12 1.06.67 1.06 1.3v.78c0 .64-.28 1.24-.76 1.65-.38.33-.87.5-1.36.5Zm-3.55-1.96c.99.41 2.11.74 3.38.94.32.05.63-.04.88-.25.26-.22.41-.55.41-.89v-.78c0-.15-.11-.29-.26-.32l-2.92-.58a.31.31 0 0 0-.33.14zM3.18 1.95c-.34 0-.66.15-.88.41-.21.26-.31.59-.25.92.17.96.46 2.13.97 3.33l1.72-1.15c.11-.07.16-.2.14-.33L4.3 2.21a.32.32 0 0 0-.32-.26h-.79Zm11.21-.36c-.2-.2-.51-.2-.71 0l-3.15 3.15V2.95c0-.28-.22-.5-.5-.5s-.5.22-.5.5v3a.51.51 0 0 0 .5.5h3c.28 0 .5-.22.5-.5s-.22-.5-.5-.5h-1.79l3.15-3.15c.2-.2.2-.51 0-.71" style="fill: #ffffff;"/></svg>
