<?xml version="1.0" encoding="UTF-8"?>
<svg xmlns="http://www.w3.org/2000/svg" viewBox="0 0 16 16"><path fill="none" d="M0 0H16V16H0z" data-name="Transparante laag"/><path d="M13.75 7H13V4c0-1.1-.9-2-2-2H5c-1.1 0-2 .9-2 2v4h-.75C1.56 8 1 8.56 1 9.25v3.5c0 .69.56 1.25 1.25 1.25h4.5l.14-.03c.05.01.09.03.14.03h6.72c.69 0 1.25-.56 1.25-1.25v-4.5C15 7.56 14.44 7 13.75 7M4 4c0-.55.45-1 1-1h6c.55 0 1 .45 1 1v3.05c-.57.12-1 .6-1 1.2v4.5c0 .09.03.17.05.25h-3.1c.02-.08.05-.16.05-.25v-3.5C8 8.56 7.44 8 6.75 8H4zm-2 8.75v-3.5c0-.14.11-.25.25-.25h4.5c.14 0 .25.11.25.25v3.5c0 .14-.11.25-.25.25h-4.5c-.14 0-.25-.11-.25-.25m12 0c0 .14-.11.25-.25.25h-1.5c-.14 0-.25-.11-.25-.25v-4.5c0-.14.11-.25.25-.25h1.5c.14 0 .25.11.25.25z" style="fill: #ffffff;"/></svg>
