<?xml version="1.0" encoding="UTF-8"?>
<svg xmlns="http://www.w3.org/2000/svg" viewBox="0 0 16 16"><path fill="none" d="M0 0H16V16H0z" data-name="Transparante laag"/><path d="M7.5 6.5v-5c0-.28.22-.5.5-.5s.5.22.5.5v5c0 .28-.22.5-.5.5s-.5-.22-.5-.5m3.73-4.71c-.24-.12-.55-.03-.67.21s-.03.55.21.67A5.99 5.99 0 0 1 14 7.99c0 3.31-2.69 6-6 6s-6-2.69-6-6c0-2.24 1.24-4.28 3.23-5.32.24-.13.34-.43.21-.67a.49.49 0 0 0-.67-.21A6.99 6.99 0 0 0 1 8c0 3.86 3.14 7 7 7s7-3.14 7-7c0-2.62-1.44-4.99-3.77-6.21" style="fill: #ffffff;"/></svg>
