<?xml version="1.0" encoding="UTF-8"?>
<svg xmlns="http://www.w3.org/2000/svg" viewBox="0 0 16 16"><path fill="none" d="M0 0H16V16H0z" data-name="Transparante laag"/><path d="M14.8 4.41c0-.67-.26-1.3-.73-1.77l-.71-.71c-.94-.94-2.59-.95-3.54 0l-.7.7-7.39 7.4c-.47.47-.73 1.1-.73 1.77v2.71c0 .28.22.5.5.5h2.71c.67 0 1.29-.26 1.77-.73l7.38-7.38.7-.7c.47-.47.73-1.1.73-1.77Zm-9.53 9.15c-.28.28-.67.44-1.06.44H2v-2.21c0-.39.16-.78.44-1.06L9.47 3.7l2.83 2.83zm8.09-8.09-.35.35-2.83-2.83.35-.35c.58-.58 1.54-.58 2.12 0l.71.71c.58.58.58 1.54 0 2.12M13 14.5c0 .28-.22.5-.5.5h-4c-.28 0-.5-.22-.5-.5s.22-.5.5-.5h4c.28 0 .5.22.5.5" style="fill: #ffffff;"/></svg>
