<?xml version="1.0" encoding="UTF-8"?>
<svg xmlns="http://www.w3.org/2000/svg" viewBox="0 0 16 16"><path fill="none" d="M0 0H16V16H0z" data-name="Transparante laag"/><path d="M10 6c0 1.1-.9 2-2 2s-2-.9-2-2 .9-2 2-2 2 .9 2 2m-6.95 6.58C3.46 10.52 5.31 9 7.45 9H8C6.35 9 5 7.65 5 6s1.35-3 3-3 3 1.35 3 3-1.35 3-3 3h.56c2.13 0 3.98 1.52 4.4 3.61l.03.29A6.97 6.97 0 0 0 15 8c0-3.86-3.14-7-7-7S1 4.14 1 8c0 1.89.76 3.6 1.98 4.86zm8.92.18C11.65 11.18 10.21 10 8.55 10H7.44c-1.66 0-3.1 1.18-3.42 2.8l-.21.79c1.17.88 2.61 1.4 4.18 1.4s2.93-.49 4.08-1.32z" style="fill: #ffffff;"/></svg>
