<?xml version="1.0" encoding="UTF-8"?>
<svg xmlns="http://www.w3.org/2000/svg" viewBox="0 0 16 16"><path fill="none" d="M0 0H16V16H0z" data-name="Transparante laag"/><path d="M12.5 1h-2.12c-.67 0-1.29.26-1.77.73L1.93 8.41c-.98.98-.98 2.56 0 3.54l2.12 2.12c.49.49 1.13.73 1.77.73s1.28-.24 1.77-.73l6.68-6.68c.47-.47.73-1.1.73-1.77V3.5A2.5 2.5 0 0 0 12.5 1M14 5.62c0 .4-.16.78-.44 1.06l-6.68 6.68c-.59.59-1.54.58-2.13 0l-2.12-2.12c-.59-.59-.59-1.54 0-2.13l6.68-6.68c.28-.28.66-.44 1.06-.44h2.12c.83 0 1.5.67 1.5 1.5v2.12Zm-2-2.37c-.41 0-.75.34-.75.75s.34.75.75.75.75-.34.75-.75-.34-.75-.75-.75" style="fill: #ffffff;"/></svg>
