<?xml version="1.0" encoding="UTF-8"?>
<svg xmlns="http://www.w3.org/2000/svg" viewBox="0 0 16 16"><path fill="none" d="M0 0H16V16H0z" data-name="Transparante laag"/><path d="m13.94 10.77-2.91-.58c-.53-.11-1.06.12-1.36.56l-1.25 1.87c-2.48-1.28-4.03-3.16-5-5.04l1.85-1.23c.45-.3.67-.83.56-1.36l-.58-2.92c-.12-.62-.67-1.06-1.3-1.06h-.79c-.64 0-1.24.28-1.65.77a2.09 2.09 0 0 0-.47 1.73c.52 2.98 2.67 10.05 11.52 11.47q.165.03.33.03c.49 0 .97-.18 1.36-.5.48-.41.76-1.01.76-1.65v-.78c0-.63-.45-1.18-1.06-1.3ZM2.02 3.33c-.06-.33.03-.66.25-.92S2.81 2 3.15 2h.79c.15 0 .29.11.32.26l.58 2.92a.31.31 0 0 1-.14.33L2.98 6.66c-.51-1.2-.8-2.37-.97-3.33ZM14 12.85c0 .34-.15.67-.41.89-.25.21-.57.3-.88.25-1.27-.2-2.39-.53-3.38-.94l1.16-1.74c.07-.11.21-.16.33-.14l2.92.58c.15.03.26.16.26.32zM8.5 1.5c0-.28.22-.5.5-.5 3.31 0 6 2.69 6 6 0 .28-.22.5-.5.5S14 7.28 14 7c0-2.76-2.24-5-5-5-.28 0-.5-.22-.5-.5m0 3c0-.28.22-.5.5-.5 1.65 0 3 1.35 3 3 0 .28-.22.5-.5.5S11 7.28 11 7c0-1.1-.9-2-2-2-.28 0-.5-.22-.5-.5" style="fill: #ffffff;"/></svg>
