<?xml version="1.0" encoding="UTF-8"?>
<svg xmlns="http://www.w3.org/2000/svg" viewBox="0 0 16 16"><path fill="none" d="M0 0H16V16H0z" data-name="Transparante laag"/><path d="m10.16 6.56.54-3.23c.1-.58-.07-1.17-.45-1.62S9.31 1 8.72 1H7.27c-.59 0-1.15.26-1.53.71s-.54 1.04-.45 1.62l.54 3.23a4.51 4.51 0 0 0-2.34 3.94c0 .28.22.5.5.5h3.5v3.52c0 .28.22.5.5.5s.5-.22.5-.5V11h3.5c.28 0 .5-.22.5-.5 0-1.65-.91-3.16-2.34-3.94ZM4.54 10c.17-1.18.94-2.21 2.06-2.7a.49.49 0 0 0 .29-.54l-.6-3.59c-.05-.29.03-.59.22-.81.19-.23.47-.35.76-.35h1.45c.3 0 .57.13.76.35.19.23.27.52.22.81l-.6 3.59c-.04.23.08.45.29.54 1.12.49 1.88 1.52 2.06 2.7H4.52Z" style="fill: #ffffff;"/></svg>
