<?xml version="1.0" encoding="UTF-8"?>
<svg xmlns="http://www.w3.org/2000/svg" viewBox="0 0 16 16"><path fill="none" d="M0 0H16V16H0z" data-name="Transparante laag"/><path d="m12.95 6.09-7.3-4.71C4.91.9 3.98.87 3.21 1.29a2.26 2.26 0 0 0-1.2 2v9.42c0 .84.45 1.59 1.2 2 .36.2.75.29 1.15.29.45 0 .9-.13 1.3-.38l7.3-4.71a2.26 2.26 0 0 0 0-3.82Zm-.54 2.98-7.3 4.71c-.44.28-.97.3-1.42.05-.43-.23-.68-.65-.68-1.12V3.29c0-.47.25-.89.68-1.12.21-.12.44-.17.67-.17.26 0 .52.08.75.22l7.3 4.71c.38.24.59.63.59 1.07s-.22.82-.59 1.07" style="fill: #ffffff;"/></svg>
