<?xml version="1.0" encoding="UTF-8"?>
<svg xmlns="http://www.w3.org/2000/svg" viewBox="0 0 16 16"><path fill="none" d="M0 0H16V16H0z" data-name="Transparante laag"/><path d="M7.18 11.5c.26 0 .51-.09.73-.26l1.65-1.32a1.18 1.18 0 0 0 0-1.84L7.91 6.76c-.35-.28-.83-.34-1.24-.14S6 7.23 6 7.69v2.64a1.185 1.185 0 0 0 1.18 1.19ZM7 7.68c0-.1.06-.15.1-.17.02 0 .05-.02.08-.02s.07 0 .1.04l1.65 1.32c.06.05.07.11.07.14s0 .1-.07.14l-1.65 1.32c-.07.05-.13.04-.18.02a.165.165 0 0 1-.1-.16V7.67ZM14 9c0 3.31-2.69 6-6 6s-6-2.69-6-6c0-.28.22-.5.5-.5s.5.22.5.5c0 2.76 2.24 5 5 5s5-2.24 5-5-2.24-5-5-5H4.25L5.4 5.15c.2.2.2.51 0 .71a.485.485 0 0 1-.7 0L2.86 4.02a.724.724 0 0 1 0-1.02L4.7 1.16c.2-.2.51-.2.71 0s.2.51 0 .71L4.26 3.02h3.75c3.31 0 6 2.69 6 6Z" style="fill: #ffffff;"/></svg>
