<?xml version="1.0" encoding="UTF-8"?>
<svg xmlns="http://www.w3.org/2000/svg" viewBox="0 0 16 16"><path fill="none" d="M0 0H16V16H0z" data-name="Transparante laag"/><path d="M14 8c0 .77-.39 1.48-1.05 1.91l-7.3 4.71c-.35.22-.75.36-1.15.38h-.03c-.26 0-.48-.2-.5-.47-.02-.28.19-.51.47-.53.24-.01.46-.09.67-.22l7.3-4.71c.38-.24.59-.63.59-1.07s-.22-.82-.59-1.07c-.23-.15-.3-.46-.15-.69s.46-.3.69-.15A2.26 2.26 0 0 1 14 8m.85-6.15-13 13a.485.485 0 0 1-.7 0c-.2-.2-.2-.51 0-.71l.92-.92c-.04-.17-.07-.34-.07-.52V3.29c0-.84.45-1.59 1.2-2 .77-.42 1.71-.39 2.45.09l5.02 3.24 3.48-3.48c.2-.2.51-.2.71 0s.2.51 0 .71ZM3 12.29l6.95-6.95-4.84-3.12c-.43-.28-.97-.3-1.43-.05-.43.23-.68.65-.68 1.12z" style="fill: #ffffff;"/></svg>
