<?xml version="1.0" encoding="UTF-8"?>
<svg xmlns="http://www.w3.org/2000/svg" viewBox="0 0 16 16"><path fill="none" d="M0 0H16V16H0z" data-name="Transparante laag"/><path d="m14.85 1.85-9 9-4 4a.485.485 0 0 1-.7 0c-.2-.2-.2-.51 0-.71l3.15-3.15h-.29c-.28 0-.5-.22-.5-.5 0-1.65.91-3.16 2.34-3.94l-.54-3.23c-.1-.58.07-1.17.45-1.62S6.7.99 7.29.99h1.45c.59 0 1.15.26 1.53.71s.54 1.04.45 1.62l-.25 1.51 3.7-3.7c.2-.2.51-.2.71 0s.2.51 0 .71Zm-3.54 5.63a.63.63 0 0 0-.49-.25c-.03 0-.05.01-.07.01a.47.47 0 0 0-.35.15l-.02.02-2.72 2.72s-.08.1-.11.16-.04.13-.04.19v4.02c0 .28.22.5.5.5s.5-.22.5-.5v-3.52h3.5c.28 0 .5-.22.5-.5 0-1.09-.4-2.15-1.12-2.97-.02-.02-.04-.03-.06-.05Z" style="fill: #ffffff;"/></svg>
