<?xml version="1.0" encoding="UTF-8"?>
<svg xmlns="http://www.w3.org/2000/svg" viewBox="0 0 16 16"><path fill="none" d="M0 0H16V16H0z" data-name="Transparante laag"/><path d="M10 8c0-.63-.31-1.21-.82-1.56L3.87 2.82c-.57-.39-1.27-.43-1.88-.11s-1 .96-1 1.67v7.24a1.885 1.885 0 0 0 1.85 1.89c.36 0 .71-.11 1.02-.32l5.31-3.62c.51-.35.82-.93.82-1.56Zm-1.38.73-5.31 3.62c-.26.18-.57.19-.85.05a.87.87 0 0 1-.46-.78V4.38c0-.34.17-.63.46-.78a.79.79 0 0 1 .85.05l5.31 3.62c.24.17.38.43.38.73s-.14.57-.38.73M8 3.5c0-.28.22-.5.5-.5h6c.28 0 .5.22.5.5s-.22.5-.5.5h-6c-.28 0-.5-.22-.5-.5m7 9c0 .28-.22.5-.5.5h-6c-.28 0-.5-.22-.5-.5s.22-.5.5-.5h6c.28 0 .5.22.5.5M15 8c0 .28-.22.5-.5.5h-2c-.28 0-.5-.22-.5-.5s.22-.5.5-.5h2c.28 0 .5.22.5.5" style="fill: #ffffff;"/></svg>
