<?xml version="1.0" encoding="UTF-8"?>
<svg xmlns="http://www.w3.org/2000/svg" viewBox="0 0 16 16"><path fill="none" d="M0 0H16V16H0z" data-name="Transparante laag"/><path d="M13.5 4H12V1.5c0-.28-.22-.5-.5-.5h-7c-.28 0-.5.22-.5.5V4H2.5C1.67 4 1 4.67 1 5.5v5c0 .83.67 1.5 1.5 1.5H4v2.5c0 .28.22.5.5.5h7c.28 0 .5-.22.5-.5V12h1.5c.83 0 1.5-.67 1.5-1.5v-5c0-.83-.67-1.5-1.5-1.5M5 2h6v3H5zm6 9v3H5V9h6zm3-.5c0 .28-.22.5-.5.5H12V8.5c0-.28-.22-.5-.5-.5h-7c-.28 0-.5.22-.5.5V11H2.5c-.28 0-.5-.22-.5-.5v-5c0-.28.22-.5.5-.5H4v.5c0 .28.22.5.5.5h7c.28 0 .5-.22.5-.5V5h1.5c.28 0 .5.22.5.5zm-4 0c0 .28-.22.5-.5.5h-3c-.28 0-.5-.22-.5-.5s.22-.5.5-.5h3c.28 0 .5.22.5.5m0 2c0 .28-.22.5-.5.5h-3c-.28 0-.5-.22-.5-.5s.22-.5.5-.5h3c.28 0 .5.22.5.5" style="fill: #ffffff;"/></svg>
