<?xml version="1.0" encoding="UTF-8"?>
<svg xmlns="http://www.w3.org/2000/svg" viewBox="0 0 16 16"><path fill="none" d="M0 0H16V16H0z" data-name="Transparante laag"/><path d="M12.5 1h-9A2.5 2.5 0 0 0 1 3.5v9c0 1.24.91 2.26 2.09 2.46.13.02.27.04.41.04h9a2.5 2.5 0 0 0 2.5-2.5v-9A2.5 2.5 0 0 0 12.5 1M2 12.5v-9C2 2.67 2.67 2 3.5 2h9c.83 0 1.5.67 1.5 1.5v6.52l-1.67-2.33c-.33-.46-.88-.72-1.44-.69-.57.03-1.07.35-1.35.85l-1.29 2.34-.34-.48c-.34-.48-.9-.74-1.47-.71-.58.03-1.1.36-1.38.87l-2.2 3.98C2.35 13.61 2 13.1 2 12.5M3.92 14l2.01-3.64c.12-.21.32-.34.56-.35.24-.02.46.09.6.29l.62.87-1.57 2.84H3.91Zm8.58 0H7.29l3.13-5.66c.11-.2.31-.32.53-.34q.36 0 .57.27L14 11.74v.75c0 .83-.67 1.5-1.5 1.5Zm-7-7C6.33 7 7 6.33 7 5.5S6.33 4 5.5 4 4 4.67 4 5.5 4.67 7 5.5 7m0-2c.28 0 .5.22.5.5s-.22.5-.5.5-.5-.22-.5-.5.22-.5.5-.5" style="fill: #ffffff;"/></svg>
