<?xml version="1.0" encoding="UTF-8"?>
<svg xmlns="http://www.w3.org/2000/svg" viewBox="0 0 16 16"><path fill="none" d="M0 0H16V16H0z" data-name="Transparante laag"/><path d="M9.49 6.34c.55 0 1-.45 1-1s-.45-1-1-1-1 .45-1 1 .45 1 1 1m5.1-4.93c-.77-.77-2.39-.43-4.56.95A6 6 0 0 0 8 2C4.69 2 2 4.69 2 8c0 .71.13 1.39.36 2.03-1.38 2.17-1.72 3.78-.95 4.56.28.28.66.41 1.12.41.91 0 2.13-.52 3.44-1.36.63.23 1.32.36 2.03.36 3.31 0 6-2.69 6-6 0-.71-.13-1.39-.36-2.03 1.25-1.96 1.79-3.72.95-4.56m-.71.71c.32.32.07 1.35-.75 2.78-.5-.83-1.2-1.52-2.02-2.02 1.63-.94 2.54-.99 2.78-.75ZM8 3c2 0 3.71 1.18 4.51 2.88-.74 1.08-1.74 2.31-3.03 3.6s-2.52 2.29-3.6 3.03C4.19 11.71 3 10 3 8c0-2.76 2.24-5 5-5M2.12 13.88c-.23-.23-.18-1.15.75-2.78.5.83 1.2 1.52 2.02 2.02-1.43.82-2.46 1.07-2.78.76ZM13 8c0 2.76-2.24 5-5 5-.33 0-.64-.04-.95-.1 1.06-.78 2.13-1.71 3.14-2.72 1-1 1.94-2.08 2.72-3.14.06.31.1.63.1.95Z"/></svg>
