<?xml version="1.0" encoding="UTF-8"?>
<svg xmlns="http://www.w3.org/2000/svg" viewBox="0 0 16 16"><path fill="none" d="M0 0H16V16H0z" data-name="Transparante laag"/><path d="M12.88 14.99c-.11 0-.22 0-.33-.03-8.85-1.42-11-8.49-11.52-11.47-.11-.62.06-1.25.47-1.73.41-.49 1.01-.77 1.65-.77h.79c.63 0 1.17.45 1.3 1.06l.58 2.92c.11.53-.12 1.06-.56 1.36L3.42 7.56c.97 1.88 2.52 3.76 5 5.04l1.25-1.87c.3-.45.83-.67 1.36-.56l2.92.58c.62.12 1.06.67 1.06 1.3v.78c0 .64-.28 1.24-.76 1.65-.38.33-.87.5-1.36.5Zm-3.55-1.95c.99.41 2.11.74 3.38.94.32.05.63-.04.88-.25.26-.22.41-.55.41-.89v-.78c0-.15-.11-.29-.26-.32l-2.91-.58a.33.33 0 0 0-.33.14l-1.16 1.74ZM3.15 1.99c-.34 0-.66.15-.88.41-.21.25-.31.59-.25.91.17.96.46 2.13.97 3.33l1.72-1.15c.11-.07.16-.2.14-.33l-.58-2.92a.32.32 0 0 0-.32-.26h-.79Zm11.31-.19a.51.51 0 0 0-.46-.31h-3c-.28 0-.5.22-.5.5s.22.5.5.5h1.79L9.64 5.64c-.2.2-.2.51 0 .71a.485.485 0 0 0 .7 0l3.15-3.15v1.79c0 .28.22.5.5.5s.5-.22.5-.5v-3c0-.07-.01-.13-.04-.19Z" style="fill: #ffffff;"/></svg>
