<?xml version="1.0" encoding="UTF-8"?>
<svg xmlns="http://www.w3.org/2000/svg" viewBox="0 0 16 16"><path fill="none" d="M0 0H16V16H0z" data-name="Transparante laag"/><path d="M14.85 1.15c-.2-.2-.51-.2-.71 0l-3.7 3.7.25-1.52c.1-.58-.07-1.17-.45-1.62S9.3 1 8.72 1H7.26c-.59 0-1.14.26-1.52.71s-.54 1.04-.45 1.62l.54 3.23a4.51 4.51 0 0 0-2.34 3.94c0 .28.22.5.5.5h.29l-3.15 3.15c-.2.2-.2.51 0 .71a.485.485 0 0 0 .7 0l4-4 9.02-9.01c.2-.2.2-.51 0-.71ZM4.54 10c.17-1.18.94-2.21 2.06-2.7a.49.49 0 0 0 .29-.54l-.6-3.6c-.05-.29.03-.58.22-.81.19-.22.47-.35.76-.35h1.46c.29 0 .57.13.76.35s.27.52.22.81l-.48 2.9L5.29 10h-.76Zm6.84-2.47c.72.82 1.12 1.88 1.12 2.97 0 .28-.22.5-.5.5H8.5v3.52c0 .28-.22.5-.5.5s-.5-.22-.5-.5V10.5c0-.28.22-.5.5-.5h3.46c-.1-.67-.39-1.3-.84-1.81a.514.514 0 0 1 .04-.71c.21-.18.52-.16.71.04Z" style="fill: #ffffff;"/></svg>
