<?xml version="1.0" encoding="UTF-8"?>
<svg xmlns="http://www.w3.org/2000/svg" viewBox="0 0 16 16"><path fill="none" d="M0 0H16V16H0z" data-name="Transparante laag"/><path d="M14.05 6.46 3.5 1.18c-.66-.33-1.44-.21-1.97.3C1 2 .85 2.77 1.16 3.44l1.96 4.25c.09.19.09.41 0 .61l-1.96 4.25c-.31.67-.17 1.44.37 1.96a1.693 1.693 0 0 0 1.97.3l10.55-5.27c.59-.29.95-.88.95-1.54s-.36-1.25-.95-1.54m-.45 2.19L3.05 13.92c-.34.17-.65.04-.83-.13a.7.7 0 0 1-.15-.82l1.96-4.25c.03-.07.05-.15.07-.22h3.37c.28 0 .5-.22.5-.5s-.22-.5-.5-.5H4.1c-.02-.07-.04-.15-.07-.22L2.07 3.03a.71.71 0 0 1 .15-.82c.12-.11.29-.21.5-.21.1 0 .21.02.33.08L13.6 7.35c.25.12.4.37.4.65s-.15.52-.4.65"/></svg>
