<?xml version="1.0" encoding="UTF-8"?>
<svg xmlns="http://www.w3.org/2000/svg" viewBox="0 0 16 16"><path fill="none" d="M0 0H16V16H0z" data-name="Transparante laag"/><path d="M3.16 11.55c.16.22.12.54-.11.7-.09.07-.19.1-.3.1-.15 0-.3-.07-.4-.2-.44-.59-.77-1.25-1-1.94a.5.5 0 0 1 .95-.31c.2.6.49 1.16.86 1.67ZM2 8c0-.62.09-1.23.28-1.82a.502.502 0 1 0-.96-.3C1.1 6.56.99 7.28.99 8v.04c0 .28.22.48.5.48s.5-.24.5-.52Zm.71-3.28c.16 0 .31-.07.41-.21.37-.51.81-.96 1.32-1.33.22-.17.27-.48.11-.7a.51.51 0 0 0-.7-.11c-.59.44-1.11.96-1.54 1.56a.5.5 0 0 0 .41.79ZM9.8 2.28c.6.19 1.16.47 1.68.83.09.06.19.09.29.09a.5.5 0 0 0 .29-.91 7.2 7.2 0 0 0-1.96-.98.506.506 0 0 0-.63.33c-.08.26.06.54.33.63Zm-3.86.05c.05 0 .11 0 .16-.03.59-.2 1.22-.3 1.85-.31.28 0 .5-.23.5-.5s-.23-.5-.5-.5c-.74 0-1.46.13-2.16.36a.51.51 0 0 0-.32.63c.07.21.27.34.47.34Zm7.75 3.75c.07.21.26.34.47.34.05 0 .11 0 .16-.03.26-.09.4-.37.31-.63a7 7 0 0 0-1.01-1.94.5.5 0 0 0-.7-.1c-.22.17-.27.48-.1.7.38.51.67 1.06.87 1.66m-7.53 7.63c-.6-.19-1.16-.48-1.67-.84-.22-.16-.54-.11-.7.11s-.11.54.11.7q.9.645 1.95.99c.05.02.1.02.15.02a.5.5 0 0 0 .48-.35.51.51 0 0 0-.32-.63m8.34-6.25c-.28 0-.5.26-.5.54 0 .63-.1 1.26-.29 1.85-.08.26.06.54.32.63.05.02.1.02.15.02a.5.5 0 0 0 .48-.35c.23-.69.34-1.42.34-2.16v-.08c0-.28-.22-.46-.5-.46Zm-1.64 4.06c-.37.51-.81.96-1.32 1.33-.22.16-.27.48-.11.7.1.13.25.21.4.21.1 0 .21-.03.29-.1.59-.43 1.11-.96 1.54-1.55.16-.22.11-.54-.11-.7a.507.507 0 0 0-.7.11ZM9.87 13.7c-.59.19-1.22.29-1.85.3-.28 0-.5.23-.5.5 0 .28.22.5.5.5.74 0 1.46-.12 2.16-.34a.5.5 0 0 0-.31-.95Zm.98-8.55c-.2-.2-.51-.2-.71 0L7.99 7.3 5.84 5.15c-.2-.2-.51-.2-.71 0s-.2.51 0 .71l2.15 2.15-2.15 2.15c-.2.2-.2.51 0 .71a.485.485 0 0 0 .7 0l2.15-2.15 2.15 2.15a.485.485 0 0 0 .7 0c.2-.2.2-.51 0-.71L8.68 8.01l2.15-2.15c.2-.2.2-.51 0-.71Z" style="fill: #ffffff;"/></svg>
