<?xml version="1.0" encoding="UTF-8"?>
<svg xmlns="http://www.w3.org/2000/svg" viewBox="0 0 16 16"><g fill="none" data-name="Transparante laag"><path d="M0 0H16V16H0z" style="fill: #ffffff;"/><path d="M0 0H16V16H0z" style="fill: #ffffff;"/></g><path d="M8 15c-3.86 0-7-3.14-7-7s3.14-7 7-7 7 3.14 7 7-3.14 7-7 7M8 2C4.69 2 2 4.69 2 8s2.69 6 6 6 6-2.69 6-6-2.69-6-6-6m0 9c-1.65 0-3-1.35-3-3s1.35-3 3-3 3 1.35 3 3-1.35 3-3 3m0-5c-1.1 0-2 .9-2 2s.9 2 2 2 2-.9 2-2-.9-2-2-2" style="fill: #ffffff;"/></svg>
