<?xml version="1.0" encoding="UTF-8"?>
<svg xmlns="http://www.w3.org/2000/svg" viewBox="0 0 16 16"><path fill="none" d="M0 0H16V16H0z" data-name="Transparante laag"/><path d="M13 6h-.05a2.5 2.5 0 0 0-2.45-2H9.13l1.15-1.15c.2-.2.2-.51 0-.71s-.51-.2-.71 0L7.92 3.79 6.27 2.14c-.2-.2-.51-.2-.71 0s-.2.51 0 .71L6.71 4H5.49a2.5 2.5 0 0 0-2.45 2h-.05c-1.1 0-2 .9-2 2v1c0 1.1.9 2 2 2v.5a2.5 2.5 0 0 0 2.5 2.5h5a2.5 2.5 0 0 0 2.5-2.5V11c1.1 0 2-.9 2-2V8c0-1.1-.9-2-2-2ZM2 9V8c0-.55.45-1 1-1v3c-.55 0-1-.45-1-1m10 2.5c0 .83-.67 1.5-1.5 1.5h-5c-.83 0-1.5-.67-1.5-1.5v-5C4 5.67 4.67 5 5.5 5h5c.83 0 1.5.67 1.5 1.5zM14 9c0 .55-.45 1-1 1V7c.55 0 1 .45 1 1zm-7.75-.75c-.41 0-.75.34-.75.75s.34.75.75.75S7 9.41 7 9s-.34-.75-.75-.75m3.75 0c-.41 0-.75.34-.75.75s.34.75.75.75.75-.34.75-.75-.34-.75-.75-.75" style="fill: #ffffff;"/></svg>
