<?xml version="1.0" encoding="UTF-8"?>
<svg xmlns="http://www.w3.org/2000/svg" viewBox="0 0 16 16"><path fill="none" d="M0 0H16V16H0z" data-name="Transparante laag"/><path d="M9.5 1h-3A2.5 2.5 0 0 0 4 3.5v9A2.5 2.5 0 0 0 6.5 15h3a2.5 2.5 0 0 0 2.5-2.5v-9A2.5 2.5 0 0 0 9.5 1M11 12.5c0 .83-.67 1.5-1.5 1.5h-3c-.83 0-1.5-.67-1.5-1.5v-9C5 2.67 5.67 2 6.5 2h3c.83 0 1.5.67 1.5 1.5zm-4-9c0 .28-.23.5-.5.5S6 3.77 6 3.5s.23-.5.5-.5.5.23.5.5m3.01 0c0 .28-.23.5-.51.5S9 3.77 9 3.5s.23-.5.5-.5.51.23.51.5m-1.51 0c0 .28-.23.5-.5.5s-.5-.23-.5-.5.23-.5.5-.5.5.23.5.5M7 5.5c0 .28-.23.5-.5.5S6 5.77 6 5.5s.23-.5.5-.5.5.23.5.5m3.01 0c0 .28-.23.5-.51.5S9 5.77 9 5.5s.23-.5.5-.5.51.23.51.5m-1.51 0c0 .28-.23.5-.5.5s-.5-.23-.5-.5.23-.5.5-.5.5.23.5.5M7 7.5c0 .28-.23.5-.5.5S6 7.77 6 7.5s.23-.5.5-.5.5.23.5.5m3.01 0c0 .28-.23.5-.51.5S9 7.77 9 7.5s.23-.5.5-.5.51.23.51.5m-1.51 0c0 .28-.23.5-.5.5s-.5-.23-.5-.5.23-.5.5-.5.5.23.5.5m0 2.01c0 .28-.23.5-.5.5s-.5-.23-.5-.5S7.73 9 8 9s.5.23.5.51" style="fill: #ffffff;"/></svg>
