<?xml version="1.0" encoding="UTF-8"?>
<svg xmlns="http://www.w3.org/2000/svg" viewBox="0 0 16 16"><path fill="none" d="M0 0H16V16H0z" data-name="Transparante laag"/><path d="M13.5 7.5h-1.57c-.22-.86-1-1.5-1.93-1.5s-1.71.64-1.93 1.5H2.5c-.28 0-.5.22-.5.5s.22.5.5.5h5.57c.22.86 1 1.5 1.93 1.5s1.71-.64 1.93-1.5h1.57c.28 0 .5-.22.5-.5s-.22-.5-.5-.5M10 9c-.55 0-1-.45-1-1s.45-1 1-1 1 .45 1 1-.45 1-1 1m3.5 3H7.93c-.22-.86-1-1.5-1.93-1.5s-1.71.64-1.93 1.5H2.5c-.28 0-.5.22-.5.5s.22.5.5.5h1.57c.22.86 1 1.5 1.93 1.5s1.71-.64 1.93-1.5h5.57c.28 0 .5-.22.5-.5s-.22-.5-.5-.5M6 13.5c-.55 0-1-.45-1-1s.45-1 1-1 1 .45 1 1-.45 1-1 1M2.5 4h1.57c.22.86 1 1.5 1.93 1.5S7.71 4.86 7.93 4h5.57c.28 0 .5-.22.5-.5s-.22-.5-.5-.5H7.93c-.22-.86-1-1.5-1.93-1.5S4.3 2.14 4.07 3H2.5c-.28 0-.5.22-.5.5s.22.5.5.5M6 2.5c.55 0 1 .45 1 1s-.45 1-1 1-1-.45-1-1 .45-1 1-1" style="fill: #ffffff;"/></svg>
