<?xml version="1.0" encoding="UTF-8"?>
<svg xmlns="http://www.w3.org/2000/svg" viewBox="0 0 16 16"><path fill="none" d="M0 0H16V16H0z" data-name="Transparante laag"/><path d="M5.5 12c-.83 0-1.5.67-1.5 1.5S4.67 15 5.5 15 7 14.33 7 13.5 6.33 12 5.5 12m0 2c-.28 0-.5-.22-.5-.5s.22-.5.5-.5.5.22.5.5-.22.5-.5.5m6-2c-.83 0-1.5.67-1.5 1.5s.67 1.5 1.5 1.5 1.5-.67 1.5-1.5-.67-1.5-1.5-1.5m0 2c-.28 0-.5-.22-.5-.5s.22-.5.5-.5.5.22.5.5-.22.5-.5.5m2.83-9.38c-.29-.4-.73-.62-1.22-.62H3.92l-.29-1.74C3.51 1.53 2.89 1 2.15 1H1.5c-.28 0-.5.22-.5.5s.22.5.5.5h.65c.25 0 .46.18.5.42l1.22 7.32c.12.73.75 1.25 1.48 1.25h6.43c.65 0 1.22-.41 1.43-1.03l1.33-4c.15-.46.08-.96-.21-1.35Zm-.75 1.04-1.33 4c-.07.21-.26.34-.48.34H5.34c-.25 0-.46-.18-.5-.42L4.08 5h9.02c.16 0 .31.08.41.21s.12.3.07.45" style="fill: #ffffff;"/></svg>
