<?xml version="1.0" encoding="UTF-8"?>
<svg xmlns="http://www.w3.org/2000/svg" viewBox="0 0 16 16"><path fill="none" d="M0 0H16V16H0z" data-name="Transparante laag"/><path d="M11.5 15h-7A2.5 2.5 0 0 1 2 12.5v-5A2.5 2.5 0 0 1 4.5 5H6c.28 0 .5.22.5.5S6.28 6 6 6H4.5C3.67 6 3 6.67 3 7.5v5c0 .83.67 1.5 1.5 1.5h7c.83 0 1.5-.67 1.5-1.5v-5c0-.83-.67-1.5-1.5-1.5H10c-.28 0-.5-.22-.5-.5s.22-.5.5-.5h1.5A2.5 2.5 0 0 1 14 7.5v5a2.5 2.5 0 0 1-2.5 2.5m-.69-11.89L8.55 1.35c-.3-.3-.8-.3-1.05-.04l-2.3 1.8c-.22.17-.25.48-.08.7s.48.25.7.08l1.69-1.33v7.93c0 .28.22.5.5.5s.5-.22.5-.5V2.57l1.69 1.32c.09.07.2.11.31.11.15 0 .29-.07.39-.19.17-.22.13-.53-.08-.7Z" style="fill: #ffffff;"/></svg>
