<?xml version="1.0" encoding="UTF-8"?>
<svg xmlns="http://www.w3.org/2000/svg" viewBox="0 0 16 16"><path fill="none" d="M0 0H16V16H0z" data-name="Transparante laag"/><path d="M14.19 3.08C14.01 2.44 13.42 2 12.75 2h-1.84c-.21-.58-.76-1-1.41-1h-3c-.65 0-1.2.42-1.41 1H3.17c-.62 0-1.16.37-1.41 1-.08.3-.77 2.96-.77 4 0 .01.02 1.03 1.03 1.61-.01.05-.03.09-.03.14v2.75a2.5 2.5 0 0 0 2.5 2.5h7a2.5 2.5 0 0 0 2.5-2.5V8.75s-.01-.07-.02-.11c.32-.18.53-.4.67-.61.34-.49.35-.98.35-1.03 0-1.04-.73-3.62-.81-3.92ZM6.5 2h3c.28 0 .5.22.5.5s-.22.5-.5.5h-3c-.28 0-.5-.22-.5-.5s.22-.5.5-.5m6.5 9.5c0 .83-.67 1.5-1.5 1.5H11v-2.5c0-.28-.22-.5-.5-.5h-5c-.28 0-.5.22-.5.5V13h-.5c-.83 0-1.5-.67-1.5-1.5V8.94c.23.04.48.06.76.06 1.05 0 1.71-.35 2.09-.79.39.42 1.06.79 2.24.79 1.05 0 1.71-.35 2.09-.79.39.42 1.06.79 2.24.79.21 0 .4-.02.58-.04z"/></svg>
