<?xml version="1.0" encoding="UTF-8"?>
<svg xmlns="http://www.w3.org/2000/svg" viewBox="0 0 16 16"><path fill="none" d="M0 0H16V16H0z" data-name="Transparante laag"/><path d="M14.93 6.23c-.15-.45-.53-.77-.99-.84l-3.34-.51-1.5-3.17C8.89 1.27 8.47 1 7.99 1s-.9.27-1.11.71l-1.5 3.17-3.34.51c-.46.07-.84.39-.99.84-.16.46-.04.97.3 1.31l2.43 2.47-.57 3.5c-.08.49.12.97.52 1.26.21.15.45.22.7.22.2 0 .4-.05.58-.15l2.98-1.64 2.98 1.64c.41.23.9.2 1.28-.07.4-.28.6-.76.52-1.26l-.57-3.5 2.43-2.47c.34-.34.45-.85.3-1.31m-1.01.61-2.78 2.84.66 4c.03.17-.08.25-.11.28-.05.04-.13.07-.22.01l-3.46-1.9-3.46 1.9c-.1.05-.17.02-.22-.01a.27.27 0 0 1-.11-.28l.66-4L2.1 6.84a.27.27 0 0 1-.06-.29c.02-.06.07-.15.19-.17l3.86-.59 1.72-3.65c.06-.12.15-.14.21-.14s.15.02.21.14l1.72 3.65 3.87.59c.12.02.17.11.19.17.01.04.05.18-.06.29Z" style="fill: #ffffff;"/></svg>
