<?xml version="1.0" encoding="UTF-8"?>
<svg xmlns="http://www.w3.org/2000/svg" viewBox="0 0 16 16"><path fill="none" d="M0 0H16V16H0z" data-name="Transparante laag"/><path d="M12 8c0 2.21-1.79 4-4 4s-4-1.79-4-4 1.79-4 4-4 4 1.79 4 4M8 3c.28 0 .5-.22.5-.5v-1c0-.28-.22-.5-.5-.5s-.5.22-.5.5v1c0 .28.22.5.5.5m6.5 4.5h-1c-.28 0-.5.22-.5.5s.22.5.5.5h1c.28 0 .5-.22.5-.5s-.22-.5-.5-.5m-12 0h-1c-.28 0-.5.22-.5.5s.22.5.5.5h1c.28 0 .5-.22.5-.5s-.22-.5-.5-.5m9.39-2.89c.13 0 .26-.05.35-.15l.71-.71c.2-.2.2-.51 0-.71s-.51-.2-.71 0l-.71.71c-.2.2-.2.51 0 .71.1.1.23.15.35.15Zm-8.13 6.93-.71.71c-.2.2-.2.51 0 .71a.485.485 0 0 0 .7 0l.71-.71c.2-.2.2-.51 0-.71s-.51-.2-.71 0Zm8.48 0c-.2-.2-.51-.2-.71 0s-.2.51 0 .71l.71.71a.485.485 0 0 0 .7 0c.2-.2.2-.51 0-.71l-.71-.71ZM3.76 4.46a.485.485 0 0 0 .7 0c.2-.2.2-.51 0-.71l-.71-.71c-.2-.2-.51-.2-.71 0s-.2.51 0 .71l.71.71ZM8 13c-.28 0-.5.22-.5.5v1c0 .28.22.5.5.5s.5-.22.5-.5v-1c0-.28-.22-.5-.5-.5" style="fill: #ffffff;"/></svg>
