<?xml version="1.0" encoding="UTF-8"?>
<svg xmlns="http://www.w3.org/2000/svg" viewBox="0 0 16 16"><path fill="none" d="M0 0H16V16H0z" data-name="Transparante laag"/><path d="M15 10.5V13c0 .63-.29 1.21-.78 1.59a2.1 2.1 0 0 1-.53.29.501.501 0 0 1-.64-.3c-.1-.26.04-.55.29-.64q.15-.06.27-.15c.25-.19.39-.48.39-.79v-2.5c0-.28.22-.5.5-.5s.5.22.5.5m-1.35-5.65a.485.485 0 0 0 .7 0c.2-.2.2-.51 0-.71l-2-2c-.2-.2-.51-.2-.71 0s-.2.51 0 .71l2 2ZM14.5 6c-.28 0-.5.22-.5.5v2c0 .28.22.5.5.5s.5-.22.5-.5v-2c0-.28-.22-.5-.5-.5M9 9v2c0 .55-.45 1-1 1H6c-.55 0-1-.45-1-1V9c0-.55.45-1 1-1h2c.55 0 1 .45 1 1M8 9H6v2h2zm0 2v.5zm3.44-6.22c.36.37.56.86.56 1.38v6.34A2.5 2.5 0 0 1 9.5 15h-5A2.5 2.5 0 0 1 2 12.5v-8A2.5 2.5 0 0 1 4.5 2h3.43c.54 0 1.07.22 1.44.62l2.08 2.16ZM11 6.16c0-.26-.1-.5-.28-.69L8.64 3.31A1 1 0 0 0 7.92 3H4.49c-.83 0-1.5.67-1.5 1.5v8c0 .83.67 1.5 1.5 1.5h5c.83 0 1.5-.67 1.5-1.5V6.16Z" style="fill: #ffffff;"/></svg>
