<?xml version="1.0" encoding="UTF-8"?>
<svg xmlns="http://www.w3.org/2000/svg" viewBox="0 0 16 16"><path fill="none" d="M0 0H16V16H0z" data-name="Transparante laag"/><path d="M8.5 5h-5A2.5 2.5 0 0 0 1 7.5v5A2.5 2.5 0 0 0 3.5 15h5a2.5 2.5 0 0 0 2.5-2.5v-5A2.5 2.5 0 0 0 8.5 5m1.5 7.5c0 .83-.67 1.5-1.5 1.5h-5c-.83 0-1.5-.67-1.5-1.5v-5C2 6.67 2.67 6 3.5 6h5c.83 0 1.5.67 1.5 1.5zM15 3v4c0 1.1-.9 2-2 2h-.5c-.28 0-.5-.22-.5-.5s.22-.5.5-.5h.5c.55 0 1-.45 1-1V3c0-.55-.45-1-1-1H9c-.55 0-1 .45-1 1v.5c0 .28-.22.5-.5.5S7 3.78 7 3.5V3c0-1.1.9-2 2-2h4c1.1 0 2 .9 2 2" style="fill: #ffffff;"/></svg>
