<?xml version="1.0" encoding="UTF-8"?>
<svg xmlns="http://www.w3.org/2000/svg" viewBox="0 0 16 16"><path fill="none" d="M0 0H16V16H0z" data-name="Transparante laag"/><path d="M7.5 2.5v-1c0-.28.22-.5.5-.5s.5.22.5.5v1c0 .28-.22.5-.5.5s-.5-.22-.5-.5m-5 5h-1c-.28 0-.5.22-.5.5s.22.5.5.5h1c.28 0 .5-.22.5-.5s-.22-.5-.5-.5m1.26 4.04-.71.71c-.2.2-.2.51 0 .71a.485.485 0 0 0 .7 0l.71-.71c.2-.2.2-.51 0-.71s-.51-.2-.71 0Zm8.13-6.93c.13 0 .26-.05.35-.15l.71-.71c.2-.2.2-.51 0-.71s-.51-.2-.71 0l-.71.71c-.2.2-.2.51 0 .71.1.1.23.15.35.15Zm-8.13-.15a.485.485 0 0 0 .7 0c.2-.2.2-.51 0-.71l-.71-.71c-.2-.2-.51-.2-.71 0s-.2.51 0 .71l.71.71ZM14.5 7.5h-1c-.28 0-.5.22-.5.5s.22.5.5.5h1c.28 0 .5-.22.5-.5s-.22-.5-.5-.5m-2.26 4.04c-.2-.2-.51-.2-.71 0s-.2.51 0 .71l.71.71a.485.485 0 0 0 .7 0c.2-.2.2-.51 0-.71l-.71-.71ZM12 8c0 2.21-1.79 4-4 4s-4-1.79-4-4 1.79-4 4-4 4 1.79 4 4m-1 0c0-1.65-1.35-3-3-3S5 6.35 5 8s1.35 3 3 3 3-1.35 3-3m-3 5c-.28 0-.5.22-.5.5v1c0 .28.22.5.5.5s.5-.22.5-.5v-1c0-.28-.22-.5-.5-.5" style="fill: #ffffff;"/></svg>
