<?xml version="1.0" encoding="UTF-8"?>
<svg xmlns="http://www.w3.org/2000/svg" viewBox="0 0 16 16"><path fill="none" d="M0 0H16V16H0z" data-name="Transparante laag"/><path d="M14.5 7.5h-.53A5.99 5.99 0 0 0 8.5 2.03V1.5c0-.28-.22-.5-.5-.5s-.5.22-.5.5v.53A6 6 0 0 0 2.03 7.5H1.5c-.28 0-.5.22-.5.5s.22.5.5.5h.53a5.99 5.99 0 0 0 5.47 5.47v.53c0 .28.22.5.5.5s.5-.22.5-.5v-.53a6 6 0 0 0 5.47-5.47h.53c.28 0 .5-.22.5-.5s-.22-.5-.5-.5m-6 5.45V11.5c0-.28-.22-.5-.5-.5s-.5.22-.5.5v1.45A4.984 4.984 0 0 1 3.05 8.5H4.5c.28 0 .5-.22.5-.5s-.22-.5-.5-.5H3.05c.24-2.35 2.1-4.21 4.45-4.45V4.5c0 .28.22.5.5.5s.5-.22.5-.5V3.05c2.35.24 4.21 2.1 4.45 4.45H11.5c-.28 0-.5.22-.5.5s.22.5.5.5h1.45a4.984 4.984 0 0 1-4.45 4.45M8.5 8c0 .28-.23.5-.5.5s-.5-.23-.5-.5.23-.5.5-.5.5.23.5.5"/></svg>
