<?xml version="1.0" encoding="UTF-8"?>
<svg xmlns="http://www.w3.org/2000/svg" viewBox="0 0 16 16"><path fill="none" d="M0 0H16V16H0z" data-name="Transparante laag"/><path d="M7 3.5v1A2.5 2.5 0 0 1 4.5 7h-1A2.5 2.5 0 0 1 1 4.5v-1A2.5 2.5 0 0 1 3.5 1h1A2.5 2.5 0 0 1 7 3.5M12.5 1h-1A2.5 2.5 0 0 0 9 3.5v1A2.5 2.5 0 0 0 11.5 7h1A2.5 2.5 0 0 0 15 4.5v-1A2.5 2.5 0 0 0 12.5 1m-8 8h-1A2.5 2.5 0 0 0 1 11.5v1A2.5 2.5 0 0 0 3.5 15h1A2.5 2.5 0 0 0 7 12.5v-1A2.5 2.5 0 0 0 4.5 9m8 0h-1A2.5 2.5 0 0 0 9 11.5v1a2.5 2.5 0 0 0 2.5 2.5h1a2.5 2.5 0 0 0 2.5-2.5v-1A2.5 2.5 0 0 0 12.5 9" style="fill: #ffffff;"/></svg>
