<?xml version="1.0" encoding="UTF-8"?>
<svg xmlns="http://www.w3.org/2000/svg" viewBox="0 0 16 16"><path fill="none" d="M0 0H16V16H0z" data-name="Transparante laag"/><path d="m14.35 3.65-2-2c-.2-.2-.51-.2-.71 0s-.2.51 0 .71l.65.65L6.5 8.8 5.35 7.65c-.2-.2-.51-.2-.71 0l-2.59 2.59c-.97.97-.97 2.56 0 3.54l.17.17c.49.49 1.13.73 1.77.73s1.28-.24 1.77-.73l2.59-2.59c.2-.2.2-.51 0-.71L7.2 9.5l5.79-5.79.65.65a.485.485 0 0 0 .7 0c.2-.2.2-.51 0-.71ZM7.29 11l-2.23 2.23c-.57.57-1.55.57-2.12 0l-.17-.17a1.5 1.5 0 0 1 0-2.12L5 8.71l.79.79-1.15 1.15c-.2.2-.2.51 0 .71a.485.485 0 0 0 .7 0l1.15-1.15.79.79Z" style="fill: #ffffff;"/></svg>
