<?xml version="1.0" encoding="UTF-8"?>
<svg xmlns="http://www.w3.org/2000/svg" viewBox="0 0 16 16"><path fill="none" d="M0 0H16V16H0z" data-name="Transparante laag"/><path d="M8 1C4.14 1 1 4.14 1 8s3.14 7 7 7 7-3.14 7-7-3.14-7-7-7m6 7c0 .15-.01.29-.02.43l-.94.65-1.87-.86-.9-2.63 1.12-1.43 1.19-.03A6 6 0 0 1 14 8M8 9.89l-2.17-1.5L6.65 6h2.7l.82 2.39zm2.26-7.44.33 1.12-1.13 1.44H6.53L5.4 3.57l.33-1.12C6.43 2.16 7.19 2 7.99 2s1.56.16 2.26.45ZM3.42 4.13l1.19.03 1.12 1.43-.9 2.63-1.87.86-.94-.65C2.01 8.29 2 8.14 2 8c0-1.47.54-2.82 1.42-3.87m-.51 7.03.4-1.14 1.88-.86 2.31 1.6v2.35l-.93.71a6.03 6.03 0 0 1-3.66-2.66m6.52 2.66-.93-.71v-2.35l2.31-1.6 1.88.86.4 1.14a6.03 6.03 0 0 1-3.66 2.66" style="fill: #ffffff;"/></svg>
