<?xml version="1.0" encoding="UTF-8"?>
<svg xmlns="http://www.w3.org/2000/svg" viewBox="0 0 16 16"><path fill="none" d="M0 0H16V16H0z" data-name="Transparante laag"/><path d="M12 11c-.53 0-1.01.21-1.37.55L5.9 8.59c.06-.19.1-.39.1-.6s-.04-.41-.1-.6l4.73-2.96c.36.34.84.55 1.37.55 1.1 0 2-.9 2-2s-.9-2-2-2-2 .9-2 2c0 .21.04.41.1.6L5.37 6.54c-.36-.34-.84-.55-1.37-.55-1.1 0-2 .9-2 2s.9 2 2 2c.53 0 1.01-.21 1.37-.55l4.73 2.96c-.06.19-.1.39-.1.6 0 1.1.9 2 2 2s2-.9 2-2-.9-2-2-2m0-9c.55 0 1 .45 1 1s-.45 1-1 1-1-.45-1-1 .45-1 1-1M4 9c-.55 0-1-.45-1-1s.45-1 1-1 1 .45 1 1-.45 1-1 1m8 5c-.55 0-1-.45-1-1s.45-1 1-1 1 .45 1 1-.45 1-1 1" style="fill: #ffffff;"/></svg>
