<?xml version="1.0" encoding="UTF-8"?>
<svg xmlns="http://www.w3.org/2000/svg" viewBox="0 0 16 16"><path fill="none" d="M0 0H16V16H0z" data-name="Transparante laag"/><path d="M14.18 6.25A2.497 2.497 0 0 0 11.69 4H11V3c0-1.1-.9-2-2-2H7.01c-1.1 0-2 .9-2 2v1h-.69c-1.29 0-2.36.97-2.49 2.25l-.6 6c-.07.7.16 1.4.63 1.93.47.52 1.15.82 1.85.82h8.58a2.49 2.49 0 0 0 2.48-2.75l-.6-6ZM6 3c0-.55.45-1 1-1h1.99c.55 0 1 .45 1 1v1h-4V3Zm7.4 10.51c-.29.32-.68.49-1.11.49H3.71c-.43 0-.82-.17-1.11-.49s-.42-.73-.38-1.16l.6-6A1.5 1.5 0 0 1 4.32 5h.69v1.5c0 .28.22.5.5.5s.5-.22.5-.5V5h4v1.5c0 .28.22.5.5.5s.5-.22.5-.5V5h.69c.78 0 1.42.58 1.5 1.35l.6 6c.04.43-.09.84-.38 1.16Z" style="fill: #ffffff;"/></svg>
