<?xml version="1.0" encoding="UTF-8"?>
<svg xmlns="http://www.w3.org/2000/svg" viewBox="0 0 16 16"><path fill="none" d="M0 0H16V16H0z" data-name="Transparante laag"/><path d="M9 8H7c-.55 0-1 .45-1 1v2c0 .55.45 1 1 1h2c.55 0 1-.45 1-1V9c0-.55-.45-1-1-1m0 3.5V11H7V9h2v2.5m3.44-6.72-2.08-2.16C9.99 2.23 9.46 2 8.92 2H5.5A2.5 2.5 0 0 0 3 4.5v8A2.5 2.5 0 0 0 5.5 15h5.01a2.5 2.5 0 0 0 2.5-2.5V6.16c0-.52-.2-1.01-.56-1.38ZM12 12.5c0 .83-.67 1.5-1.5 1.5H5.49c-.83 0-1.5-.67-1.5-1.5v-8c0-.83.67-1.5 1.5-1.5h3.42c.27 0 .53.11.72.31l2.08 2.16c.18.19.28.43.28.69v6.34Z"/></svg>
