<?xml version="1.0" encoding="UTF-8"?>
<svg xmlns="http://www.w3.org/2000/svg" viewBox="0 0 16 16"><path fill="none" d="M0 0H16V16H0z" data-name="Transparante laag"/><path d="M2.5 7.5h4.91l-2.2-2.14c-.2-.19-.2-.51 0-.71.19-.2.51-.2.71 0l2.84 2.77c.16.16.25.37.25.59s-.09.43-.25.59l-2.84 2.77a.508.508 0 0 1-.71-.01.513.513 0 0 1 0-.71l2.2-2.14H2.5c-.28 0-.5-.22-.5-.5s.22-.5.5-.5Zm10-6.5h-9A2.5 2.5 0 0 0 1 3.5v1c0 .28.22.5.5.5s.5-.22.5-.5v-1C2 2.67 2.67 2 3.5 2h8.99c.83 0 1.5.67 1.5 1.5v8.99c0 .83-.67 1.5-1.5 1.5H3.5c-.83 0-1.5-.67-1.5-1.5v-1c0-.28-.22-.5-.5-.5s-.5.22-.5.5v1a2.5 2.5 0 0 0 2.5 2.5h8.99a2.5 2.5 0 0 0 2.5-2.5V3.5a2.5 2.5 0 0 0-2.5-2.5Z" style="fill: #ffffff;"/></svg>
