<?xml version="1.0" encoding="UTF-8"?>
<svg xmlns="http://www.w3.org/2000/svg" viewBox="0 0 16 16"><path fill="none" d="M0 0H16V16H0z" data-name="Transparante laag"/><path d="M9.12 10.12a.485.485 0 0 1-.7 0c-.2-.2-.2-.51 0-.71.78-.78.78-2.05 0-2.83-.2-.2-.2-.51 0-.71s.51-.2.71 0a3 3 0 0 1 0 4.24ZM7 4.81v6.38a1 1 0 0 1-.99 1c-.15 0-.31-.04-.45-.11l-2.17-1.09h-.38c-1.1 0-2-.9-2-2v-2c0-1.1.9-2 2-2h.38L5.56 3.9c.31-.16.68-.14.97.04.3.18.47.5.47.85Zm-1 6.38V4.81L3.72 5.95c-.07.03-.15.05-.22.05H3c-.55 0-1 .45-1 1v2c0 .55.45 1 1 1h.5c.08 0 .15.02.22.05z" style="fill: #ffffff;"/></svg>
