<?xml version="1.0" encoding="UTF-8"?>
<svg xmlns="http://www.w3.org/2000/svg" viewBox="0 0 16 16"><path fill="none" d="M0 0H16V16H0z" data-name="Transparante laag"/><path d="M6.53 3.96c-.3-.18-.66-.2-.97-.04L3.39 5.01h-.38c-1.1 0-2 .9-2 2v2c0 1.1.9 2 2 2h.38l2.17 1.09a.98.98 0 0 0 .97-.04c.3-.18.47-.5.47-.85V4.83c0-.35-.18-.67-.47-.85Zm-2.81 6.09A.6.6 0 0 0 3.5 10H3c-.55 0-1-.45-1-1V7c0-.55.45-1 1-1h.5c.08 0 .15-.02.22-.05L6 4.81v6.38zM12 8c0 1.34-.52 2.59-1.46 3.54a.485.485 0 0 1-.7 0c-.2-.2-.2-.51 0-.71.76-.75 1.17-1.76 1.17-2.83s-.42-2.07-1.17-2.83c-.2-.2-.2-.51 0-.71s.51-.2.71 0c.94.94 1.46 2.2 1.46 3.54Zm-2.88 2.12a.485.485 0 0 1-.7 0c-.2-.2-.2-.51 0-.71.78-.78.78-2.05 0-2.83-.2-.2-.2-.51 0-.71s.51-.2.71 0a3 3 0 0 1 0 4.24Z" style="fill: #ffffff;"/></svg>
