<?xml version="1.0" encoding="UTF-8"?>
<svg xmlns="http://www.w3.org/2000/svg" viewBox="0 0 16 16"><path fill="none" d="M0 0H16V16H0z" data-name="Transparante laag"/><path d="M14 9c0 3.31-2.69 6-6 6s-6-2.69-6-6 2.69-6 6-6h3.75L10.6 1.85c-.2-.2-.2-.51 0-.71s.51-.2.71 0l1.84 1.84c.14.13.21.32.21.51s-.07.37-.21.51l-1.84 1.84a.485.485 0 0 1-.7 0c-.2-.2-.2-.51 0-.71l1.15-1.15H8.01c-2.76 0-5 2.24-5 5s2.24 5 5 5 5-2.24 5-5c0-.28.22-.5.5-.5s.5.22.5.5ZM7.48 7H4.99v.81h1.2l-.62 1.01c.2 0 .37.01.52.04s.26.08.34.16c.08.07.12.17.12.29 0 .09-.02.17-.06.23s-.1.11-.18.15-.18.05-.31.05a1.42 1.42 0 0 1-1.02-.43v.85a1.775 1.775 0 0 0 1.11.37c.29 0 .53-.05.74-.15q.315-.15.48-.42c.11-.18.17-.39.17-.62 0-.2-.04-.38-.12-.53s-.2-.28-.36-.38c-.08-.05-.17-.09-.27-.13L7.49 7v-.02Zm3.16.83c.12.27.19.58.19.92s-.06.65-.19.92c-.12.27-.3.49-.53.64s-.5.24-.81.24-.58-.08-.81-.24-.41-.37-.53-.64-.19-.58-.19-.92.06-.65.19-.92c.12-.27.3-.49.53-.65q.345-.24.81-.24c.465 0 .58.08.81.24s.41.37.53.65m-.74.92c0-.19-.02-.36-.07-.5a.76.76 0 0 0-.21-.34c-.09-.08-.2-.12-.32-.12s-.24.04-.33.12-.16.2-.21.34-.07.31-.07.5.02.36.07.5c.05.15.12.26.21.34q.135.12.33.12c.195 0 .23-.04.32-.12s.16-.19.21-.34c.05-.14.07-.31.07-.5" style="fill: #ffffff;"/></svg>
