<?xml version="1.0" encoding="UTF-8"?>
<svg xmlns="http://www.w3.org/2000/svg" viewBox="0 0 16 16"><path fill="none" d="M0 0H16V16H0z" data-name="Transparante laag"/><path d="M14 9c0 3.31-2.69 6-6 6s-6-2.69-6-6c0-.28.22-.5.5-.5s.5.22.5.5c0 2.76 2.24 5 5 5s5-2.24 5-5-2.24-5-5-5H4.25L5.4 5.15c.2.2.2.51 0 .71a.485.485 0 0 1-.7 0L2.86 4.02c-.14-.14-.21-.32-.21-.51s.08-.38.21-.51L4.7 1.16c.2-.2.51-.2.71 0s.2.51 0 .71L4.26 3.02h3.75c3.31 0 6 2.69 6 6Zm-7.69.7c-.08.04-.18.05-.31.05a1.42 1.42 0 0 1-1.02-.43v.85a1.775 1.775 0 0 0 1.11.37c.29 0 .53-.05.74-.15q.315-.15.48-.42c.11-.18.17-.39.17-.62 0-.2-.04-.38-.12-.53s-.2-.28-.36-.38c-.08-.05-.17-.09-.27-.13l.76-1.3v-.02H5v.81h1.2l-.62 1.01c.2 0 .37.01.52.04s.26.08.34.16c.08.07.12.17.12.29 0 .09-.02.17-.06.23s-.1.11-.18.15Zm1.65-.03c-.12-.27-.19-.58-.19-.92s.06-.65.19-.92c.12-.27.3-.49.53-.65q.345-.24.81-.24c.465 0 .58.08.81.24s.41.37.53.65c.12.27.19.58.19.92s-.06.65-.19.92c-.12.27-.3.49-.53.64s-.5.24-.81.24-.58-.08-.81-.24-.41-.37-.53-.64m.74-.92c0 .19.02.36.07.5.05.15.12.26.21.34q.135.12.33.12c.195 0 .23-.04.32-.12s.16-.19.21-.34c.05-.14.07-.31.07-.5s-.02-.36-.07-.5a.76.76 0 0 0-.21-.34c-.09-.08-.2-.12-.32-.12s-.24.04-.33.12-.16.2-.21.34-.07.31-.07.5"/></svg>
