<?xml version="1.0" encoding="UTF-8"?>
<svg xmlns="http://www.w3.org/2000/svg" viewBox="0 0 16 16"><path fill="none" d="M0 0H16V16H0z" data-name="Transparante laag"/><path d="M14 7h.5c.28 0 .5-.22.5-.5V5c0-1.1-.9-2-2-2H3c-1.1 0-2 .9-2 2v1.5c0 .28.22.5.5.5H2c.55 0 1 .45 1 1s-.45 1-1 1h-.5c-.28 0-.5.22-.5.5V11c0 1.1.9 2 2 2h10c1.1 0 2-.9 2-2V9.5c0-.28-.22-.5-.5-.5H14c-.55 0-1-.45-1-1s.45-1 1-1m-4 4.5c0 .28-.22.5-.5.5s-.5-.22-.5-.5v-1c0-.28.22-.5.5-.5s.5.22.5.5zm0-3c0 .28-.22.5-.5.5S9 8.78 9 8.5v-1c0-.28.22-.5.5-.5s.5.22.5.5zm0-3c0 .28-.22.5-.5.5S9 5.78 9 5.5v-1c0-.28.22-.5.5-.5s.5.22.5.5z" style="fill: #ffffff;"/></svg>
