<?xml version="1.0" encoding="UTF-8"?>
<svg xmlns="http://www.w3.org/2000/svg" viewBox="0 0 16 16"><path fill="none" d="M0 0H16V16H0z" data-name="Transparante laag"/><path d="M13 6.5v6a2.5 2.5 0 0 1-2.5 2.5h-5A2.5 2.5 0 0 1 3 12.5V4H2c-.28 0-.5-.22-.5-.5S1.72 3 2 3h3c0-1.1.9-2 2-2h1.99c.28 0 .5.22.5.5s-.22.5-.5.5H7c-.55 0-1 .45-1 1h3.5c.28 0 .5.22.5.5s-.22.5-.5.5H4.02v8.5c0 .83.67 1.5 1.5 1.5h5c.83 0 1.5-.67 1.5-1.5v-6c0-.28.22-.5.5-.5s.5.22.5.5Zm-7 0v5c0 .28.22.5.5.5s.5-.22.5-.5v-5c0-.28-.22-.5-.5-.5s-.5.22-.5.5M9.5 6c-.28 0-.5.22-.5.5v5c0 .28.22.5.5.5s.5-.22.5-.5v-5c0-.28-.22-.5-.5-.5M15 2h-1V1c0-.28-.22-.5-.5-.5s-.5.22-.5.5v1h-1c-.28 0-.5.22-.5.5s.22.5.5.5h1v1c0 .28.22.5.5.5s.5-.22.5-.5V3h1c.28 0 .5-.22.5-.5S15.28 2 15 2"/></svg>
