<?xml version="1.0" encoding="UTF-8"?>
<svg xmlns="http://www.w3.org/2000/svg" viewBox="0 0 16 16"><path fill="none" d="M0 0H16V16H0z" data-name="Transparante laag"/><path d="m14.93 7.72-.84-2.09a1 1 0 0 0-.93-.63H11c0-1.1-.9-2-2-2H3c-1.1 0-2 .9-2 2v4c0 .96.68 1.76 1.58 1.95.19.6.75 1.05 1.42 1.05s1.2-.42 1.41-1h5.18c.21.58.76 1 1.41 1s1.2-.42 1.41-1H14c.55 0 1-.45 1-1V8.1c0-.13-.02-.26-.07-.37ZM2 9V5c0-.55.45-1 1-1h6c.55 0 1 .45 1 1v5H5.41C5.2 9.42 4.65 9 4 9s-1.16.38-1.38.92C2.26 9.77 2 9.41 2 9m2 2c-.28 0-.5-.22-.5-.5s.22-.5.5-.5.5.22.5.5-.22.5-.5.5m8 0c-.28 0-.5-.22-.5-.5s.22-.5.5-.5.48.21.5.48v.04c-.01.26-.23.48-.5.48m2-1h-.59c-.21-.58-.76-1-1.41-1-.39 0-.73.15-1 .39V6h2.16L14 8.1z"/></svg>
