<?xml version="1.0" encoding="UTF-8"?>
<svg xmlns="http://www.w3.org/2000/svg" viewBox="0 0 16 16"><path fill="none" d="M0 0H16V16H0z" data-name="Transparante laag"/><path d="M12.5 2h-9A2.5 2.5 0 0 0 1 4.5v5A2.5 2.5 0 0 0 3.5 12l2.06-.03 1.38 1.59c.29.29.67.44 1.05.44s.79-.15 1.1-.46L10.42 12h2.08A2.5 2.5 0 0 0 15 9.5v-5A2.5 2.5 0 0 0 12.5 2M14 9.5c0 .83-.67 1.5-1.5 1.5h-2.08c-.27 0-.52.1-.73.32l-1.33 1.54c-.19.19-.55.16-.69.03L6.29 11.3a1 1 0 0 0-.71-.29H3.5c-.83 0-1.5-.67-1.5-1.5v-5c0-.83.67-1.5 1.5-1.5h9c.83 0 1.5.67 1.5 1.5v5Zm-2-4c0 .28-.22.5-.5.5h-7c-.28 0-.5-.22-.5-.5s.22-.5.5-.5h7c.28 0 .5.22.5.5m-3.5 3c0 .28-.22.5-.5.5H4.5c-.28 0-.5-.22-.5-.5s.22-.5.5-.5H8c.28 0 .5.22.5.5" style="fill: #ffffff;"/></svg>
