<?xml version="1.0" encoding="UTF-8"?>
<svg xmlns="http://www.w3.org/2000/svg" viewBox="0 0 16 16"><path fill="none" d="M0 0H16V16H0z" data-name="Transparante laag"/><path d="M14 3h-3c0-1.1-.9-2-2-2H7.01c-1.1 0-2 .9-2 2h-3c-.28 0-.5.22-.5.5s.22.5.5.5h1v8.5a2.5 2.5 0 0 0 2.5 2.5h4.99a2.5 2.5 0 0 0 2.5-2.5V4h1c.28 0 .5-.22.5-.5S14.28 3 14 3M7 2h1.99c.55 0 1 .45 1 1h-4c0-.55.45-1 1-1Zm5 10.5c0 .83-.67 1.5-1.5 1.5H5.51c-.83 0-1.5-.67-1.5-1.5V4h8v8.5Zm-5-6v5c0 .28-.22.5-.5.5s-.5-.22-.5-.5v-5c0-.28.22-.5.5-.5s.5.22.5.5m3 0v5c0 .28-.22.5-.5.5s-.5-.22-.5-.5v-5c0-.28.22-.5.5-.5s.5.22.5.5"/></svg>
