<?xml version="1.0" encoding="UTF-8"?>
<svg xmlns="http://www.w3.org/2000/svg" viewBox="0 0 16 16"><path fill="none" d="M0 0H16V16H0z" data-name="Transparante laag"/><path d="M14.47 6.37s0-.06-.02-.09l-.86-1.72a.99.99 0 0 0-.89-.55h-1.69v-.5a2.5 2.5 0 0 0-2.5-2.5H3.5A2.5 2.5 0 0 0 1 3.51v9.01a2.5 2.5 0 0 0 2.5 2.5H10s.08-.01.12-.02c.06.01.12.03.18.03h2.39c.38 0 .72-.21.89-.55l.86-1.72s.02-.06.02-.09c.32-.28.53-.68.53-1.13v-4c0-.45-.21-.86-.53-1.13ZM9 11.5v-4c0-.28.22-.5.5-.5h4c.28 0 .5.22.5.5v4c0 .28-.22.5-.5.5h-4c-.28 0-.5-.22-.5-.5M13.19 6H9.81l.5-1h2.38zM2 12.5v-9C2 2.67 2.67 2 3.5 2H5c0 .28.22.5.5.5h1c.28 0 .5-.22.5-.5h1.5c.83 0 1.5.67 1.5 1.5v.56c-.25.08-.46.26-.58.5l-.86 1.72s-.02.06-.02.09c-.32.28-.53.68-.53 1.13v4c0 .45.21.86.53 1.13 0 .03.01.06.02.09L9.2 14H3.5c-.83 0-1.5-.67-1.5-1.5m8.31 1.5-.5-1h3.38l-.5 1z" style="fill: #ffffff;"/></svg>
