<?xml version="1.0" encoding="UTF-8"?>
<svg xmlns="http://www.w3.org/2000/svg" viewBox="0 0 16 16"><path fill="none" d="M0 0H16V16H0z" data-name="Transparante laag"/><path d="M14.67 6.5c-.28-.31-.7-.48-1.17-.48h-1.51V4.01c0-1.14-.73-1.9-1.81-1.91h-.02c-1.13 0-1.75.52-2.15 1.78-.51 1.7-1.11 3.58-1.32 4.13h-.8c-.21-.58-.76-1-1.41-1h-2c-.83 0-1.5.67-1.5 1.5v5c0 .83.67 1.5 1.5 1.5h2c.83 0 1.5-.67 1.5-1.5v-4.5h1c.13 0 .26-.05.35-.15.1-.1.3-.3 1.62-4.69.29-.93.56-1.07 1.21-1.07.71 0 .82.57.82.91v2.51c0 .28.22.5.5.5h2c.23.02.34.06.43.15.06.07.09.17.07.3l-.5 4.98c-.11 1.01-.86 1.56-1.5 1.56h-5c-.28 0-.5.22-.5.5s.22.5.5.5h5c1.08 0 2.32-.86 2.5-2.45l.5-4.98c.05-.41-.07-.79-.32-1.07ZM5 13.5c0 .28-.22.5-.5.5h-2c-.28 0-.5-.22-.5-.5v-5c0-.28.22-.5.5-.5h2c.28 0 .5.22.5.5z" style="fill: #ffffff;"/></svg>
