<?xml version="1.0" encoding="UTF-8"?>
<svg xmlns="http://www.w3.org/2000/svg" viewBox="0 0 16 16"><path fill="none" d="M0 0H16V16H0z" data-name="Transparante laag"/><path d="M12.5 2h-9A2.5 2.5 0 0 0 1 4.5v7A2.5 2.5 0 0 0 3.5 14h9a2.5 2.5 0 0 0 2.5-2.5v-7A2.5 2.5 0 0 0 12.5 2m1.5 9.5c0 .83-.67 1.5-1.5 1.5h-9c-.83 0-1.5-.67-1.5-1.5v-7C2 3.67 2.67 3 3.5 3h9c.83 0 1.5.67 1.5 1.5zM10.5 6c-1.1 0-2 .9-2 2 0 .37.11.7.28 1H7.22c.17-.3.28-.63.28-1 0-1.1-.9-2-2-2s-2 .9-2 2 .9 2 2 2h5c1.1 0 2-.9 2-2s-.9-2-2-2m-6 2c0-.55.45-1 1-1s1 .45 1 1-.45 1-1 1-1-.45-1-1m6 1c-.55 0-1-.45-1-1s.45-1 1-1 1 .45 1 1-.45 1-1 1" style="fill: #ffffff;"/></svg>
