<?xml version="1.0" encoding="UTF-8"?>
<svg xmlns="http://www.w3.org/2000/svg" viewBox="0 0 16 16"><path fill="none" d="M0 0H16V16H0z" data-name="Transparante laag"/><path d="M14.86 6.49a.51.51 0 0 1-.71.01c-3.39-3.32-8.91-3.32-12.3 0-.2.19-.51.19-.71 0a.513.513 0 0 1 0-.71c3.78-3.7 9.92-3.7 13.7 0 .2.19.2.51 0 .71ZM3.32 7.9c-.2.19-.2.51 0 .71.19.2.51.2.71 0 2.2-2.15 5.77-2.15 7.97 0a.508.508 0 0 0 .71-.01c.19-.2.19-.51 0-.71-2.58-2.53-6.78-2.53-9.37 0Zm2.16 2.12c-.2.19-.2.51 0 .71.19.2.51.2.71 0 1-.98 2.63-.98 3.63 0a.508.508 0 0 0 .71-.01c.19-.2.19-.51 0-.71-1.39-1.36-3.65-1.36-5.03 0Zm3.27 2.73c0 .41-.34.75-.75.75s-.75-.34-.75-.75S7.59 12 8 12s.75.34.75.75m-.5 0c0-.14-.11-.25-.25-.25s-.25.11-.25.25c0 .28.5.28.5 0" style="fill: #ffffff;"/></svg>
