<?xml version="1.0" encoding="UTF-8"?>
<svg xmlns="http://www.w3.org/2000/svg" viewBox="0 0 16 16"><path fill="none" d="M0 0H16V16H0z" data-name="Transparante laag"/><path d="M8 1C5.33 1 3.01 2.5 1.83 4.71c-.04.05-.06.1-.08.16C1.28 5.81 1 6.87 1 8c0 3.86 3.14 7 7 7s7-3.14 7-7-3.14-7-7-7M4.04 3.5h2.54c.28 0 .5.22.5.5s-.22.5-.5.5H3.13c.26-.37.57-.7.91-1m-1.84 6h.18c.27 0 .52.1.71.29l3.12 3.12c.19.19.29.45.29.71v.18c-2.1-.54-3.76-2.2-4.3-4.3m5.3 4.47v-.35c0-.53-.21-1.04-.59-1.42L3.79 9.08c-.38-.38-.88-.59-1.42-.59h-.36c-.01-.17-.03-.33-.03-.5 0-.89.2-1.74.55-2.5h4.03c.83 0 1.5-.67 1.5-1.5s-.67-1.5-1.5-1.5h-.97c.73-.32 1.54-.5 2.39-.5 1.81 0 3.43.81 4.53 2.08-.6.2-1.03.76-1.03 1.42v.5c0 .55-.45 1-1 1h-2.5c-.83 0-1.5.67-1.5 1.5s.67 1.5 1.5 1.5h1c.28 0 .5.23.5.5v.49c0 1.05.81 1.9 1.84 1.99-.95.64-2.1 1.02-3.34 1.02-.17 0-.33-.01-.5-.03ZM12.46 12h-.96c-.55 0-1-.45-1-1v-.49c0-.83-.67-1.5-1.5-1.5H8c-.28 0-.5-.22-.5-.5s.22-.5.5-.5h2.5c1.1 0 2-.9 2-2v-.5c0-.28.23-.5.5-.5h.19c.51.88.81 1.91.81 3 0 1.54-.59 2.94-1.54 4Z" style="fill: #ffffff;"/></svg>
