<?xml version="1.0" encoding="UTF-8"?>
<svg xmlns="http://www.w3.org/2000/svg" viewBox="0 0 16 16"><path fill="none" d="M0 0H16V16H0z" data-name="Transparante laag"/><path d="m11.4 3.17-.81-1.62A.99.99 0 0 0 9.7 1H6.32c-.38 0-.72.21-.89.55l-.81 1.62c-.94.36-1.6 1.26-1.6 2.33v5c0 1.06.67 1.97 1.6 2.33l.81 1.62c.17.34.51.55.89.55H9.7c.38 0 .72-.21.89-.55l.81-1.62c.94-.36 1.6-1.26 1.6-2.33v-5c0-1.06-.67-1.97-1.6-2.33M9.69 2l.5 1H5.81l.5-1zM6.31 14l-.5-1h4.38l-.5 1zM12 10.5c0 .83-.67 1.5-1.5 1.5h-5c-.83 0-1.5-.67-1.5-1.5v-5C4 4.67 4.67 4 5.5 4h5c.83 0 1.5.67 1.5 1.5z" style="fill: #ffffff;"/></svg>
