<?xml version="1.0" encoding="UTF-8"?>
<svg xmlns="http://www.w3.org/2000/svg" viewBox="0 0 16 16">
  <path fill="none" d="M0 0H16V16H0z"/>
  <path fill="none" stroke="currentColor" stroke-width="1" d="M13.23 3.34c.4.21.72.54.94.94.25.48.34.94.34 2.09v4.31c0 1.15-.09 1.61-.34 2.09-.22.4-.54.72-.94.94-.48.25-.94.34-2.09.34H4.83c-1.15 0-1.61-.09-2.09-.34-.4-.22-.72-.54-.94-.94-.25-.48-.34-.94-.34-2.09V6.37c0-1.15.09-1.61.34-2.09.22-.4.54-.72.94-.94.48-.25.94-.34 2.09-.34h6.31c1.15 0 1.61.09 2.09.34Z"/>
  <path fill="currentColor" d="M4.83 2.5h1.09v11H4.83c-1.34 0-1.82-.14-2.31-.4-.49-.26-.87-.64-1.13-1.13-.26-.49-.4-.97-.4-2.31V6.37c0-1.34.14-1.82.4-2.31.26-.49.64-.87 1.13-1.13.49-.26.97-.4 2.31-.4Z"/>
  <line x1="1.38" y1="10.03" x2="15.15" y2="10.03" stroke="currentColor" stroke-width="1"/>
  <line x1="1.38" y1="6.33" x2="15.15" y2="6.33" stroke="currentColor" stroke-width="1"/>
  <line x1="10.27" y1="13.52" x2="10.27" y2="3.33" stroke="currentColor" stroke-width="1"/>
</svg>
