<?xml version="1.0" encoding="UTF-8"?>
<svg xmlns="http://www.w3.org/2000/svg" viewBox="0 0 16 16">
  <path fill="none" d="M0 0H16V16H0z"/>
  <path fill="none" stroke="currentColor" stroke-width="1" d="M13.23 3.34c.4.21.72.54.94.94.25.48.34.94.34 2.09v4.31c0 1.15-.09 1.61-.34 2.09-.22.4-.54.72-.94.94-.48.25-.94.34-2.09.34H4.83c-1.15 0-1.61-.09-2.09-.34-.4-.22-.72-.54-.94-.94-.25-.48-.34-.94-.34-2.09V6.37c0-1.15.09-1.61.34-2.09.22-.4.54-.72.94-.94.48-.25.94-.34 2.09-.34h6.31c1.15 0 1.61.09 2.09.34Z"/>
  <path fill="currentColor" d="M4.68 2.5h7.14c1.14 0 1.66.14 2.15.4.49.26.87.64 1.13 1.13.26.49.4 1.01.4 2.15v.6H1v-.6c0-1.14.14-1.66.4-2.15.26-.49.64-.87 1.13-1.13.49-.26 1.01-.4 2.15-.4Z"/>
  <line x1="1.38" y1="9.47" x2="15.15" y2="9.47" stroke="currentColor" stroke-width="1"/>
  <line x1="5.44" y1="13.52" x2="5.43" y2="5.92" stroke="currentColor" stroke-width="1"/>
  <line x1="10.57" y1="13.52" x2="10.56" y2="5.92" stroke="currentColor" stroke-width="1"/>
</svg>
