<?xml version="1.0" encoding="UTF-8"?>
<svg xmlns="http://www.w3.org/2000/svg" viewBox="0 0 16 16"><path fill="none" d="M0 0H16V16H0z" data-name="Transparante laag"/><path d="M14 8c0 .28-.22.5-.5.5H8.92l3.17 4.72c.15.23.09.54-.14.69a.522.522 0 0 1-.7-.14L7.97 8.88l-3.39 4.84c-.1.14-.25.21-.41.21a.499.499 0 0 1-.41-.79l3.26-4.65H2.5c-.28 0-.5-.22-.5-.5s.22-.5.5-.5h4.55L3.88 2.78a.5.5 0 0 1 .14-.69.49.49 0 0 1 .69.14l3.28 4.89 3.39-4.84c.16-.23.47-.28.7-.12s.28.47.12.7L8.94 7.51h4.55c.28 0 .5.22.5.5Z"/></svg>
