<?xml version="1.0" encoding="UTF-8"?>
<svg xmlns="http://www.w3.org/2000/svg" viewBox="0 0 16 16"><path fill="none" d="M0 0H16V16H0z" data-name="Transparante laag"/><path d="M13.01 2.71c-.61-.32-1.31-.28-1.88.11L5.82 6.44C5.31 6.79 5 7.37 5 8s.31 1.21.82 1.56l5.31 3.62c.31.21.67.32 1.02.32.29 0 .58-.07.85-.22.61-.32.99-.96.99-1.67V4.37c0-.7-.38-1.34-.99-1.67ZM13 11.62c0 .34-.17.63-.46.78-.28.15-.58.13-.85-.05L6.38 8.73C6.14 8.56 6 8.3 6 8s.14-.57.38-.73l5.31-3.62a.79.79 0 0 1 .85-.05c.29.15.46.44.46.78zM3 2.5v11c0 .28-.22.5-.5.5s-.5-.22-.5-.5v-11c0-.28.22-.5.5-.5s.5.22.5.5"/></svg>
