<?xml version="1.0" encoding="UTF-8"?>
<svg xmlns="http://www.w3.org/2000/svg" viewBox="0 0 16 16"><path fill="none" d="M0 0H16V16H0z" data-name="Transparante laag"/><path d="M14.85 1.15c-.2-.2-.51-.2-.71 0l-3 3c-.54-.44-1.16-.76-1.83-.95.11-.21.18-.44.18-.7 0-.83-.67-1.5-1.5-1.5s-1.5.67-1.5 1.5c0 .25.07.49.18.7-2.11.58-3.68 2.5-3.68 4.8v2.09c-.58.21-1 .76-1 1.41 0 .49.24.92.6 1.19l-1.45 1.45c-.2.2-.2.51 0 .71a.485.485 0 0 0 .7 0l2-2 11.01-11c.2-.2.2-.51 0-.71ZM7.5 2.5c0-.28.22-.5.5-.5s.5.22.5.5-.22.5-.5.5-.5-.22-.5-.5m-4.5 9c0-.28.22-.5.5-.5H4V8c0-2.21 1.79-4 4-4 .9 0 1.74.31 2.44.85l-7.11 7.11a.5.5 0 0 1-.33-.47Zm10-1.41V8c0-.37-.04-.74-.12-1.1a.503.503 0 0 0-.98.22c.06.29.1.59.1.88v3h.5c.28 0 .5.22.5.5s-.22.5-.5.5H6.53c-.28 0-.5.22-.5.5s.22.5.5.5H6.5c0 .83.67 1.5 1.5 1.5s1.5-.67 1.5-1.5h3a1.498 1.498 0 0 0 .5-2.91M8 13.5c-.28 0-.5-.22-.5-.5h1c0 .28-.22.5-.5.5"/></svg>
