<?xml version="1.0" encoding="UTF-8"?>
<svg xmlns="http://www.w3.org/2000/svg" viewBox="0 0 16 16"><path fill="none" d="M0 0H16V16H0z" data-name="Transparante laag"/><path d="M15 9c0 1.65-1.35 3-3 3-.28 0-.5-.22-.5-.5s.22-.5.5-.5c1.1 0 2-.9 2-2s-.9-2-2-2c-.05 0-.1.01-.15.02-.18.68-.52 1.3-1.03 1.81a.485.485 0 0 1-.7 0c-.2-.2-.2-.51 0-.71.57-.57.88-1.32.88-2.12s-.31-1.55-.88-2.12c-1.13-1.13-3.11-1.13-4.24 0-.34.34-.58.74-.73 1.18.68.12 1.33.44 1.85.96.2.2.2.51 0 .71s-.51.2-.71 0c-.98-.98-2.56-.97-3.54 0-.97.98-.97 2.56 0 3.54.47.47 1.1.73 1.77.73.28 0 .5.22.5.5s-.22.5-.5.5c-.94 0-1.81-.36-2.48-1.03a3.513 3.513 0 0 1 0-4.95c.58-.58 1.32-.9 2.07-.98A3.962 3.962 0 0 1 7.98 2c1.07 0 2.07.42 2.83 1.17.76.76 1.17 1.76 1.17 2.83 1.65 0 3 1.35 3 3Zm-6.49.22a.736.736 0 0 0-1.03 0l-1.84 1.9c-.19.2-.19.51 0 .71.2.19.52.19.71 0l1.14-1.17v2.86c0 .28.22.5.5.5s.5-.22.5-.5v-2.86l1.14 1.17a.51.51 0 0 0 .71.01c.2-.19.2-.51 0-.71L8.5 9.23Z"/></svg>
