<?xml version="1.0" encoding="UTF-8"?>
<svg xmlns="http://www.w3.org/2000/svg" viewBox="0 0 16 16"><path fill="none" d="M0 0H16V16H0z" data-name="Transparante laag"/><path d="M13 4h-1.69l-.72-1.45A.99.99 0 0 0 9.7 2H6.32c-.38 0-.72.21-.89.55L4.71 4H3.02c-1.1 0-2 .9-2 2v6.01c0 1.1.9 2 2 2h10.01c1.1 0 2-.9 2-2V6c0-1.1-.9-2-2-2Zm1 8c0 .55-.45 1-1 1H3c-.55 0-1-.45-1-1V5.99c0-.55.45-1 1-1h2.31l1-2h3.38l1 2H13c.55 0 1 .45 1 1zM8 6C6.35 6 5 7.35 5 9s1.35 3 3 3 3-1.35 3-3-1.35-3-3-3m0 5c-1.1 0-2-.9-2-2s.9-2 2-2 2 .9 2 2-.9 2-2 2m4.75-4c0 .41-.34.75-.75.75s-.75-.34-.75-.75.34-.75.75-.75.75.34.75.75"/></svg>
