<?xml version="1.0" encoding="UTF-8"?>
<svg xmlns="http://www.w3.org/2000/svg" viewBox="0 0 16 16"><path fill="none" d="M0 0H16V16H0z" data-name="Transparante laag"/><path d="M12 2h-1v-.5c0-.28-.22-.5-.5-.5s-.5.22-.5.5V2H6v-.5c0-.28-.22-.5-.5-.5s-.5.22-.5.5V2H4c-1.1 0-2 .9-2 2v8c0 1.1.9 2 2 2h4.09c.4 0 .77-.16 1.06-.44l4.42-4.42c.28-.28.44-.66.44-1.06V3.99c0-1.1-.9-2-2-2ZM4 3h1v.5c0 .28.22.5.5.5s.5-.22.5-.5V3h4v.5c0 .28.22.5.5.5s.5-.22.5-.5V3h1c.55 0 1 .45 1 1v1H3V4c0-.55.45-1 1-1m-1 9V6h10v2.02S12.94 8 12.91 8H9.25c-.96 0-1.75.79-1.75 1.75V13H4c-.55 0-1-.45-1-1m5.5.79V9.75c0-.41.34-.75.75-.75h3.04z"/></svg>
