<?xml version="1.0" encoding="UTF-8"?>
<svg xmlns="http://www.w3.org/2000/svg" viewBox="0 0 16 16"><path fill="none" d="M0 0H16V16H0z" data-name="Transparante laag"/><path d="M11.5 1h-7A2.5 2.5 0 0 0 2 3.5V9c0 .67.26 1.3.73 1.77l3.5 3.5c.47.47 1.1.73 1.77.73s1.3-.26 1.77-.73l3.5-3.5c.47-.47.73-1.1.73-1.77V3.5A2.5 2.5 0 0 0 11.5 1M13 9c0 .4-.16.78-.44 1.06l-3.5 3.5c-.57.57-1.56.57-2.12 0l-3.5-3.5C3.16 9.78 3 9.4 3 9V3.5C3 2.67 3.67 2 4.5 2h7c.83 0 1.5.67 1.5 1.5zm-2.07-4.24L7.98 9.59a.845.845 0 0 1-1.46-.02L5.08 7.1a.493.493 0 0 1 .18-.68c.24-.14.54-.06.68.18l1.32 2.26 2.82-4.62a.502.502 0 1 1 .86.52Z"/></svg>
