<?xml version="1.0" encoding="UTF-8"?>
<svg xmlns="http://www.w3.org/2000/svg" viewBox="0 0 16 16"><path fill="none" d="M0 0H16V16H0z" data-name="Transparante laag"/><path d="M14.67 13.59c.12.31.05.67-.18.9-.23.24-.59.32-.9.2l-1.05-.39c-.77.46-1.65.7-2.54.7-.39 0-.79-.05-1.18-.14a4.94 4.94 0 0 1-2.92-1.98c-.16-.23-.1-.54.12-.7.23-.16.54-.1.7.12.56.8 1.39 1.37 2.33 1.58 1.11.26 2.24.06 3.17-.56.13-.09.3-.11.45-.05l.95.36-.37-.91a.52.52 0 0 1 .05-.47c.64-.93.85-2.06.59-3.19-.18-.8-.81-1.69-1.64-2.31a.5.5 0 0 1-.1-.7c.17-.22.48-.27.7-.1 1.02.76 1.79 1.87 2.02 2.89.3 1.31.08 2.63-.6 3.75zM6 11c-.9 0-1.77-.24-2.54-.7l-1.05.39c-.31.12-.67.04-.9-.2a.85.85 0 0 1-.18-.9l.4-1c-.68-1.12-.89-2.44-.6-3.75.37-1.65 2.08-3.35 3.74-3.72 1.83-.4 3.65.18 4.88 1.56 1.07 1.21 1.49 2.83 1.13 4.45a4.96 4.96 0 0 1-3.69 3.73c-.4.09-.79.14-1.18.14ZM3.79 9.33c.93.62 2.05.81 3.17.56C8.4 9.56 9.58 8.36 9.9 6.92c.29-1.3-.04-2.6-.9-3.57-.98-1.11-2.44-1.57-3.91-1.25-1.27.28-2.69 1.69-2.98 2.96-.25 1.13-.04 2.26.59 3.19.09.14.11.31.05.47l-.37.91.95-.36c.06-.02.12-.03.17-.03.1 0 .19.03.28.08ZM7 5c0 .21-.15.33-.53.58-.41.27-.97.65-.97 1.42 0 .28.22.5.5.5s.5-.22.5-.5c0-.21.15-.33.53-.58C7.44 6.15 8 5.77 8 5c0-1.1-.9-2-2-2s-2 .9-2 2c0 .28.22.5.5.5S5 5.28 5 5c0-.55.45-1 1-1s1 .45 1 1m-.5 3.5c0-.28-.23-.5-.5-.5s-.5.23-.5.5.23.5.5.5.5-.23.5-.5"/></svg>
