<?xml version="1.0" encoding="UTF-8"?>
<svg width="24px" height="24px" viewBox="0 0 24 24" version="1.1" xmlns="http://www.w3.org/2000/svg" xmlns:xlink="http://www.w3.org/1999/xlink">
    <title>ui-dice</title>
    <defs>
        <path d="M0,0 L24,0 L24,24 L0,24 L0,0 Z" id="path-1"></path>
    </defs>
    <g id="ui-dice" stroke="none" fill="none" transform="translate(0, -0.0032)" xlink:href="#path-1" fill-rule="evenodd" stroke-width="1">
        <g id="dice" transform="translate(3.2948, 3.2948)" fill="#0066EE">
            <path d="M14.2181949,6.00317772 C15.2181949,6.12817772 15.9994449,6.97192772 15.9994449,8.00317772 L15.9994449,14.0031777 L15.9994449,14.2219277 C15.9056949,15.1594277 15.1556949,15.9094277 14.2181949,16.0031777 L13.9994449,16.0031777 L7.99944489,16.0031777 L7.81194489,16.0031777 C6.87444489,15.9094277 6.12444489,15.1594277 6.03069489,14.2219277 L5.99944489,14.0031777 L5.99944489,13.0656777 L7.21819489,13.3781777 L7.40569489,13.4406777 C7.43694489,13.4406777 7.46819489,13.4406777 7.49944489,13.4406777 L7.49944489,14.0031777 C7.49944489,14.2844277 7.74944489,14.5031777 7.99944489,14.5031777 L13.9994449,14.5031777 C14.2806949,14.5031777 14.4994449,14.2844277 14.4994449,14.0031777 L14.4994449,8.00317772 C14.4994449,7.72192772 14.2806949,7.50317772 13.9994449,7.50317772 L12.6556949,7.50317772 L13.0619449,6.00317772 L13.9994449,6.00317772 L14.2181949,6.00317772 Z M1.74944489,1.44067772 C2.12444489,0.440677723 3.15569489,-0.153072277 4.18694489,0.0344277231 L4.40569489,0.0656777231 L10.3431949,1.65942772 L10.5619449,1.72192772 C11.6244449,2.12817772 12.2181949,3.28442772 11.9369449,4.40942772 L10.3431949,10.3469277 L10.2806949,10.5656777 C9.90569489,11.5656777 8.87444489,12.1594277 7.81194489,11.9719277 L7.59319489,11.9406777 L1.65569489,10.3469277 C0.530694891,10.0344277 -0.156805109,8.94067772 0.0306948908,7.81567772 L0.0619448908,7.59692772 L1.65569489,1.65942772 L1.74944489,1.44067772 Z M3.93694489,1.50317772 C3.59319489,1.47192772 3.28069489,1.65942772 3.15569489,1.97192772 L3.09319489,2.09692772 L1.53069489,7.97192772 C1.43694489,8.37817772 1.65569489,8.78442772 2.06194489,8.90942772 L7.96819489,10.4719277 C8.34319489,10.5969277 8.74944489,10.3781777 8.87444489,10.0344277 L8.90569489,9.94067772 L10.4994449,4.03442772 L10.4994449,3.87817772 C10.5306949,3.56567772 10.3431949,3.25317772 10.0306949,3.12817772 L9.93694489,3.09692772 L4.09319489,1.53442772 L3.93694489,1.50317772 Z M7.68694489,9.28442772 C7.28069489,9.53442772 6.74944489,9.37817772 6.49944489,8.97192772 C6.24944489,8.56567772 6.40569489,8.03442772 6.81194489,7.78442772 C7.21819489,7.53442772 7.78069489,7.69067772 7.99944489,8.09692772 C8.24944489,8.50317772 8.09319489,9.06567772 7.68694489,9.28442772 Z M3.90569489,8.00317772 C3.49944489,8.25317772 2.96819489,8.09692772 2.71819489,7.69067772 C2.46819489,7.28442772 2.62444489,6.75317772 3.03069489,6.50317772 C3.43694489,6.25317772 3.99944489,6.40942772 4.21819489,6.81567772 C4.46819489,7.22192772 4.31194489,7.78442772 3.90569489,8.00317772 Z M6.43694489,6.75317772 C6.03069489,7.00317772 5.49944489,6.84692772 5.24944489,6.44067772 C4.99944489,6.03442772 5.15569489,5.50317772 5.56194489,5.25317772 C5.96819489,5.00317772 6.53069489,5.15942772 6.74944489,5.56567772 C6.99944489,5.97192772 6.84319489,6.53442772 6.43694489,6.75317772 Z M8.96819489,5.50317772 C8.56194489,5.75317772 8.03069489,5.59692772 7.78069489,5.19067772 C7.53069489,4.78442772 7.68694489,4.25317772 8.09319489,4.00317772 C8.49944489,3.75317772 9.06194489,3.90942772 9.28069489,4.31567772 C9.53069489,4.72192772 9.37444489,5.28442772 8.96819489,5.50317772 Z M5.18694489,4.22192772 C4.78069489,4.47192772 4.24944489,4.31567772 3.99944489,3.90942772 C3.74944489,3.50317772 3.90569489,2.97192772 4.31194489,2.72192772 C4.71819489,2.47192772 5.28069489,2.62817772 5.49944489,3.03442772 C5.74944489,3.44067772 5.59319489,4.00317772 5.18694489,4.22192772 Z" id="Shape" fill-rule="nonzero"></path>
        </g>
    </g>
</svg>