<?xml version="1.0" encoding="UTF-8"?>
<svg xmlns="http://www.w3.org/2000/svg" viewBox="0 0 16 16"><path fill="none" d="M0 0H16V16H0z" data-name="Transparante laag"/><path d="M13.92 13.2a.5.5 0 0 1-.15.69A7 7 0 0 1 10 15c-3.16 0-5.84-2.11-6.71-5H1.5c-.28 0-.5-.22-.5-.5s.22-.5.5-.5h1.58C3.03 8.67 3 8.34 3 8s.03-.67.08-1H1.5c-.28 0-.5-.22-.5-.5s.22-.5.5-.5h1.79C4.15 3.11 6.83 1 10 1c1.34 0 2.64.38 3.77 1.11.23.15.3.46.15.69a.5.5 0 0 1-.69.15C12.26 2.33 11.14 2 10 2 7.39 2 5.18 3.67 4.35 6h6.15c.28 0 .5.22.5.5s-.22.5-.5.5H4.09c-.06.33-.09.66-.09 1s.04.67.09 1H7.5c.28 0 .5.22.5.5s-.22.5-.5.5H4.35c.83 2.33 3.04 4 5.65 4 1.14 0 2.26-.33 3.23-.95a.5.5 0 0 1 .69.15"/></svg>
