<?xml version="1.0" encoding="UTF-8"?>
<svg xmlns="http://www.w3.org/2000/svg" viewBox="0 0 16 16"><path fill="none" d="M0 0H16V16H0z" data-name="Transparante laag"/><path d="m14.57 10.08-4.5-6.99C9.6 2.4 8.83 1.98 7.99 1.98s-1.61.42-2.08 1.11l-4.48 6.99c-.52.78-.57 1.74-.13 2.57s1.27 1.32 2.2 1.32h8.98c.94 0 1.76-.49 2.2-1.32s.4-1.79-.12-2.56Zm-.76 2.09c-.26.5-.76.79-1.32.79H3.51c-.56 0-1.06-.3-1.32-.79-.27-.5-.24-1.07.08-1.55l4.49-6.97c.57-.84 1.93-.83 2.49 0l4.5 6.99c.31.47.34 1.04.08 1.54ZM7.5 9.5V6.04c0-.28.22-.5.5-.5s.5.22.5.5V9.5c0 .28-.22.5-.5.5s-.5-.22-.5-.5m1 2c0 .28-.23.5-.5.5s-.5-.23-.5-.5.23-.5.5-.5.5.23.5.5"/></svg>
