<?xml version="1.0" encoding="UTF-8"?>
<svg xmlns="http://www.w3.org/2000/svg" viewBox="0 0 16 16"><path fill="none" d="M0 0H16V16H0z" data-name="Transparante laag"/><path d="M8 15c-3.31 0-6-2.69-6-6 0-.06 0-1.59.87-2.74.66-.88.18-2.55-.06-3.12a.51.51 0 0 1 .11-.56c.15-.14.37-.18.56-.09.1.05 1.97.95 2.88 2.75.14-.87.25-2.09.25-3.74a.498.498 0 0 1 .64-.48c.14.04 3.39 1.07 3.74 4.43V8c0 .55.45 1 1 1s1-.45 1-1c0-.67-.69-1.02-.72-1.03a.5.5 0 0 1-.23-.67c.12-.25.42-.35.66-.23.05.03 1.28.63 1.28 1.93v1c0 3.31-2.69 6-6 6ZM4.11 4.09c.15.85.17 1.94-.44 2.76C3.01 7.73 3 8.98 3 9c0 2.76 2.24 5 5 5 2.5 0 4.57-1.84 4.94-4.24-.28.15-.6.24-.94.24-1.1 0-2-.9-2-2V5.5c-.19-1.84-1.57-2.82-2.4-3.25-.08 3.83-.79 5.2-.82 5.26-.11.2-.34.3-.56.25a.51.51 0 0 1-.38-.49c0-1.48-.94-2.55-1.73-3.19Z"/></svg>
