<?xml version="1.0" encoding="UTF-8"?>
<svg xmlns="http://www.w3.org/2000/svg" viewBox="0 0 16 16"><path fill="none" d="M0 0H16V16H0z" data-name="Transparante laag"/><path d="M13.83 5.35s-.03-.08-.06-.12c-.17-.32-.39-.55-.42-.59l-3.2-3.2c-.13-.13-.28-.23-.44-.3a1.55 1.55 0 0 0-.61-.13H4.51a2.5 2.5 0 0 0-2.5 2.5v9a2.5 2.5 0 0 0 2.5 2.5h7c1.47 0 2.5-1.03 2.5-2.5V6c0-.24-.07-.45-.17-.64ZM12.29 5h-1.8c-.27 0-.5-.22-.5-.5V2.7l2.29 2.29Zm-.79 9h-7c-.83 0-1.5-.67-1.5-1.5v-9C3 2.67 3.67 2 4.5 2H9v2.5c0 .83.67 1.5 1.5 1.5H13v6.5c0 .91-.59 1.5-1.5 1.5"/></svg>
