<?xml version="1.0" encoding="UTF-8"?>
<svg xmlns="http://www.w3.org/2000/svg" viewBox="0 0 16 16"><path fill="none" d="M0 0H16V16H0z" data-name="Transparante laag"/><path d="m.88 11.98 1.32-1.97L.93 8.14h.94l.86 1.33.84-1.33h.92l-1.26 1.87 1.32 1.97H3.6l-.92-1.41-.9 1.41H.86Zm4.19-3.84v3.84h2.75v-.72H5.91V8.14zm4.55 3.21c-.25 0-.48-.04-.7-.11a2.1 2.1 0 0 1-.6-.3v.75c.17.11.36.19.59.25s.46.1.69.1c.31 0 .58-.05.81-.14s.41-.23.53-.41.19-.39.19-.63c0-.17-.03-.32-.1-.46s-.17-.25-.31-.35c-.15-.1-.34-.18-.59-.25l-.66-.2c-.15-.05-.26-.11-.31-.17a.32.32 0 0 1-.09-.23c0-.13.06-.23.17-.3s.27-.11.48-.11a2.065 2.065 0 0 1 1.18.36v-.76c-.16-.09-.33-.17-.53-.22-.19-.06-.41-.08-.65-.08-.29 0-.55.05-.77.14q-.33.135-.51.39c-.12.17-.18.38-.18.62 0 .17.03.33.09.46s.17.26.31.36.33.19.57.25l.67.2c.15.05.26.11.32.17s.1.14.1.24c0 .13-.06.23-.17.31s-.28.12-.52.12Zm5.44.63-1.32-1.97L15 8.14h-.92l-.84 1.33-.86-1.33h-.94l1.27 1.87-1.32 1.97h.92l.9-1.41.92 1.41h.95ZM1 6.5v-3A2.5 2.5 0 0 1 3.5 1h4.58c.21 0 .41.05.6.13 0 0 .02.01.03.01.16.07.31.17.43.3l3.2 3.2s.25.27.42.59c.02.04.04.07.06.12.09.2.17.41.17.64v.51c0 .28-.22.5-.5.5s-.5-.22-.5-.5V6h-2.5c-.83 0-1.5-.67-1.5-1.5V2H3.5C2.67 2 2 2.67 2 3.5v3c0 .28-.22.5-.5.5S1 6.78 1 6.5m8-3.79V4.5c0 .27.22.5.5.5h1.79zM12.58 13a.497.497 0 0 0-.63.32c-.14.41-.52.69-.95.69H3c-.42 0-.8-.27-.94-.66a.493.493 0 0 0-.64-.3c-.26.09-.4.38-.3.64.28.79 1.04 1.33 1.88 1.33h8a2 2 0 0 0 1.9-1.37.49.49 0 0 0-.32-.63Z"/></svg>
