<?xml version="1.0" encoding="UTF-8"?>
<svg xmlns="http://www.w3.org/2000/svg" viewBox="0 0 16 16"><path fill="none" d="M0 0H16V16H0z" data-name="Transparante laag"/><path d="M7.32 11.98V9.5l-1.18 1.63h-.02L4.95 9.49v2.49h-.82V8.14h.77l1.23 1.81 1.24-1.81h.76v3.84h-.82Zm4.56-3.26q.18.285.18.69c0 .405-.06.5-.18.69s-.28.33-.5.43-.46.15-.75.15H9.8v1.31h-.83V8.15h1.66c.28 0 .53.05.74.15s.38.24.49.43Zm-.63.69c0-.17-.05-.31-.16-.41s-.28-.15-.52-.15H9.8v1.14h.77c.23 0 .41-.05.52-.16s.16-.24.16-.42m3.7.76c-.1-.17-.24-.31-.43-.41-.1-.06-.22-.11-.35-.14l.92-1.44v-.02h-2.63v.71h1.44l-.8 1.22v.02c.24-.02.44 0 .62.04.17.04.31.11.41.21s.14.23.14.39c0 .12-.03.23-.08.32s-.13.16-.23.21-.23.07-.39.07q-.315 0-.6-.12c-.285-.12-.37-.21-.53-.37v.79c.15.13.33.23.53.3.21.07.43.11.67.11.3 0 .55-.05.77-.16s.38-.26.5-.45.18-.41.18-.66q0-.345-.15-.6Zm-2.05 3.46A1.99 1.99 0 0 1 11 15H3.5A2.5 2.5 0 0 1 1 12.5v-9A2.5 2.5 0 0 1 3.5 1h4.59c.21 0 .42.05.61.13.16.07.31.17.44.3l3.2 3.2s.25.27.42.58q.045.06.06.12c.09.19.17.41.17.64v.51c0 .28-.22.5-.5.5s-.5-.22-.5-.5v-.5h-2.5c-.83 0-1.5-.67-1.5-1.5v-2.5H3.5c-.83 0-1.5.67-1.5 1.5v9c0 .83.67 1.5 1.5 1.5H11c.43 0 .81-.28.95-.69.09-.26.37-.4.63-.32.26.09.4.37.32.63ZM9 2.71V4.5c0 .28.22.5.5.5h1.79z"/></svg>
