<?xml version="1.0" encoding="UTF-8"?>
<svg xmlns="http://www.w3.org/2000/svg" viewBox="0 0 16 16"><path fill="none" d="M0 0H16V16H0z" data-name="Transparante laag"/><path d="M9.03 11.98V9.5l-1.18 1.63h-.02L6.66 9.49v2.49h-.82V8.14h.77l1.23 1.81 1.24-1.81h.76v3.84h-.82Zm3.94-1.92c-.15-.1-.34-.18-.59-.25l-.66-.2c-.15-.05-.26-.11-.31-.17a.32.32 0 0 1-.09-.23c0-.13.06-.23.17-.3s.27-.11.48-.11a2.065 2.065 0 0 1 1.18.36V8.4c-.16-.09-.33-.17-.53-.22-.19-.06-.41-.08-.65-.08-.29 0-.55.05-.77.14q-.33.135-.51.39c-.12.17-.18.38-.18.62 0 .17.03.33.09.46s.17.26.31.36.33.19.57.25l.67.2c.15.05.26.11.32.17s.1.14.1.24c0 .13-.06.23-.17.31s-.28.12-.52.12-.48-.04-.7-.11a2.1 2.1 0 0 1-.6-.3v.75c.17.11.36.19.59.25s.46.1.69.1c.31 0 .58-.05.81-.14s.41-.23.53-.41.19-.39.19-.63c0-.17-.03-.32-.1-.46s-.17-.25-.31-.35Zm1.04-1.92v3.84h.84V8.14zm-1.11 5.49A1.99 1.99 0 0 1 11 15H3.5A2.5 2.5 0 0 1 1 12.5v-9A2.5 2.5 0 0 1 3.5 1h4.59c.21 0 .42.05.61.13.16.07.31.17.44.3l3.2 3.2s.25.27.42.58q.045.06.06.12c.09.19.17.41.17.64v.51c0 .28-.22.5-.5.5s-.5-.22-.5-.5v-.5h-2.5c-.83 0-1.5-.67-1.5-1.5v-2.5H3.5c-.83 0-1.5.67-1.5 1.5v9c0 .83.67 1.5 1.5 1.5H11c.43 0 .81-.28.95-.69.09-.26.37-.4.63-.32.26.09.4.37.32.63ZM9 2.71V4.5c0 .28.22.5.5.5h1.79z"/></svg>
