<?xml version="1.0" encoding="UTF-8"?>
<svg xmlns="http://www.w3.org/2000/svg" viewBox="0 0 16 16"><path fill="none" d="M0 0H16V16H0z" data-name="Transparante laag"/><path d="m4.76 10.79.69-2.65h.81l-1.08 3.84h-.75l-.73-2.6-.72 2.6h-.76L1.15 8.14h.82l.7 2.66.72-2.66h.64l.72 2.65Zm6.04 1.19V8.14h-.76L8.8 9.95 7.57 8.14H6.8v3.84h.82V9.49l1.17 1.64h.02L9.99 9.5v2.48h.82Zm3.38 0-.34-.86h-1.46l-.33.86h-.83l1.5-3.84h.81l1.5 3.84h-.84Zm-1.6-1.52h1.07l-.54-1.44zM1 6.5v-3A2.5 2.5 0 0 1 3.5 1h4.59c.21 0 .41.05.6.13 0 0 .02.01.03.01.16.07.31.17.43.3l3.2 3.2s.25.27.42.59c.02.04.04.07.06.12.09.2.17.41.17.64v.51c0 .28-.22.5-.5.5s-.5-.22-.5-.5V6H9.5C8.67 6 8 5.33 8 4.5V2H3.5C2.67 2 2 2.67 2 3.5v3c0 .28-.22.5-.5.5S1 6.78 1 6.5m8-3.79V4.5c0 .27.22.5.5.5h1.79zM12.58 13a.497.497 0 0 0-.63.32c-.14.41-.52.69-.95.69H3c-.42 0-.8-.27-.94-.66a.493.493 0 0 0-.64-.3c-.26.09-.4.38-.3.64.28.79 1.04 1.33 1.88 1.33h8a2 2 0 0 0 1.9-1.37.49.49 0 0 0-.32-.63Z"/></svg>
