<?xml version="1.0" encoding="UTF-8"?>
<svg xmlns="http://www.w3.org/2000/svg" viewBox="0 0 16 16"><path fill="none" d="M0 0H16V16H0z" data-name="Transparante laag"/><path d="M6.16 8.29c-.21-.1-.46-.15-.74-.15H3.76v3.84h.83v-1.31h.83q.42 0 .75-.15c.33-.15.38-.24.5-.43s.18-.42.18-.69-.06-.5-.18-.69-.28-.33-.49-.43Zm-.29 1.54c-.11.1-.28.16-.52.16h-.77V8.85h.77c.23 0 .41.05.52.15s.16.24.16.41-.05.31-.16.42m4.15.71V8.15h.82v3.84h-.66L8.29 9.48v2.51h-.82V8.15h.78zm4.89-.65v1.65q-.3.27-.66.39c-.25.08-.5.12-.77.12q-.57 0-1.02-.24c-.3-.16-.53-.39-.7-.69-.17-.29-.25-.64-.25-1.04s.08-.76.26-1.05c.17-.3.41-.53.71-.69.31-.16.66-.25 1.07-.25.23 0 .44.03.65.09s.38.14.52.24v.8c-.15-.11-.32-.2-.51-.26a2 2 0 0 0-.61-.09c-.26 0-.49.05-.67.15s-.33.24-.42.43-.15.4-.15.65.05.47.15.65.23.32.41.42.38.15.62.15q.24 0 .42-.06c.1-.03.19-.09.27-.15v-.6h-.76v-.62h1.45ZM12.58 13a.497.497 0 0 0-.63.32c-.14.41-.52.69-.95.69H3.5c-.83 0-1.5-.67-1.5-1.5V3.5C2 2.67 2.67 2 3.5 2H8v2.5C8 5.33 8.67 6 9.5 6H12v.5c0 .28.22.5.5.5s.5-.22.5-.5v-.51c0-.24-.07-.45-.17-.64a.3.3 0 0 0-.06-.12c-.17-.32-.39-.55-.42-.59l-3.2-3.2c-.12-.12-.27-.22-.43-.3 0 0-.02-.01-.03-.01a1.5 1.5 0 0 0-.6-.13H3.5A2.5 2.5 0 0 0 1 3.5v9A2.5 2.5 0 0 0 3.5 15H11a2 2 0 0 0 1.9-1.37.49.49 0 0 0-.32-.63m-1.29-8H9.5c-.28 0-.5-.22-.5-.5V2.71z"/></svg>
