<?xml version="1.0" encoding="UTF-8"?>
<svg xmlns="http://www.w3.org/2000/svg" viewBox="0 0 16 16"><path fill="none" d="M0 0H16V16H0z" data-name="Transparante laag"/><path d="M9 8c0 .55-.45 1-1 1s-1-.45-1-1 .45-1 1-1 1 .45 1 1m5.81 2.2-1.25 2.17a1 1 0 0 1-1.37.37l-.77-.45c-.43.34-.9.61-1.42.81v1.4c0 .28-.22.5-.5.5H7c-.55 0-1-.45-1-1v-.9c-.52-.2-1-.47-1.42-.81l-.77.45c-.48.28-1.09.11-1.37-.37l-1-1.73c-.13-.23-.17-.5-.1-.76a1 1 0 0 1 .47-.61l.76-.44c-.05-.28-.07-.56-.07-.83s.02-.54.07-.83l-.76-.44a1 1 0 0 1-.37-1.37l1-1.73c.28-.48.89-.64 1.37-.37l.77.45c.43-.34.9-.61 1.42-.81V2c0-.55.45-1 1-1h2c.55 0 1 .45 1 1v.9c.52.2 1 .47 1.42.81l1.21-.7c.24-.14.54-.06.68.18l1.25 2.17c.13.23.17.5.1.76a1 1 0 0 1-.47.61l-.76.44c.04.28.07.56.07.83s-.02.55-.07.83l1.2.69c.11.07.2.18.23.3s.02.26-.05.38M10 8c0-1.1-.9-2-2-2s-2 .9-2 2 .9 2 2 2 2-.9 2-2"/></svg>
