<?xml version="1.0" encoding="UTF-8"?>
<svg xmlns="http://www.w3.org/2000/svg" viewBox="0 0 16 16"><path fill="none" d="M0 0H16V16H0z" data-name="Transparante laag"/><path d="M13.8 1.2a.68.68 0 0 0-.48-.2h-2.2c-.28 0-.5.22-.5.5s.22.5.5.5h1.18l-1.85 1.85C9.77 3.32 8.93 3 8.01 3c-2.21 0-4 1.79-4 4 0 2.03 1.53 3.7 3.5 3.95V12h-1.5c-.28 0-.5.22-.5.5s.22.5.5.5h1.5v1.5c0 .28.22.5.5.5s.5-.22.5-.5V13h1.5c.28 0 .5-.22.5-.5s-.22-.5-.5-.5h-1.5v-1.05c1.97-.25 3.5-1.92 3.5-3.95 0-.92-.33-1.76-.85-2.44l1.85-1.85v1.18c0 .28.22.5.5.5s.5-.22.5-.5v-2.2a.68.68 0 0 0-.2-.49ZM8 10c-1.65 0-3-1.35-3-3s1.35-3 3-3 3 1.35 3 3-1.35 3-3 3"/></svg>
