<?xml version="1.0" encoding="UTF-8"?>
<svg xmlns="http://www.w3.org/2000/svg" viewBox="0 0 16 16"><path fill="none" d="M0 0H16V16H0z" data-name="Transparante laag"/><path d="M11.71 4.02c.18-.3.29-.65.29-1.02 0-1.1-.9-2-2-2h-.5c-.6 0-1.13.27-1.5.69C7.63 1.27 7.1 1 6.5 1H6c-1.1 0-2 .9-2 2 0 .37.11.72.29 1.02A2.494 2.494 0 0 0 2 6.5v5A2.5 2.5 0 0 0 4.5 14h7a2.5 2.5 0 0 0 2.5-2.5v-5c0-1.31-1.01-2.37-2.29-2.48M13 6.5V7h-3V5h1.5c.83 0 1.5.67 1.5 1.5M7 5h2v8H7zm2.5-3h.5c.55 0 1 .45 1 1s-.45 1-1 1H8.5V3c0-.55.45-1 1-1M6 2h.5c.55 0 1 .45 1 1v1H6c-.55 0-1-.45-1-1s.45-1 1-1M4.5 5H6v2H3v-.5C3 5.67 3.67 5 4.5 5M3 11.5V8h3v5H4.5c-.83 0-1.5-.67-1.5-1.5m8.5 1.5H10V8h3v3.5c0 .83-.67 1.5-1.5 1.5"/></svg>
