<?xml version="1.0" encoding="UTF-8"?>
<svg xmlns="http://www.w3.org/2000/svg" viewBox="0 0 16 16"><path fill="none" d="M0 0H16V16H0z" data-name="Transparante laag"/><path d="M13.5 8.74c.92.54 1.5 1.53 1.5 2.6v1.33c0 1.29-1.05 2.33-2.33 2.33H3.33C2.04 15 1 13.95 1 12.67v-1.33c0-1.07.57-2.06 1.5-2.6.24-.14.54-.06.68.18s.06.54-.18.68c-.6.35-1 .99-1 1.73v1.33c0 .74.6 1.33 1.33 1.33h9.33c.74 0 1.33-.6 1.33-1.33v-1.33c0-.74-.4-1.39-1-1.73a.493.493 0 0 1-.18-.68c.14-.24.44-.32.68-.18M10 7.5v-3c0-.28-.22-.5-.5-.5h-3c-.28 0-.5.22-.5.5v3c0 .28.22.5.5.5h3c.28 0 .5-.22.5-.5M7 5h2v2H7zm5-1.39v7.77c0 .89-.72 1.61-1.61 1.61H5.62c-.89 0-1.61-.72-1.61-1.61V3.61c0-.89.72-1.61 1.61-1.61h3.39v-.5c0-.28.22-.5.5-.5s.5.22.5.5V2h.39c.89 0 1.61.72 1.61 1.61Zm-1 0c0-.34-.28-.61-.61-.61H5.62c-.34 0-.61.28-.61.61v7.77c0 .34.28.61.61.61h4.77c.34 0 .61-.28.61-.61z"/></svg>
