<?xml version="1.0" encoding="UTF-8"?>
<svg xmlns="http://www.w3.org/2000/svg" viewBox="0 0 16 16"><path fill="none" d="M0 0H16V16H0z" data-name="Transparante laag"/><path d="M14 8c0 .28-.22.5-.5.5h-9c-.28 0-.5-.22-.5-.5s.22-.5.5-.5h9c.28 0 .5.22.5.5m-.5 3h-9c-.28 0-.5.22-.5.5s.22.5.5.5h9c.28 0 .5-.22.5-.5s-.22-.5-.5-.5m-11-3.5c-.28 0-.5.23-.5.5s.23.5.5.5.5-.23.5-.5-.23-.5-.5-.5m2-2.5h9c.28 0 .5-.22.5-.5s-.22-.5-.5-.5h-9c-.28 0-.5.22-.5.5s.22.5.5.5m-2-1.01c-.28 0-.5.23-.5.5s.23.51.5.51.5-.23.5-.51-.23-.5-.5-.5m0 7.01c-.28 0-.5.23-.5.5s.23.5.5.5.5-.23.5-.5-.23-.5-.5-.5"/></svg>
