<?xml version="1.0" encoding="UTF-8"?>
<svg xmlns="http://www.w3.org/2000/svg" viewBox="0 0 16 16"><path fill="none" d="M0 0H16V16H0z" data-name="Transparante laag"/><path d="M12.5 1h-9A2.5 2.5 0 0 0 1 3.5v9A2.5 2.5 0 0 0 3.5 15h9a2.5 2.5 0 0 0 2.5-2.5v-9A2.5 2.5 0 0 0 12.5 1M14 12.5c0 .83-.67 1.5-1.5 1.5h-9c-.83 0-1.5-.67-1.5-1.5v-9C2 2.67 2.67 2 3.5 2h9c.83 0 1.5.67 1.5 1.5zm-2.15-8.35c-.2-.2-.51-.2-.71 0l-2.5 2.5L6.9 4.21A.5.5 0 0 0 6.49 4h-2c-.19 0-.36.1-.44.27-.09.17-.07.37.04.52l2.67 3.74-2.62 2.62c-.2.2-.2.51 0 .71a.485.485 0 0 0 .7 0l2.5-2.5 1.74 2.44c.09.13.25.21.41.21h2c.19 0 .36-.1.44-.27.09-.17.07-.37-.04-.52L9.22 7.48l2.62-2.62c.2-.2.2-.51 0-.71ZM9.76 11 5.47 5h.77l4.29 6z"/></svg>
