<?xml version="1.0" encoding="UTF-8"?>
<svg xmlns="http://www.w3.org/2000/svg" viewBox="0 0 16 16"><path fill="none" d="M0 0H16V16H0z" data-name="Transparante laag"/><path d="M8.01 1c1.92 0 3.57.68 4.93 2.05 1.37 1.37 2.05 3.02 2.05 4.96s-.68 3.57-2.05 4.93c-1.37 1.37-3.01 2.05-4.93 2.05s-3.59-.68-4.96-2.05S1 9.93 1 8.01s.67-3.56 2.02-4.92S6 1.03 7.9 1zm-4.6 3.19v.86h1.05v7.24h1.69v-8.6H4.82zm3.97.41v1.66H9.1V5.15h1.25v1.64l-2.97 2.5v2.99h4.6v-1.52H9.07v-.75l2.91-2.41V4.61l-.89-.91H8.21l-.83.91Z"/></svg>
