<?xml version="1.0" encoding="UTF-8"?>
<svg xmlns="http://www.w3.org/2000/svg" viewBox="0 0 16 16"><path fill="none" d="M0 0H16V16H0z" data-name="Transparante laag"/><path d="M8.01 1c1.92 0 3.57.68 4.93 2.05 1.37 1.37 2.05 3.02 2.05 4.96s-.68 3.57-2.05 4.93c-1.37 1.37-3.01 2.05-4.93 2.05s-3.59-.68-4.96-2.05S1 9.93 1 8.01s.68-3.57 2.04-4.93C4.4 1.71 6.04 1.02 7.96 1h.06ZM3.58 4.13v.83h1.03V12h1.64V3.66H4.97zm3.99.45v6.57l.86.86h2.77l.86-.86V7.88l-.91-.89H9.71l-.5.5V5.05h1.19V6.1h1.66V4.58l-.86-.91H8.4zm2.83 3.79v2.22H9.21V8.37z"/></svg>
