<?xml version="1.0" encoding="UTF-8"?>
<svg xmlns="http://www.w3.org/2000/svg" viewBox="0 0 16 16"><path fill="none" d="M0 0H16V16H0z" data-name="Transparante laag"/><path d="M15 5.5v5a2.5 2.5 0 0 1-2.5 2.5H8.99c-.28 0-.5-.22-.5-.5s.22-.5.5-.5h3.51c.83 0 1.5-.67 1.5-1.5v-5c0-.83-.67-1.5-1.5-1.5H3c-.55 0-1 .45-1 1 0 .28-.22.5-.5.5S1 5.28 1 5c0-1.1.9-2 2-2h9.5A2.5 2.5 0 0 1 15 5.5M1.5 12c-.28 0-.5.23-.5.5s.23.5.5.5.5-.23.5-.5-.23-.5-.5-.5m0-2.5c-.28 0-.5.22-.5.5s.22.5.5.5c1.1 0 2 .9 2 2 0 .28.22.5.5.5s.5-.22.5-.5c0-1.65-1.35-3-3-3m0-2.5c-.28 0-.5.22-.5.5s.22.5.5.5C3.98 8 6 10.02 6 12.5c0 .28.22.5.5.5s.5-.22.5-.5C7 9.47 4.53 7 1.5 7"/></svg>
