<?xml version="1.0" encoding="UTF-8"?>
<svg xmlns="http://www.w3.org/2000/svg" viewBox="0 0 16 16"><path fill="none" d="M0 0H16V16H0z" data-name="Transparante laag"/><path d="M14.61 9.34a.49.49 0 0 0-.5-.11c-.53.18-1.07.27-1.61.27-2.76 0-5-2.24-5-5 0-.97.28-1.91.81-2.72.1-.16.11-.35.02-.52A.51.51 0 0 0 7.89 1c-3.79.06-6.88 3.2-6.88 6.99s3.14 7 7 7a7.01 7.01 0 0 0 6.75-5.16c.05-.18 0-.37-.14-.5ZM8 14c-3.31 0-6-2.69-6-6 0-2.95 2.18-5.43 5.01-5.91A6.1 6.1 0 0 0 6.5 4.5a6.005 6.005 0 0 0 6.99 5.92A6.01 6.01 0 0 1 8 14"/></svg>
