<?xml version="1.0" encoding="UTF-8"?>
<svg xmlns="http://www.w3.org/2000/svg" viewBox="0 0 16 16"><path fill="none" d="M0 0H16V16H0z" data-name="Transparante laag"/><path d="M5.5 6h-3C1.67 6 1 5.33 1 4.5v-2C1 1.67 1.67 1 2.5 1h3C6.33 1 7 1.67 7 2.5v2C7 5.33 6.33 6 5.5 6m-3-4c-.28 0-.5.22-.5.5v2c0 .28.22.5.5.5h3c.28 0 .5-.22.5-.5v-2c0-.28-.22-.5-.5-.5zm3 13h-3c-.83 0-1.5-.67-1.5-1.5v-5C1 7.67 1.67 7 2.5 7h3C6.33 7 7 7.67 7 8.5v5c0 .83-.67 1.5-1.5 1.5m-3-7c-.28 0-.5.22-.5.5v5c0 .28.22.5.5.5h3c.28 0 .5-.22.5-.5v-5c0-.28-.22-.5-.5-.5zm11 1h-4C8.67 9 8 8.33 8 7.5v-5C8 1.67 8.67 1 9.5 1h4c.83 0 1.5.67 1.5 1.5v5c0 .83-.67 1.5-1.5 1.5m-4-7c-.28 0-.5.22-.5.5v5c0 .28.22.5.5.5h4c.28 0 .5-.22.5-.5v-5c0-.28-.22-.5-.5-.5zm4 13h-4c-.83 0-1.5-.67-1.5-1.5v-2c0-.83.67-1.5 1.5-1.5h4c.83 0 1.5.67 1.5 1.5v2c0 .83-.67 1.5-1.5 1.5m-4-4c-.28 0-.5.22-.5.5v2c0 .28.22.5.5.5h4c.28 0 .5-.22.5-.5v-2c0-.28-.22-.5-.5-.5z"/></svg>
