<?xml version="1.0" encoding="UTF-8"?>
<svg xmlns="http://www.w3.org/2000/svg" viewBox="0 0 16 16"><path fill="none" d="M0 0H16V16H0z" data-name="Transparante laag"/><path d="M12.95 3.05c-1.7-1.7-4.15-2.4-6.54-1.87a6.91 6.91 0 0 0-5.22 5.16c-.43 1.86-.13 3.73.84 5.31l-.6 1.62c-.14.38-.05.78.24 1.06s.7.36 1.07.21l1.54-.62A6.9 6.9 0 0 0 8 15q.81 0 1.62-.18c2.31-.52 4.69-2.91 5.21-5.23.53-2.39-.17-4.84-1.88-6.54M5 8.75c-.41 0-.75-.34-.75-.75s.34-.75.75-.75.75.34.75.75-.34.75-.75.75m3 0c-.41 0-.75-.34-.75-.75s.34-.75.75-.75.75.34.75.75-.34.75-.75.75m3 0c-.41 0-.75-.34-.75-.75s.34-.75.75-.75.75.34.75.75-.34.75-.75.75"/></svg>
