<?xml version="1.0" encoding="UTF-8"?>
<svg xmlns="http://www.w3.org/2000/svg" viewBox="0 0 16 16"><path fill="none" d="M0 0H16V16H0z" data-name="Transparante laag"/><path d="M14.51 1.49c-.45-.45-1.1-.6-1.7-.4L2.14 4.64c-.68.23-1.13.84-1.14 1.55-.01.72.42 1.34 1.09 1.59l4.19 1.54c.18.07.33.21.39.39l1.54 4.19c.24.66.86 1.09 1.56 1.09h.03c.72-.01 1.33-.46 1.55-1.14l3.56-10.67c.2-.6.05-1.26-.4-1.71Zm-.55 1.39L10.4 13.55c-.14.42-.51.45-.62.46-.11 0-.48-.02-.63-.44L7.61 9.38a1.67 1.67 0 0 0-.99-.99L2.43 6.85a.65.65 0 0 1-.44-.63c0-.11.04-.48.46-.62l10.67-3.56c.07-.02.14-.04.22-.04.17 0 .34.07.46.2.18.18.24.44.16.68"/></svg>
