<?xml version="1.0" encoding="UTF-8"?>
<svg xmlns="http://www.w3.org/2000/svg" viewBox="0 0 16 16"><path fill="none" d="M0 0H16V16H0z" data-name="Transparante laag"/><path d="M13.5 12c.28 0 .5-.22.5-.5s-.22-.5-.5-.5H13V8.5s-.01-.04-.01-.07c.87-.22 1.51-1 1.51-1.93 0-1.1-.9-2-2-2s-2 .9-2 2c0 .93.65 1.71 1.51 1.93 0 .02-.01.04-.01.07v6c0 .28.22.5.5.5s.5-.22.5-.5V14h.5c.28 0 .5-.22.5-.5s-.22-.5-.5-.5H13v-1zm-2-5.5c0-.55.45-1 1-1s1 .45 1 1-.45 1-1 1-1-.45-1-1M7 8C5.07 8 3.5 6.43 3.5 4.5S5.07 1 7 1s3.5 1.57 3.5 3.5S8.93 8 7 8m0-6a2.5 2.5 0 0 0 0 5 2.5 2.5 0 0 0 0-5m3.47 13H2.53c-.46 0-.88-.2-1.18-.54-.29-.34-.41-.78-.33-1.22l.11-.61C1.59 9.95 3.94 8 6.71 8h.59c1.54 0 2.99.6 4.06 1.69.19.2.19.51 0 .71-.2.19-.51.19-.71 0-.89-.9-2.08-1.39-3.35-1.39h-.59c-2.28 0-4.21 1.6-4.59 3.8l-.11.61c-.03.15.01.29.11.4.1.12.25.19.41.19h7.94c.28 0 .5.22.5.5s-.22.5-.5.5Z"/></svg>
