<?xml version="1.0" encoding="UTF-8"?>
<svg xmlns="http://www.w3.org/2000/svg" viewBox="0 0 16 16"><path fill="none" d="M0 0H16V16H0z" data-name="Transparante laag"/><path d="m14.84 8.58-5.31 5.03c-.97.92-2.25 1.38-3.53 1.38s-2.56-.46-3.53-1.38c-.95-.9-1.48-2.1-1.48-3.38s.52-2.48 1.48-3.38l5.05-4.78c1.51-1.43 3.96-1.43 5.47 0 .74.7 1.15 1.63 1.15 2.62s-.41 1.93-1.15 2.63L7.95 12.1c-1.07 1.01-2.81 1.01-3.87 0-.53-.5-.82-1.16-.82-1.87s.29-1.37.82-1.87l3.98-3.77c.2-.19.52-.18.71.02s.18.52-.02.71L4.77 9.09c-.32.31-.5.71-.5 1.15 0 .43.18.84.5 1.14.69.65 1.81.66 2.5 0l5.04-4.78c.54-.51.83-1.18.83-1.9s-.3-1.39-.83-1.9c-1.13-1.07-2.96-1.07-4.09 0L3.16 7.58C2.41 8.29 2 9.23 2 10.24c0 1 .41 1.94 1.16 2.65 1.57 1.48 4.12 1.49 5.68 0l5.31-5.03c.2-.19.52-.18.71.02s.18.52-.02.71Z"/></svg>
