<?xml version="1.0" encoding="UTF-8"?>
<svg xmlns="http://www.w3.org/2000/svg" viewBox="0 0 16 16"><path fill="none" d="M0 0H16V16H0z" data-name="Transparante laag"/><path d="M11 8.25v4.5c0 .09.03.17.05.25h-3.1c.02-.08.05-.16.05-.25v-3.5C8 8.56 7.44 8 6.75 8H4V4c0-.55.45-1 1-1h6c.55 0 1 .45 1 1v3.05c-.57.12-1 .6-1 1.2M6.75 9h-4.5c-.14 0-.25.11-.25.25v3.5c0 .14.11.25.25.25h4.5c.14 0 .25-.11.25-.25v-3.5C7 9.11 6.89 9 6.75 9m7-1h-1.5c-.14 0-.25.11-.25.25v4.5c0 .14.11.25.25.25h1.5c.14 0 .25-.11.25-.25v-4.5c0-.14-.11-.25-.25-.25"/></svg>
