<?xml version="1.0" encoding="UTF-8"?>
<svg xmlns="http://www.w3.org/2000/svg" viewBox="0 0 16 16"><path fill="none" d="M0 0H16V16H0z" data-name="Transparante laag"/><path d="M7 1.5H3.5c-1.1 0-2 .9-2 2V7c0 .28.22.5.5.5h5c.28 0 .5-.22.5-.5V2c0-.28-.22-.5-.5-.5m-.5 5h-4v-3c0-.55.45-1 1-1h3zM3.5 5V4c0-.28.22-.5.5-.5h1c.28 0 .5.22.5.5v1c0 .28-.22.5-.5.5H4c-.28 0-.5-.22-.5-.5M9 7.5h5c.28 0 .5-.22.5-.5V3.5c0-1.1-.9-2-2-2H9c-.28 0-.5.22-.5.5v5c0 .28.22.5.5.5m.5-5h3c.55 0 1 .45 1 1v3h-4zm3 1.5v1c0 .28-.22.5-.5.5h-1c-.28 0-.5-.22-.5-.5V4c0-.28.22-.5.5-.5h1c.28 0 .5.22.5.5M7 8.5H2c-.28 0-.5.22-.5.5v3.5c0 1.1.9 2 2 2H7c.28 0 .5-.22.5-.5V9c0-.28-.22-.5-.5-.5m-.5 5h-3c-.55 0-1-.45-1-1v-3h4zm-3-1.5v-1c0-.28.22-.5.5-.5h1c.28 0 .5.22.5.5v1c0 .28-.22.5-.5.5H4c-.28 0-.5-.22-.5-.5m6-1v3c0 .28-.22.5-.5.5s-.5-.22-.5-.5v-3c0-.28.22-.5.5-.5s.5.22.5.5m5 1.5c0 1.1-.9 2-2 2H11c-.28 0-.5-.22-.5-.5s.22-.5.5-.5h1.5c.55 0 1-.45 1-1 0-.28.22-.5.5-.5s.5.22.5.5M8.5 9c0-.28.22-.5.5-.5h3c.28 0 .5.22.5.5s-.22.5-.5.5H9c-.28 0-.5-.22-.5-.5m4 2v1c0 .28-.22.5-.5.5h-1c-.28 0-.5-.22-.5-.5v-1c0-.28.22-.5.5-.5h1c.28 0 .5.22.5.5m2-2v1.5c0 .28-.22.5-.5.5s-.5-.22-.5-.5V9c0-.28.22-.5.5-.5s.5.22.5.5"/></svg>
