<?xml version="1.0" encoding="UTF-8"?>
<svg xmlns="http://www.w3.org/2000/svg" viewBox="0 0 16 16"><path fill="none" d="M0 0H16V16H0z" data-name="Transparante laag"/><path d="M8 1C4.14 1 1 4.14 1 8s3.14 7 7 7 7-3.14 7-7-3.14-7-7-7m0 11.5c-.28 0-.5-.23-.5-.5s.23-.5.5-.5.5.23.5.5-.23.5-.5.5m1.47-4.08c-.6.4-.98.68-.98 1.18v.4c0 .28-.22.5-.5.5s-.5-.22-.5-.5v-.4c0-1.07.79-1.59 1.42-2.01.6-.4.98-.68.98-1.18a1.9 1.9 0 1 0-3.8 0c0 .28-.22.5-.5.5s-.5-.22-.5-.5c0-1.6 1.3-2.9 2.9-2.9s2.9 1.3 2.9 2.9c0 1.07-.79 1.59-1.42 2.01"/></svg>
