<?xml version="1.0" encoding="UTF-8"?>
<svg xmlns="http://www.w3.org/2000/svg" viewBox="0 0 16 16"><path fill="none" d="M0 0H16V16H0z" data-name="Transparante laag"/><path d="M13 9H8.5V7c0-.28-.22-.5-.5-.5s-.5.22-.5.5v2H3c-1.1 0-2 .9-2 2v1c0 1.1.9 2 2 2h10c1.1 0 2-.9 2-2v-1c0-1.1-.9-2-2-2m1 3c0 .55-.45 1-1 1H3c-.55 0-1-.45-1-1v-1c0-.55.45-1 1-1h10c.55 0 1 .45 1 1zm-1.49-.5c0 .28-.23.51-.5.51s-.51-.23-.51-.51.23-.5.51-.5.5.23.5.5M9.85 4.76c.2.2.2.51 0 .71a.485.485 0 0 1-.7 0c-.63-.63-1.66-.63-2.29 0-.2.2-.51.2-.71 0s-.2-.51 0-.71a2.63 2.63 0 0 1 3.71 0Zm-5.7-.46c-.2-.2-.2-.51 0-.71 2.12-2.12 5.58-2.12 7.71 0 .2.2.2.51 0 .71a.485.485 0 0 1-.7 0c-1.74-1.73-4.56-1.73-6.29 0-.2.2-.51.2-.71 0Z"/></svg>
