<?xml version="1.0" encoding="UTF-8"?>
<svg xmlns="http://www.w3.org/2000/svg" viewBox="0 0 16 16"><path fill="none" d="M0 0H16V16H0z" data-name="Transparante laag"/><path d="M8 15c-1.03 0-2.03-.22-2.96-.66a.504.504 0 0 1 .43-.91 6.005 6.005 0 0 0 8.02-7.89c-.11-.25 0-.55.25-.66.25-.12.55 0 .66.25.41.9.61 1.87.61 2.86 0 3.86-3.14 7-7 7Zm6.85-13.15-13 13a.485.485 0 0 1-.7 0c-.2-.2-.2-.51 0-.71l1.57-1.57A6.98 6.98 0 0 1 1 7.99c0-3.86 3.14-7 7-7 1.69 0 3.31.61 4.58 1.71l1.57-1.57c.2-.2.51-.2.71 0s.2.51 0 .71ZM3.44 11.86l2.12-2.13C5.2 9.23 5 8.63 5 8c0-1.65 1.35-3 3-3 .63 0 1.22.2 1.73.56l2.13-2.13A5.92 5.92 0 0 0 8 2C4.69 2 2 4.69 2 8c0 1.43.52 2.78 1.44 3.86m5.57-5.58C8.7 6.1 8.36 6 8 6c-1.1 0-2 .9-2 2 0 .36.1.71.28 1.01zm-.73 4.71c1.31-.12 2.4-1.1 2.66-2.38a.495.495 0 0 0-.39-.59.5.5 0 0 0-.59.39c-.18.86-.9 1.51-1.77 1.59a.5.5 0 0 0 .05 1h.05Z"/></svg>
