<?xml version="1.0" encoding="UTF-8"?>
<svg xmlns="http://www.w3.org/2000/svg" viewBox="0 0 16 16"><path fill="none" d="M0 0H16V16H0z" data-name="Transparante laag"/><path d="m14.85 1.85-13 13a.485.485 0 0 1-.7 0c-.2-.2-.2-.51 0-.71l1.57-1.57a6.97 6.97 0 0 1-1.71-4.58c0-3.86 3.14-7 7-7 1.7 0 3.31.61 4.58 1.71l1.57-1.57c.2-.2.51-.2.71 0s.2.51 0 .71ZM3.42 11.87l2.15-2.15C5.22 9.23 5 8.64 5 8c0-1.65 1.35-3 3-3 .64 0 1.23.22 1.72.57l2.15-2.15A5.94 5.94 0 0 0 8 2C4.69 2 2 4.69 2 8c0 1.43.5 2.79 1.42 3.87m4.16-1.33 2.9-2.9s.51-.47.52.36c0 0-.02 2.74-2.83 2.97 0 0-1.06.04-.59-.44ZM8 15c-1.03 0-2.03-.22-2.96-.66a.504.504 0 0 1 .43-.91 6.005 6.005 0 0 0 8.02-7.89c-.11-.25 0-.55.25-.66.25-.12.55 0 .66.25.41.9.61 1.87.61 2.86 0 3.86-3.14 7-7 7Z"/></svg>
