<?xml version="1.0" encoding="UTF-8"?>
<svg xmlns="http://www.w3.org/2000/svg" viewBox="0 0 16 16"><path fill="none" d="M0 0H16V16H0z" data-name="Transparante laag"/><path d="M4 12.01c-.28 0-.5-.23-.5-.51s.23-.5.5-.5.5.23.5.5-.23.51-.5.51m0-.51"/><path d="M13 9h-1.18l2.59-3.71c.16-.23.1-.54-.12-.7a.51.51 0 0 0-.7.12l-2.88 4.13s-.05.1-.07.15H5.36a.34.34 0 0 0-.07-.15L2.41 4.71a.5.5 0 0 0-.7-.12c-.23.16-.28.47-.12.7L4.18 9H3c-1.1 0-2 .9-2 2v1c0 1.1.9 2 2 2h10c1.1 0 2-.9 2-2v-1c0-1.1-.9-2-2-2m1 3c0 .55-.45 1-1 1H3c-.55 0-1-.45-1-1v-1c0-.55.45-1 1-1h10c.55 0 1 .45 1 1zM11 4.22c-.13 0-.25-.05-.35-.14-1.46-1.43-3.84-1.43-5.3 0-.2.19-.51.19-.71 0a.513.513 0 0 1 0-.71c1.85-1.81 4.85-1.81 6.7 0 .2.19.2.51 0 .71-.1.1-.23.15-.36.15Z"/><path d="M8 7.5a.67.67 0 1 1 0-1.34.67.67 0 0 1 0 1.34M9.5 5.69c-.13 0-.25-.05-.35-.14-.63-.62-1.67-.62-2.3 0-.2.19-.51.19-.71 0a.513.513 0 0 1 0-.71c1.02-1 2.68-1 3.7 0 .2.19.2.51 0 .71-.1.1-.23.15-.36.15ZM6 12.01c-.28 0-.5-.23-.5-.51s.23-.5.5-.5.5.23.5.5-.23.51-.5.51m0-.51"/></svg>
