<?xml version="1.0" encoding="UTF-8"?>
<svg xmlns="http://www.w3.org/2000/svg" viewBox="0 0 16 16"><path fill="none" d="M0 0H16V16H0z" data-name="Transparante laag"/><path d="m14.63 7.55-2.43 2.47.57 3.5c.08.49-.12.97-.52 1.26-.38.27-.87.3-1.28.07l-2.98-1.64-2.98 1.64c-.18.1-.38.15-.58.15-.25 0-.49-.08-.7-.22-.4-.28-.6-.76-.52-1.26l.57-3.5-2.43-2.47c-.34-.34-.45-.85-.3-1.31.15-.45.53-.77.99-.84l3.34-.51 1.5-3.17c.21-.44.63-.71 1.11-.71s.9.27 1.11.71l1.5 3.17 3.34.51c.46.07.84.39.99.84.16.46.04.97-.3 1.31"/></svg>
