<?xml version="1.0" encoding="UTF-8"?>
<svg xmlns="http://www.w3.org/2000/svg" viewBox="0 0 16 16"><path fill="none" d="M0 0H16V16H0z" data-name="Transparante laag"/><path d="M13.5 1h-2c-.83 0-1.5.67-1.5 1.5V7H9a.47.47 0 0 0-.35.15c-.1.1-.3.3-1.62 4.69-.29.92-.59 1.07-1.19 1.07h-.02c-.71 0-.82-.57-.82-.91V9.49c0-.28-.22-.5-.5-.5h-2c-.18 0-.34-.06-.42-.15-.06-.07-.09-.17-.07-.3l.5-4.98C2.62 2.55 3.37 2 4.01 2h5c.28 0 .5-.22.5-.5s-.22-.5-.5-.5h-5c-1.08 0-2.32.86-2.5 2.45l-.5 4.98c-.05.41.07.79.32 1.07.28.31.7.48 1.17.48h1.51v2.01c0 1.14.73 1.9 1.81 1.91h.02c1.13 0 1.75-.52 2.15-1.78.51-1.7 1.11-3.58 1.32-4.13h.8c.21.58.76 1 1.41 1h2c.83 0 1.5-.67 1.5-1.5V2.5c0-.83-.67-1.5-1.5-1.5Zm.5 6.5c0 .28-.22.5-.5.5h-2c-.28 0-.5-.22-.5-.5v-5c0-.28.22-.5.5-.5h2c.28 0 .5.22.5.5z"/></svg>
