<?xml version="1.0" encoding="UTF-8"?>
<svg xmlns="http://www.w3.org/2000/svg" viewBox="0 0 16 16"><path fill="none" d="M0 0H16V16H0z" data-name="Transparante laag"/><path d="M14.22 4.17c-.48-.25-1.02-.22-1.47.08L10.92 5.5c-.23-.86-1-1.5-1.93-1.5H3c-1.1 0-2 .9-2 2v4c0 1.1.9 2 2 2h6c.93 0 1.7-.64 1.93-1.5l1.83 1.25a1.4 1.4 0 0 0 1.47.08c.48-.25.78-.75.78-1.3V5.46c0-.55-.3-1.04-.78-1.3ZM10 10c0 .55-.45 1-1 1H3c-.55 0-1-.45-1-1V6c0-.55.45-1 1-1h6c.55 0 1 .45 1 1zm4 .54c0 .18-.09.33-.24.41-.07.04-.25.11-.44-.03L11 9.34V6.66l2.32-1.58c.2-.13.37-.06.44-.03.15.08.24.24.24.41v5.07Z"/></svg>
