<?xml version="1.0" encoding="UTF-8"?>
<svg xmlns="http://www.w3.org/2000/svg" viewBox="0 0 16 16"><path fill="none" d="M0 0H16V16H0z" data-name="Transparante laag"/><path d="M14.76 3.68a.5.5 0 0 0-.36-.32.49.49 0 0 0-.46.13L12.03 5.4l-1.12-.3-.3-1.12 1.92-1.92c.12-.12.17-.3.13-.46a.5.5 0 0 0-.32-.36C9.56.24 7 2.35 7 4.99c0 .34.05.68.15 1.03l-5.56 5.56a1.983 1.983 0 0 0 0 2.82c.38.37.88.59 1.41.59s1.04-.21 1.41-.59l5.56-5.56c2.64.73 5.02-1.31 5.02-3.86 0-.43-.08-.86-.24-1.32ZM11 8c-.32 0-.64-.06-1-.18a.5.5 0 0 0-.52.12l-5.77 5.77c-.38.38-1.04.38-1.41 0-.19-.19-.29-.44-.29-.71s.1-.52.29-.71l5.77-5.77c.14-.14.18-.34.12-.52C8.07 5.65 8 5.32 8 5c0-1.65 1.35-3 3-3h.18L9.7 3.48c-.13.13-.18.31-.13.48l.45 1.67c.05.17.18.31.35.35l1.67.45c.17.04.36 0 .48-.13l1.47-1.47v.15c0 1.65-1.35 3-3 3Z"/></svg>
