<?xml version="1.0" encoding="UTF-8"?>
<svg xmlns="http://www.w3.org/2000/svg" viewBox="0 0 16 16"><path fill="none" d="M0 0H16V16H0z" data-name="Transparante laag"/><path d="M14.85 5.78c.2.19.2.51 0 .71a.51.51 0 0 1-.71.01c-.13-.13-.27-.26-.41-.38a.505.505 0 0 1-.05-.71c.18-.21.5-.23.71-.05.16.13.31.27.46.42m-2.78-1.15 2.78-2.78c.2-.2.2-.51 0-.71s-.51-.2-.71 0l-2.55 2.55C8.03 2.3 3.87 3.1 1.14 5.77c-.2.19-.2.51 0 .71a.51.51 0 0 0 .71.01c2.34-2.29 5.86-3.05 8.96-2.01L9.18 6.11c-2.14-.38-4.31.27-5.86 1.79-.2.19-.2.51 0 .71a.51.51 0 0 0 .71.01 5.64 5.64 0 0 1 4.26-1.6l-7.14 7.13c-.2.2-.2.51 0 .71a.485.485 0 0 0 .7 0zm.17 2.87a.494.494 0 0 0-.7.07c-.18.21-.14.53.07.7.13.11.26.22.38.34.1.1.22.14.35.14s.26-.05.36-.15c.19-.2.19-.51 0-.71-.14-.14-.29-.28-.45-.4Zm-2.2 2.13a.5.5 0 0 0-.7.13.5.5 0 0 0 .13.7c.12.08.23.17.34.28a.508.508 0 0 0 .71-.01c.19-.2.19-.51 0-.71-.15-.14-.31-.27-.47-.39Zm-1.29 3.12c0 .41-.34.75-.75.75s-.75-.34-.75-.75S7.59 12 8 12s.75.34.75.75"/></svg>
