<?xml version="1.0" encoding="UTF-8"?>
<svg xmlns="http://www.w3.org/2000/svg" viewBox="0 0 16 16"><path fill="none" d="M0 0H16V16H0z" data-name="Transparante laag"/><path d="M8 1C4.14 1 1 4.14 1 8s3.14 7 7 7 7-3.14 7-7-3.14-7-7-7m0 13c-3.31 0-6-2.69-6-6s2.69-6 6-6 6 2.69 6 6-2.69 6-6 6m2.83-8.12L8.71 8l2.12 2.12c.2.2.2.51 0 .71a.485.485 0 0 1-.7 0L8.01 8.71l-2.12 2.12a.485.485 0 0 1-.7 0c-.2-.2-.2-.51 0-.71L7.31 8 5.19 5.88c-.2-.2-.2-.51 0-.71s.51-.2.71 0l2.12 2.12 2.12-2.12c.2-.2.51-.2.71 0s.2.51 0 .71Z"/></svg>
